<svg xmlns="http://www.w3.org/2000/svg" xmlns:xlink="http://www.w3.org/1999/xlink" width="396.632" height="27.168" viewBox="0 0 396.632 27.168"><defs><clipPath id="a"><rect width="106.916" height="27.168" fill="#fff"/></clipPath></defs><g transform="translate(1917.948 -4381)"><text transform="translate(-1917.948 4399.63)" fill="#fff" font-size="14" font-family="HelveticaNeue Regular, HelveticaNeue"><tspan x="0" y="0">© Copyright 2020 Ad House - All rights Reserved:</tspan></text><g transform="translate(-1628.232 4381)"><g clip-path="url(#a)"><path d="M0,24.175v0C.481,22.269,6.489-2.712,15.089.243c2.143.989,3.293,4.39,2.59,8.362C9.53-1.046.178,24.325,0,24.175" transform="translate(0 -0.001)" fill="#fff"/><path d="M62.77,1.39l0,0c.921,1.59,13.225,22.27,5.412,25.434-2.113.618-5.131-1.011-7.26-4.148C72.828,24.357,62.55,1.393,62.77,1.39" transform="translate(-45.799 -1.045)" fill="#fff"/><path d="M.043,45.563c.607-1.872,7.746-19.841,15.638-16.72,1.776.958,2.706,3.637,2.329,6.853.037-2.656-.867-4.787-2.412-5.62C7.234,26.612.044,45.564.043,45.563" transform="translate(-0.032 -21.409)" fill="#fff"/><path d="M123.86,90.711l1.425,3.376H125l-.388-.932h-1.741l-.383.932h-.29l1.427-3.376Zm-.888,2.2h1.54l-.769-1.857Z" transform="translate(-91.858 -68.189)" fill="#fff"/><path d="M139.026,90.711v3.355a4.064,4.064,0,0,1-.765.085,1.368,1.368,0,0,1-.972-.336,1.193,1.193,0,0,1,0-1.617,1.336,1.336,0,0,1,.972-.343,3.061,3.061,0,0,1,.509.041V90.711Zm-1.561,1.67a.944.944,0,0,0,0,1.244,1.113,1.113,0,0,0,.8.266,2.963,2.963,0,0,0,.5-.039V92.158a2.539,2.539,0,0,0-.5-.041,1.106,1.106,0,0,0-.8.264" transform="translate(-102.965 -68.189)" fill="#fff"/><path d="M148.035,95.564l.721,1.816.721-1.816h.281l-.886,2.171h-.238l-.884-2.171Z" transform="translate(-111.068 -71.837)" fill="#fff"/><path d="M159.473,95.619a1.163,1.163,0,0,1,.295.836h-1.86a.87.87,0,0,0,.245.657.837.837,0,0,0,.591.234,1.251,1.251,0,0,0,.741-.251l.154.212a1.469,1.469,0,0,1-.895.3,1.052,1.052,0,0,1-.769-.321,1.122,1.122,0,0,1-.323-.831,1.105,1.105,0,0,1,.323-.829,1.06,1.06,0,0,1,.769-.317.953.953,0,0,1,.73.31m-1.247.118a.79.79,0,0,0-.29.48h1.548a.8.8,0,0,0-.2-.423.7.7,0,0,0-.543-.229.816.816,0,0,0-.517.172" transform="translate(-118.51 -71.646)" fill="#fff"/><path d="M169.73,95.559h-.024a.6.6,0,0,0-.676.679V97.55h-.26V96.258a.83.83,0,0,1,.934-.941h.026Z" transform="translate(-126.868 -71.652)" fill="#fff"/><path d="M175.941,95.967q-.515,0-.515-.541V93.972h-.277v-.24h.277v-.539l.26-.066v.605h.424v.24h-.424v1.412q0,.365.281.364a.787.787,0,0,0,.171-.022l.063.194a.89.89,0,0,1-.26.046" transform="translate(-131.662 -70.005)" fill="#fff"/><path d="M182.476,91.916v2.171h-.257V92.156H181.9v-.24Zm0-.6h-.258v-.6h.258Z" transform="translate(-136.736 -68.189)" fill="#fff"/><path d="M188.369,95.482a.5.5,0,0,1,.171.273l-.24.076a.284.284,0,0,0-.106-.177.49.49,0,0,0-.346-.111.5.5,0,0,0-.327.1.32.32,0,0,0-.13.271.306.306,0,0,0,.065.19.524.524,0,0,0,.26.146l.351.111a.833.833,0,0,1,.435.271.517.517,0,0,1,.119.34.554.554,0,0,1-.258.485.916.916,0,0,1-.515.142.873.873,0,0,1-.55-.161.537.537,0,0,1-.21-.354l.251-.074a.326.326,0,0,0,.128.24.613.613,0,0,0,.381.1.655.655,0,0,0,.364-.094.334.334,0,0,0,.147-.288.3.3,0,0,0-.058-.194.616.616,0,0,0-.316-.183l-.346-.111a.856.856,0,0,1-.379-.229.481.481,0,0,1-.128-.34.555.555,0,0,1,.223-.458.778.778,0,0,1,.494-.157.733.733,0,0,1,.522.181" transform="translate(-140.637 -71.64)" fill="#fff"/><path d="M196.177,91.916v2.171h-.258V92.156H195.6v-.24Zm0-.6h-.258v-.6h.258Z" transform="translate(-147.036 -68.189)" fill="#fff"/><path d="M202.74,96.258V97.55h-.255V96.239a.676.676,0,0,0-.676-.679.676.676,0,0,0-.674.679V97.55h-.26V96.258a.911.911,0,0,1,.275-.666.893.893,0,0,1,.66-.275.88.88,0,0,1,.654.275.9.9,0,0,1,.275.666" transform="translate(-151.002 -71.652)" fill="#fff"/><path d="M213.064,97.6q-.02,1.222-1.351,1.222a4.4,4.4,0,0,1-.561-.035l.063-.257a3.1,3.1,0,0,0,.494.035q1.1,0,1.1-.991a3.851,3.851,0,0,1-.507.041,1.365,1.365,0,0,1-.972-.343,1.192,1.192,0,0,1,0-1.617,1.345,1.345,0,0,1,.972-.336,4.106,4.106,0,0,1,.764.085Zm-.762-.247a3.109,3.109,0,0,0,.5-.041V95.617a2.939,2.939,0,0,0-.5-.039,1.114,1.114,0,0,0-.8.266.945.945,0,0,0,0,1.244,1.133,1.133,0,0,0,.8.264" transform="translate(-158.621 -71.652)" fill="#fff"/><path d="M239.607,90.71a.816.816,0,0,1,.591.243.8.8,0,0,1,.245.594A.731.731,0,0,1,240.3,92a.785.785,0,0,1-.385.268.939.939,0,0,1,.517.3.8.8,0,0,1,.2.559.958.958,0,0,1-.959.96h-1.516V90.71Zm-1.193,1.456h1.153a.593.593,0,0,0,0-1.185h-1.153Zm0,1.663h1.241a.709.709,0,0,0,0-1.419h-1.241Z" transform="translate(-179.023 -68.188)" fill="#fff"/><path d="M251.68,95.559h-.024a.6.6,0,0,0-.675.679V97.55h-.26V96.258a.829.829,0,0,1,.933-.941h.026Z" transform="translate(-188.472 -71.652)" fill="#fff"/><path d="M258.626,97.529a4.091,4.091,0,0,1-.765.085,1.331,1.331,0,0,1-.973-.343,1.194,1.194,0,0,1,0-1.617,1.33,1.33,0,0,1,.973-.336,4.087,4.087,0,0,1,.765.085Zm-.76-.177a3.107,3.107,0,0,0,.5-.041V95.617a2.938,2.938,0,0,0-.5-.039,1.113,1.113,0,0,0-.8.266.945.945,0,0,0,0,1.244,1.133,1.133,0,0,0,.8.264" transform="translate(-192.871 -71.652)" fill="#fff"/><path d="M269.478,96.258V97.55h-.255V96.239a.676.676,0,0,0-.676-.679.676.676,0,0,0-.674.679V97.55h-.26V96.258a.909.909,0,0,1,.276-.666.893.893,0,0,1,.66-.275.88.88,0,0,1,.654.275.9.9,0,0,1,.275.666" transform="translate(-201.17 -71.652)" fill="#fff"/><path d="M279.776,90.711v3.355a4.06,4.06,0,0,1-.764.085,1.368,1.368,0,0,1-.972-.336,1.193,1.193,0,0,1,0-1.617,1.336,1.336,0,0,1,.972-.343,3.061,3.061,0,0,1,.509.041V90.711Zm-1.561,1.67a.945.945,0,0,0,0,1.244,1.114,1.114,0,0,0,.8.266,2.965,2.965,0,0,0,.5-.039V92.158a2.541,2.541,0,0,0-.5-.041,1.107,1.107,0,0,0-.8.264" transform="translate(-208.77 -68.189)" fill="#fff"/><path d="M289.254,91.916v2.171H289V92.156h-.321v-.24Zm0-.6H289v-.6h.258Z" transform="translate(-217.003 -68.189)" fill="#fff"/><path d="M295.817,96.258V97.55h-.255V96.239a.676.676,0,0,0-.676-.679.676.676,0,0,0-.674.679V97.55h-.26V96.258a.91.91,0,0,1,.276-.666.893.893,0,0,1,.66-.275.88.88,0,0,1,.654.275.9.9,0,0,1,.275.666" transform="translate(-220.969 -71.652)" fill="#fff"/><path d="M306.141,97.6q-.019,1.222-1.351,1.222a4.409,4.409,0,0,1-.561-.035l.063-.257a3.091,3.091,0,0,0,.494.035q1.1,0,1.1-.991a3.842,3.842,0,0,1-.507.041,1.365,1.365,0,0,1-.972-.343,1.193,1.193,0,0,1,0-1.617,1.345,1.345,0,0,1,.972-.336,4.1,4.1,0,0,1,.764.085Zm-.762-.247a3.1,3.1,0,0,0,.5-.041V95.617a2.933,2.933,0,0,0-.5-.039,1.113,1.113,0,0,0-.8.266.945.945,0,0,0,0,1.244,1.133,1.133,0,0,0,.8.264" transform="translate(-228.59 -71.652)" fill="#fff"/><path d="M333.59,90.711v.253h-1.139v3.123h-.26V90.964h-1.137v-.253Z" transform="translate(-248.86 -68.189)" fill="#fff"/><path d="M342.984,95.619a1.163,1.163,0,0,1,.295.836h-1.86a.871.871,0,0,0,.245.657.837.837,0,0,0,.591.234,1.251,1.251,0,0,0,.74-.251l.154.212a1.467,1.467,0,0,1-.894.3,1.053,1.053,0,0,1-.769-.321,1.122,1.122,0,0,1-.323-.831,1.105,1.105,0,0,1,.323-.829,1.06,1.06,0,0,1,.769-.317.952.952,0,0,1,.729.31m-1.247.118a.792.792,0,0,0-.29.48h1.548a.8.8,0,0,0-.2-.423.7.7,0,0,0-.543-.229.817.817,0,0,0-.518.172" transform="translate(-256.459 -71.646)" fill="#fff"/><path d="M354.217,95.621l-.173.194a.968.968,0,0,0-.66-.229.956.956,0,0,0-.656.229.924.924,0,0,0,0,1.311.938.938,0,0,0,.656.238.955.955,0,0,0,.66-.238l.173.2a1.317,1.317,0,0,1-1.661,0,1.1,1.1,0,0,1-.36-.853,1.085,1.085,0,0,1,.36-.851,1.317,1.317,0,0,1,1.661,0" transform="translate(-264.753 -71.658)" fill="#fff"/><path d="M363.277,90.711V92.2a.886.886,0,0,1,.721-.345.865.865,0,0,1,.626.262.892.892,0,0,1,.264.679v1.292h-.26V92.775a.674.674,0,0,0-.675-.679.666.666,0,0,0-.474.192.642.642,0,0,0-.2.469v1.329h-.257V90.711Z" transform="translate(-272.889 -68.189)" fill="#fff"/><path d="M375.1,96.258V97.55h-.255V96.239a.676.676,0,0,0-.676-.679.676.676,0,0,0-.674.679V97.55h-.26V96.258a.91.91,0,0,1,.276-.666.893.893,0,0,1,.66-.275.88.88,0,0,1,.654.275.9.9,0,0,1,.275.666" transform="translate(-280.566 -71.652)" fill="#fff"/><path d="M385.592,96.474a1.1,1.1,0,0,1-.335.842,1.232,1.232,0,1,1,.335-.842m-1.734-.657a.958.958,0,0,0,0,1.312.929.929,0,0,0,1.222,0,.862.862,0,0,0,.257-.657.841.841,0,0,0-.87-.888.834.834,0,0,0-.609.233" transform="translate(-288.166 -71.658)" fill="#fff"/><path d="M395.606,94.151q-.515,0-.515-.542v-2.9h.26v2.857q0,.365.281.364a.788.788,0,0,0,.171-.022l.063.194a.892.892,0,0,1-.26.046" transform="translate(-296.998 -68.189)" fill="#fff"/><path d="M402.451,96.474a1.1,1.1,0,0,1-.335.842,1.232,1.232,0,1,1,.335-.842m-1.734-.657a.957.957,0,0,0,0,1.312.928.928,0,0,0,1.221,0,.86.86,0,0,0,.258-.657.841.841,0,0,0-.87-.888.834.834,0,0,0-.609.233" transform="translate(-300.84 -71.658)" fill="#fff"/><path d="M413.854,97.6q-.019,1.222-1.351,1.222a4.408,4.408,0,0,1-.561-.035l.063-.257a3.09,3.09,0,0,0,.494.035q1.1,0,1.1-.991a3.849,3.849,0,0,1-.507.041,1.365,1.365,0,0,1-.972-.343,1.192,1.192,0,0,1,0-1.617,1.345,1.345,0,0,1,.972-.336,4.1,4.1,0,0,1,.764.085Zm-.762-.247a3.107,3.107,0,0,0,.5-.041V95.617a2.938,2.938,0,0,0-.5-.039,1.113,1.113,0,0,0-.8.266.944.944,0,0,0,0,1.244,1.133,1.133,0,0,0,.8.264" transform="translate(-309.559 -71.652)" fill="#fff"/><path d="M424.463,95.564h.258v2.2a1.191,1.191,0,0,1-.335.879,1.446,1.446,0,0,1-1.046.366c-.133,0-.281-.008-.444-.024l.062-.257a3.293,3.293,0,0,0,.382.019,1.182,1.182,0,0,0,.864-.292.943.943,0,0,0,.257-.692v-.3a.809.809,0,0,1-.693.345.872.872,0,0,1-.652-.275.914.914,0,0,1-.264-.666v-1.3h.26V96.88a.675.675,0,0,0,.675.679.671.671,0,0,0,.474-.192.639.639,0,0,0,.2-.469Z" transform="translate(-317.866 -71.837)" fill="#fff"/><path d="M130.563,14.254h-1.1L123.141,29.2l-.027.063H124.5l1.694-4.118h7.633l1.7,4.09.011.028H136.9l-6.324-14.984Zm2.782,9.713h-6.668l3.339-8.044Z" transform="translate(-92.547 -10.715)" fill="#fff"/><path d="M189.97,19.484a13.694,13.694,0,0,0-2.1-.176h-.1a5.968,5.968,0,0,0-4.328,1.527,4.788,4.788,0,0,0-1.411,3.592,4.825,4.825,0,0,0,1.411,3.621,6.108,6.108,0,0,0,4.328,1.5h0a18.133,18.133,0,0,0,3.387-.377l.037-.007V14.254h-1.22Zm0,8.657a13.153,13.153,0,0,1-2.184.167,4.9,4.9,0,0,1-3.509-1.164,3.664,3.664,0,0,1-1.02-2.716,3.644,3.644,0,0,1,1.02-2.716,4.871,4.871,0,0,1,3.509-1.154h.113a11.221,11.221,0,0,1,2.07.176Z" transform="translate(-136.833 -10.715)" fill="#fff"/><path d="M245.064,19.308a3.962,3.962,0,0,0-3.141,1.443v-6.5h-1.23V29.266h1.23V23.348a2.8,2.8,0,0,1,.875-2.042,2.909,2.909,0,0,1,2.065-.836h.026a2.939,2.939,0,0,1,2.915,2.954v5.842h1.24V23.511a4,4,0,0,0-1.181-3.033,3.878,3.878,0,0,0-2.8-1.17" transform="translate(-180.934 -10.715)" fill="#fff"/><path d="M283.98,34.65a4.849,4.849,0,0,0-5.012,5.109,4.863,4.863,0,0,0,5.012,5.119h0a4.965,4.965,0,0,0,3.524-1.353,4.915,4.915,0,0,0,1.5-3.756,4.864,4.864,0,0,0-5.022-5.119m0,8.98a3.692,3.692,0,0,1-2.658-1,4.186,4.186,0,0,1,0-5.731,4,4,0,0,1,5.334,0,3.709,3.709,0,0,1,1.124,2.86,3.777,3.777,0,0,1-1.125,2.87,3.718,3.718,0,0,1-2.677,1" transform="translate(-209.706 -26.047)" fill="#fff"/><path d="M331.137,41.542A2.939,2.939,0,0,1,328.2,44.5a2.939,2.939,0,0,1-2.93-2.954V35.7h-1.24v5.755a4.108,4.108,0,0,0,1.229,2.975,4.06,4.06,0,0,0,2.951,1.228,3.948,3.948,0,0,0,2.923-1.229,4.061,4.061,0,0,0,1.228-2.974V35.7h-1.22Z" transform="translate(-243.577 -26.836)" fill="#fff"/><path d="M366.591,39.231l-1.551-.492a2.272,2.272,0,0,1-1.125-.631,1.311,1.311,0,0,1-.278-.812,1.379,1.379,0,0,1,.557-1.161,2.178,2.178,0,0,1,1.416-.443,2.13,2.13,0,0,1,1.5.482,1.219,1.219,0,0,1,.452.754l.01.05,1.151-.366-.01-.041a2.258,2.258,0,0,0-.769-1.229,3.285,3.285,0,0,0-2.305-.813h-.032a3.5,3.5,0,0,0-2.211.7,2.5,2.5,0,0,0-1,2.061,2.181,2.181,0,0,0,.577,1.535,3.829,3.829,0,0,0,1.695,1.025q.823.261,1.532.492a2.687,2.687,0,0,1,1.375.795,1.29,1.29,0,0,1,.248.831,1.442,1.442,0,0,1-.63,1.235,2.858,2.858,0,0,1-1.582.407,2.678,2.678,0,0,1-1.657-.453,1.4,1.4,0,0,1-.547-1.029l-.005-.056-1.2.355.007.039a2.426,2.426,0,0,0,.945,1.591,3.915,3.915,0,0,0,2.459.723h0a4.107,4.107,0,0,0,2.3-.635,2.5,2.5,0,0,0,1.159-2.179,2.338,2.338,0,0,0-.536-1.532,3.75,3.75,0,0,0-1.946-1.212" transform="translate(-272.273 -25.958)" fill="#fff"/><path d="M397.8,43.625a4.55,4.55,0,0,1-2.908-1.073,3.8,3.8,0,0,1-1.068-2.825h8.221v-.045a5.209,5.209,0,0,0-1.314-3.725,4.274,4.274,0,0,0-3.258-1.384,4.748,4.748,0,0,0-3.43,1.411,4.948,4.948,0,0,0-1.44,3.7,5.021,5.021,0,0,0,1.44,3.707,4.716,4.716,0,0,0,3.43,1.431h.073a4.653,4.653,0,0,0,4.054-2.5,4.2,4.2,0,0,0,.442-1.3,8.747,8.747,0,0,1-1.732,1.756,4.1,4.1,0,0,1-2.511.852m-2.587-7.081a3.581,3.581,0,0,1,2.229-.753h.031a3.079,3.079,0,0,1,2.369,1,3.493,3.493,0,0,1,.849,1.794h-6.731a3.444,3.444,0,0,1,1.253-2.04" transform="translate(-295.125 -25.988)" fill="#fff"/></g></g></g></svg>