<svg xmlns="http://www.w3.org/2000/svg" width="547.054" height="547.261" viewBox="0 0 547.054 547.261"><g transform="translate(-1295 -975)"><g transform="translate(1295 975)"><g transform="translate(0 231.426)"><ellipse cx="273.527" cy="157.918" rx="273.527" ry="157.918" fill="#f5f5f5"/></g><g transform="translate(125.795 400.902)"><ellipse cx="50.294" cy="29.036" rx="50.294" ry="29.036" transform="translate(144.257 17.198)" fill="#e0e0e0"/><ellipse cx="50.294" cy="29.036" rx="50.294" ry="29.036" transform="translate(275.095)" fill="#e0e0e0"/><ellipse cx="50.294" cy="29.036" rx="50.294" ry="29.036" transform="translate(0 60.734)" fill="#e0e0e0"/></g><g transform="translate(29.777 330.495)"><path d="M106.61,365.966s-1.313-30.7-14.184-47.79-28.647-19.544-36.462-14.731c-5.712,3.5-4.947,13.9,4.935,20.662s28.927,24.077,31.9,35.368Z" transform="translate(-42.728 -301.271)" fill="#3d2167"/><path d="M95.484,359.807a.8.8,0,0,1-.741-.839C96.067,331.111,71.65,313.743,65,310.619a.8.8,0,0,1-.389-1.057.814.814,0,0,1,1.07-.389C72.5,312.406,97.7,330.309,96.335,359a.8.8,0,0,1-.839.754Z" transform="translate(-40.11 -299.585)" fill="#fff"/><path d="M102.245,349.38a7.292,7.292,0,0,1-4.752-1.847c-1.495-1.641-1.373-4.157-2.066-6.271-1.13-3.476-4.558-5.834-8.131-6.575a24.687,24.687,0,0,0-10.841.729c-7.171,1.762-14.062-2.65-21.245-2.127a14.328,14.328,0,0,0-7.292,2.273,7.756,7.756,0,0,0-3.476,6.515,8.313,8.313,0,0,0,2.966,5.457,25,25,0,0,0,5.445,3.4l6.308,3.221a11.131,11.131,0,0,1,2.978,1.945,8.4,8.4,0,0,1,2.2,6.721c-.486,2.431-2.431,4.278-3.051,6.66-.766,3.124,1.142,6.466,3.889,8.155a15.92,15.92,0,0,0,9.334,1.823c3.221-.182,6.405-.826,9.626-.887a11.34,11.34,0,0,1,6.271,1.373,11.628,11.628,0,0,1,4.412,6.405,17,17,0,0,0,1.969,4.691,9.081,9.081,0,0,0,4.242,2.978,14.515,14.515,0,0,0,10.027,0c2.662-1.021,3.962-4.023,4.959-6.624a23.088,23.088,0,0,0,1.4-8.508,54.336,54.336,0,0,0-4.947-21.561c-1.495-3.111-3.646-6.223-6.952-7.292A20.935,20.935,0,0,0,102.245,349.38Z" transform="translate(-44.44 -294.384)" fill="#8704bf"/><path d="M107.812,381.84a.7.7,0,0,1-.668-.474c-7.5-21.5-42.977-40.206-55.909-42.357a.708.708,0,0,1,.231-1.4c13.224,2.188,49.406,21.306,57.124,43.281a.7.7,0,0,1-.418.9l-.019.007A.772.772,0,0,1,107.812,381.84Z" transform="translate(-43.104 -293.445)" fill="#fff"/><path d="M71.555,365.638a.705.705,0,0,1-.425-1.215,35.676,35.676,0,0,1,19.714-6.332h0a.717.717,0,0,1,0,1.422,34.992,34.992,0,0,0-18.875,6.077A.73.73,0,0,1,71.555,365.638Z" transform="translate(-38.739 -289.032)" fill="#fff"/></g><g transform="translate(92.281 0)"><path d="M98.457,464.866a5.9,5.9,0,0,1-2.577-4.655V206.933a6.075,6.075,0,0,1,2.747-4.752L396.6,30.14a5.141,5.141,0,0,1,7.876,4.546V287.976a6.073,6.073,0,0,1-2.747,4.752L103.756,464.769A5.9,5.9,0,0,1,98.457,464.866Z" transform="translate(-95.863 -29.35)" fill="#8704bf"/><path d="M103.233,427.774h-.109a.968.968,0,0,1-.267.109h-.207a1.728,1.728,0,0,1-.377.085.883.883,0,0,1-.255.061l-.413.061a5.32,5.32,0,0,1-3.16-.547A5.847,5.847,0,0,1,95.88,422.9V202.17l5.153,2.978v220.8c0,1.215.62,1.969,1.519,1.969a1.223,1.223,0,0,0,.365,0h0A1.132,1.132,0,0,0,103.233,427.774Z" transform="translate(-95.863 7.877)" fill="#ba68c8"/><path d="M103.233,427.774h-.109a.968.968,0,0,1-.267.109h-.207a1.728,1.728,0,0,1-.377.085.883.883,0,0,1-.255.061l-.413.061a5.32,5.32,0,0,1-3.16-.547A5.847,5.847,0,0,1,95.88,422.9V202.17l5.153,2.978v220.8c0,1.215.62,1.969,1.519,1.969a1.223,1.223,0,0,0,.365,0h0A1.132,1.132,0,0,0,103.233,427.774Z" transform="translate(-95.863 7.877)" fill="#e0e0e0" opacity="0.81" style="isolation:isolate"/><path d="M101.023,205.148,95.87,202.17v49.042l5.153,3Z" transform="translate(-95.865 7.877)" fill="#ba68c8"/><path d="M101.023,205.148,95.87,202.17v49.042l5.153,3Z" transform="translate(-95.865 7.877)" fill="#84d904" opacity="0.15" style="isolation:isolate"/><path d="M101.814,176.208a5.65,5.65,0,0,0-.79,2.7v32.476L95.871,208.4V175.94a2.954,2.954,0,0,1,0-.328,5.874,5.874,0,0,1,.109-.681,7.036,7.036,0,0,1,.681-1.7Z" transform="translate(-95.866 1.643)" fill="#8704bf"/><path d="M403.56,34.1V48.754L185.14,174.853c-1.507.875-2.735.158-2.735-1.58v-5.554c0-1.738-1.215-2.431-2.747-1.58l-66.519,38.419a6.075,6.075,0,0,0-2.747,4.752v5.542a6.076,6.076,0,0,1-2.735,4.752L100.11,224V209.419a6.076,6.076,0,0,1,2.735-4.752L400.826,32.517C402.333,31.642,403.56,32.346,403.56,34.1Z" transform="translate(-94.952 -28.748)" fill="#3d2167"/><path d="M403.573,284.443a6.075,6.075,0,0,1-2.747,4.74L102.845,461.224c-1.507.863-2.735.158-2.735-1.592V221.059l7.548-4.351c1.507-.875,3.962-14.172,5.481-15.047l65.4-37.763c1.519-.875,5.093,8.945,6.6,8.07L403.56,45.81V284.443Z" transform="translate(-94.952 -25.804)" fill="#ba68c8"/><path d="M403.573,284.443a6.075,6.075,0,0,1-2.747,4.74L102.845,461.224c-1.507.863-2.735.158-2.735-1.592V221.059l7.548-4.351c1.507-.875,3.962-14.172,5.481-15.047l65.4-37.763c1.519-.875,5.093,8.945,6.6,8.07L403.56,45.81V284.443Z" transform="translate(-94.952 -25.804)" fill="#fff" opacity="0.9" style="isolation:isolate"/><g transform="translate(5.158 20.006)" opacity="0.4"><path d="M402.345,47.913v236.53a4.861,4.861,0,0,1-2.139,3.646L102.237,460.166a1.217,1.217,0,0,1-.62.207c-.28,0-.292-.608-.292-.741V221.7l6.94-4.011c1.07-.62,1.75-2.747,3.282-8.216a40.768,40.768,0,0,1,2.285-6.879L178.7,165.151a27.084,27.084,0,0,1,2.09,3.33c1.762,3.087,2.735,4.691,4.145,4.691a1.731,1.731,0,0,0,.814-.207l216.6-125.053m1.215-2.1L185.14,171.908a.424.424,0,0,1-.207,0c-1.531,0-4.643-8.18-6.186-8.18a.424.424,0,0,0-.207,0l-65.4,37.884c-1.519.875-3.974,14.172-5.481,15.047l-7.548,4.4V459.631c0,1.215.62,1.957,1.507,1.957a2.572,2.572,0,0,0,1.215-.365L400.826,289.183a6.075,6.075,0,0,0,2.747-4.74V45.81Z" transform="translate(-100.11 -45.81)" fill="#ba68c8"/></g><path d="M100.11,235.669v49.066L403.56,109.558V60.48Z" transform="translate(-94.952 -22.644)" fill="#84d904"/><path d="M403.56,45.81V63.64L100.11,238.829V221.059l5.627-3.257c1.507-.875,2.018-2.212,2.735-4.752l1.92-6.636c.6-2.309,1.215-3.877,2.747-4.752l65.4-37.763c1.519-.875,2.71-.972,3.865.936l2.346,4.254c.851,1.495,1.288,2.37,2.8,1.495Z" transform="translate(-94.952 -25.804)" fill="#f0f0f0"/><path d="M339.81,41.393c1.908-1.094,3.452-.207,3.452,1.993a7.631,7.631,0,0,1-3.452,5.98c-1.9,1.094-3.44.207-3.44-1.993A7.658,7.658,0,0,1,339.81,41.393Z" transform="translate(-44.06 -26.856)" fill="#ba68c8"/><path d="M329.612,47.283c1.9-1.094,3.44-.207,3.44,1.993a7.654,7.654,0,0,1-3.44,5.98c-1.908,1.094-3.452.207-3.452-1.993A7.631,7.631,0,0,1,329.612,47.283Z" transform="translate(-46.26 -25.588)" fill="#ba68c8"/><path d="M319.382,53.173c1.9-1.094,3.452-.207,3.452,1.993a7.668,7.668,0,0,1-3.452,5.98c-1.908,1.106-3.452.207-3.452-1.993A7.631,7.631,0,0,1,319.382,53.173Z" transform="translate(-48.463 -24.319)" fill="#ba68c8"/><path d="M111.422,191.275l-4.3,2.431,1.641-3.148a.817.817,0,0,0,0-.778c-.122-.146-.34,0-.486.231l-2.334,4.5h0a.993.993,0,0,0,0,.17h0a1.827,1.827,0,0,0,0,.231.978.978,0,0,0,0,.207h0a.261.261,0,0,0,0,.1h0l2.334,1.8a.22.22,0,0,0,.231,0,.881.881,0,0,0,.255-.34.787.787,0,0,0,0-.729l-1.641-1.215,4.3-2.431a.91.91,0,0,0,.352-.741C111.775,191.275,111.617,191.178,111.422,191.275Z" transform="translate(-93.697 5.195)" fill="#455a64" opacity="0.5" style="isolation:isolate"/><path d="M113.471,190.142l4.3-2.431-1.641-1.215c-.146-.109-.158-.438,0-.729s.34-.45.486-.34l2.334,1.8h0a.235.235,0,0,1,.073.085h0a.477.477,0,0,1,0,.194.736.736,0,0,1,0,.231v.061a1.1,1.1,0,0,1-.073.17h0l-2.334,4.448a.64.64,0,0,1-.231.267.183.183,0,0,1-.255,0,.78.78,0,0,1,0-.778l1.641-3.16-4.3,2.492c-.194.109-.34,0-.34-.34A.9.9,0,0,1,113.471,190.142Z" transform="translate(-92.148 4.263)" fill="#455a64" opacity="0.5" style="isolation:isolate"/><path d="M125.851,179.13c0-.255-.255-.219-.365.061l-.6,1.446c-1.009-.109-2.224.863-3.051,2.613-1.057,2.249-1.057,4.862,0,5.943a1.531,1.531,0,0,0,1.945.122,5.3,5.3,0,0,0,1.932-2.346.741.741,0,0,0,0-.754c-.146-.134-.365,0-.5.28-.79,1.677-2.091,2.431-2.881,1.665s-.8-2.759,0-4.448c.559-1.215,1.373-1.908,2.09-1.945l-.45,1.082c-.109.28,0,.547.17.425l1.762-1.142a.6.6,0,0,0,.194-.486Z" transform="translate(-90.442 2.877)" fill="#455a64" opacity="0.5" style="isolation:isolate"/><path d="M163.632,150.4l1.568-3.33a1.021,1.021,0,0,0,0-1.033c-.182-.17-.486,0-.668.389l-1.568,3.318-1.58-1.507c-.182-.182-.486,0-.668.389a1.02,1.02,0,0,0,0,1.033l1.568,1.507-1.568,3.342a1.02,1.02,0,0,0,0,1.033.268.268,0,0,0,.34,0,.8.8,0,0,0,.328-.4l1.58-3.33,1.568,1.519a.254.254,0,0,0,.328,0,.883.883,0,0,0,.34-.4,1.021,1.021,0,0,0,0-1.033Z" transform="translate(-81.928 -4.228)" fill="#455a64" opacity="0.5" style="isolation:isolate"/><path d="M129.73,209.551v-5.542a6.076,6.076,0,0,1,2.759-4.74l246.545-142.2c1.519-.875,2.747-.17,2.747,1.58v5.469a6.073,6.073,0,0,1-2.747,4.752L132.489,211.144C130.958,212.019,129.73,211.3,129.73,209.551Z" transform="translate(-88.572 -23.46)" fill="#fff"/><path d="M332.049,68.71a.477.477,0,0,1-.194,0,.644.644,0,0,1-.34-.717l.267-2.3h0l-1.118-.8a.6.6,0,0,1-.243-.51,1.145,1.145,0,0,1,.413-.875l1.6-1.215a.362.362,0,0,0,.109-.182l.717-2.358a.922.922,0,0,1,.717-.693.56.56,0,0,1,.523.316h0l.644,1.386,1.459-.559a.535.535,0,0,1,.608.134.9.9,0,0,1,0,.984L336,63.508a.475.475,0,0,0,0,.194l.28,1.981a1.1,1.1,0,0,1-.316.887.621.621,0,0,1-.535.219l-1.446-.182-1.4,1.872A.7.7,0,0,1,332.049,68.71Zm-.924-4.461,1.118.8a.681.681,0,0,1,.231.656l-.134,1.9,1.215-1.531a.718.718,0,0,1,.62-.3l1.446.182a.451.451,0,0,0,0-.292l-.28-1.981a1.1,1.1,0,0,1,.134-.632l1.215-2.188-1.337.51a.522.522,0,0,1-.688-.269l0-.011-.6-1.215h0l-.717,2.358a1.046,1.046,0,0,1-.365.547l-1.6,1.215A.512.512,0,0,0,331.125,64.25Z" transform="translate(-45.342 -22.95)" fill="#e0e0e0"/><g transform="translate(295.46 26.5)" opacity="0.5"><path d="M339.92,57.506a.948.948,0,0,1-.474-1.774l7.706-4.448a.951.951,0,0,1,.96,1.641l-7.718,4.461A.95.95,0,0,1,339.92,57.506Z" transform="translate(-338.962 -51.153)" fill="#455a64"/><path d="M339.919,61.171a.96.96,0,0,1-.826-.474.948.948,0,0,1,.344-1.3l.008,0,7.706-4.461a.96.96,0,0,1,.96,1.653l-7.718,4.448A.958.958,0,0,1,339.919,61.171Z" transform="translate(-338.961 -50.357)" fill="#455a64"/><path d="M339.919,64.836a.96.96,0,0,1-.826-.474.936.936,0,0,1,.338-1.28l.015-.009,7.706-4.461a.951.951,0,1,1,.96,1.641l-7.718,4.461A.95.95,0,0,1,339.919,64.836Z" transform="translate(-338.961 -49.574)" fill="#455a64"/></g><path d="M101.023,190.476v17.83l-5.153-2.978V187.51Z" transform="translate(-95.865 4.719)" fill="#e0e0e0"/><g transform="translate(212.635 71.544)" style="isolation:isolate"><path d="M270.816,140.18l5.277-24.223,1.959-1.145,5.622,17.851-2.07,1.211-1.6-5.466-5.745,3.359-1.508,7.284Zm3.966-11,4.659-2.723L278,121.442q-.655-2.283-.972-3.813-.264,2.186-.741,4.47Z" transform="translate(-270.816 -82.485)" fill="#fff"/><path d="M283.972,131.914l-1.564.915V111.691l1.686-.986v7.54a7.049,7.049,0,0,1,2.727-3.656,2.828,2.828,0,0,1,1.74-.447,1.882,1.882,0,0,1,1.348.812,5.5,5.5,0,0,1,.83,2,12.984,12.984,0,0,1,.3,2.939,16.92,16.92,0,0,1-1.265,6.823,8.127,8.127,0,0,1-3.036,3.925,1.787,1.787,0,0,1-2.766-.648Zm-.018-7.762a9.177,9.177,0,0,0,.487,3.695q.8,1.541,2.155.745a5.171,5.171,0,0,0,1.913-2.6,12.852,12.852,0,0,0,.806-4.876q0-3-.774-3.974a1.3,1.3,0,0,0-1.869-.334,5.153,5.153,0,0,0-1.911,2.595A12.38,12.38,0,0,0,283.954,124.152Z" transform="translate(-268.319 -83.369)" fill="#fff"/><path d="M290.682,119.775a15.454,15.454,0,0,1,1.535-7.2,8.509,8.509,0,0,1,3.131-3.531q2.055-1.2,3.357.107t1.3,4.956a18.58,18.58,0,0,1-.575,4.987,12.006,12.006,0,0,1-1.678,3.612,7.81,7.81,0,0,1-2.405,2.343q-2.089,1.221-3.378-.089T290.682,119.775Zm1.732-1.014q0,2.941.835,3.918a1.489,1.489,0,0,0,2.1.236,5.431,5.431,0,0,0,2.091-2.693,12.757,12.757,0,0,0,.835-4.972q0-2.839-.84-3.813a1.483,1.483,0,0,0-2.086-.244,5.452,5.452,0,0,0-2.1,2.684A12.425,12.425,0,0,0,292.414,118.761Z" transform="translate(-266.537 -83.851)" fill="#fff"/><path d="M306.511,118.366v-2.248a7.96,7.96,0,0,1-3.158,4.442,2.76,2.76,0,0,1-1.646.441,1.429,1.429,0,0,1-1.134-.641,4.052,4.052,0,0,1-.52-1.621,18.7,18.7,0,0,1-.1-2.363v-9.487l1.687-.987V114.4a21.365,21.365,0,0,0,.1,2.68,1.582,1.582,0,0,0,.676,1.213,1.264,1.264,0,0,0,1.274-.16,4.562,4.562,0,0,0,1.424-1.433,6.48,6.48,0,0,0,.942-2.178,14.542,14.542,0,0,0,.276-3.154v-8.205l1.688-.987v15.313Z" transform="translate(-264.54 -85.208)" fill="#fff"/><path d="M312.612,112.892l.242,2.151a8.022,8.022,0,0,1-1.274.976,1.963,1.963,0,0,1-1.424.385,1.079,1.079,0,0,1-.712-.76,12.3,12.3,0,0,1-.2-2.942v-8.81l-1.24.723V102.6l1.24-.723V98.081l1.675-2.538v5.349l1.7-.992v2.019l-1.7.992v8.955a5.957,5.957,0,0,0,.091,1.375.484.484,0,0,0,.289.335.752.752,0,0,0,.577-.149A6.72,6.72,0,0,0,312.612,112.892Z" transform="translate(-262.806 -86.635)" fill="#fff"/><path d="M324.069,108.1v-2.249a7.958,7.958,0,0,1-3.156,4.442,2.746,2.746,0,0,1-1.647.441,1.434,1.434,0,0,1-1.134-.641,4.06,4.06,0,0,1-.519-1.621,18.4,18.4,0,0,1-.1-2.363V96.624l1.687-.987v8.493a21.644,21.644,0,0,0,.1,2.68,1.586,1.586,0,0,0,.676,1.213,1.264,1.264,0,0,0,1.275-.16,4.562,4.562,0,0,0,1.424-1.433,6.448,6.448,0,0,0,.941-2.179,14.429,14.429,0,0,0,.277-3.153V92.893l1.687-.987v15.313Z" transform="translate(-260.758 -87.419)" fill="#fff"/><path d="M325.768,102.293l1.668-1.378a2.536,2.536,0,0,0,.781,1.907q.645.447,1.8-.227a4.422,4.422,0,0,0,1.725-1.737,4.344,4.344,0,0,0,.563-2.037c0-.587-.167-.95-.5-1.1a4.086,4.086,0,0,0-1.725.129,8.879,8.879,0,0,1-2.573.256,1.419,1.419,0,0,1-1.087-.82,3.982,3.982,0,0,1-.37-1.838,7.373,7.373,0,0,1,.305-2.073,8.3,8.3,0,0,1,.829-1.935,7.447,7.447,0,0,1,1.072-1.384,6.766,6.766,0,0,1,1.458-1.162,4.225,4.225,0,0,1,2.058-.684,1.462,1.462,0,0,1,1.307.643,4.788,4.788,0,0,1,.581,2.031l-1.65,1.311a1.867,1.867,0,0,0-.65-1.465q-.538-.35-1.523.227a4.342,4.342,0,0,0-1.659,1.561,3.43,3.43,0,0,0-.5,1.675,1.314,1.314,0,0,0,.207.789.767.767,0,0,0,.648.312q.252,0,1.49-.209a12.061,12.061,0,0,1,2.5-.255,1.378,1.378,0,0,1,1.108.713,3.853,3.853,0,0,1,.4,1.986,8.409,8.409,0,0,1-.491,2.731,8.712,8.712,0,0,1-1.42,2.6,7.563,7.563,0,0,1-2.1,1.855q-1.94,1.134-2.957.489T325.768,102.293Z" transform="translate(-258.979 -88.214)" fill="#fff"/></g><path d="M110.983,263.1l83.924-48.458V351.458L110.74,399.783Z" transform="translate(-92.662 10.563)" fill="#ba68c8" opacity="0.1" style="isolation:isolate"/><path d="M195.858,218.384,297.1,159.935c2.042-1.215,3.646-.292,3.646,1.981a8.07,8.07,0,0,1-3.646,6.271L195.846,227.293c-2.03,1.215-3.646.243-3.646-2.1v-.425A8.169,8.169,0,0,1,195.858,218.384Z" transform="translate(-75.115 -1.337)" fill="#ba68c8" opacity="0.15" style="isolation:isolate"/><path d="M194.805,239.709l167.532-96.722c1.458-.839,2.637-.243,2.637,1.325a5.637,5.637,0,0,1-2.637,4.375L194.805,245.41c-1.446.839-2.625.243-2.625-1.325A5.649,5.649,0,0,1,194.805,239.709Z" transform="translate(-75.12 -4.953)" fill="#ba68c8" opacity="0.1" style="isolation:isolate"/><path d="M194.805,249.129l167.532-96.722c1.458-.839,2.637-.243,2.637,1.325a5.637,5.637,0,0,1-2.637,4.375L194.805,254.83c-1.446.839-2.625.243-2.625-1.337A5.652,5.652,0,0,1,194.805,249.129Z" transform="translate(-75.12 -2.924)" fill="#ba68c8" opacity="0.1" style="isolation:isolate"/><path d="M194.805,258.539l167.532-96.722c1.458-.839,2.637-.243,2.637,1.337a5.639,5.639,0,0,1-2.637,4.363l-167.532,96.7c-1.446.839-2.625.243-2.625-1.337A5.677,5.677,0,0,1,194.805,258.539Z" transform="translate(-75.12 -0.897)" fill="#ba68c8" opacity="0.1" style="isolation:isolate"/><path d="M194.805,267.959l167.532-96.722c1.458-.839,2.637-.243,2.637,1.325a5.637,5.637,0,0,1-2.637,4.375L194.805,273.66c-1.446.839-2.625.243-2.625-1.325A5.649,5.649,0,0,1,194.805,267.959Z" transform="translate(-75.12 1.132)" fill="#ba68c8" opacity="0.1" style="isolation:isolate"/><path d="M194.805,272.3l116.9-68.063c1.446-.839,2.625-.243,2.625,1.337a5.651,5.651,0,0,1-2.625,4.363L194.805,278c-1.446.839-2.625.243-2.625-1.337A5.652,5.652,0,0,1,194.805,272.3Z" transform="translate(-75.12 8.24)" fill="#ba68c8" opacity="0.1" style="isolation:isolate"/><path d="M194.805,296.209l167.532-96.722c1.458-.839,2.637-.243,2.637,1.325a5.637,5.637,0,0,1-2.637,4.375L194.805,301.91c-1.446.839-2.625.243-2.625-1.325A5.649,5.649,0,0,1,194.805,296.209Z" transform="translate(-75.12 7.217)" fill="#ba68c8" opacity="0.1" style="isolation:isolate"/><path d="M194.805,305.629l167.532-96.722c1.458-.839,2.637-.243,2.637,1.325a5.637,5.637,0,0,1-2.637,4.375L194.805,311.33c-1.446.839-2.625.243-2.625-1.337A5.652,5.652,0,0,1,194.805,305.629Z" transform="translate(-75.12 9.246)" fill="#ba68c8" opacity="0.1" style="isolation:isolate"/><path d="M194.805,315.039l167.532-96.722c1.458-.839,2.637-.243,2.637,1.337a5.639,5.639,0,0,1-2.637,4.363L194.805,320.752c-1.446.839-2.625.243-2.625-1.337A5.679,5.679,0,0,1,194.805,315.039Z" transform="translate(-75.12 11.273)" fill="#ba68c8" opacity="0.1" style="isolation:isolate"/><path d="M194.8,313.685l61.572-35.927c1.446-.839,2.625-.243,2.625,1.337a5.652,5.652,0,0,1-2.625,4.363l-61.56,35.927c-1.446.839-2.625.243-2.625-1.325A5.65,5.65,0,0,1,194.8,313.685Z" transform="translate(-75.118 24.077)" fill="#ba68c8" opacity="0.1" style="isolation:isolate"/></g><g transform="translate(402.242 149.062)"><path d="M384.5,262.742c8.909-28.9,17.575-47.948,8.739-53.842h0c-8.216,1.531-11.9,5.6-13.649,16.444-1.835,11.364-5.652,27.213-7.876,36.353a108.184,108.184,0,0,1-8.2,22.084,4.68,4.68,0,0,1-2.431,2.127c-2.747,1.082-4.059,2.431-6.3,4.084-1.762,1.215-3.051,1.386-2.966,1.908a2.309,2.309,0,0,0,2.747,1.7,16.676,16.676,0,0,0,3.829-1.215,19.087,19.087,0,0,1-4.789,7c-4.315,3.646-3.646,7.207,3.269,7.621,2.431.146,8.228-2.115,13.564-11.194a90.642,90.642,0,0,0,4.752-10.465C378.9,276.039,382.709,268.576,384.5,262.742Z" transform="translate(-350.893 -139.736)" fill="#ffa8a7"/><path d="M390.546,208.621s-6.855-.352-11.012,4.23S370.54,244.8,370.54,244.8s4.546,6.247,16.53,3.646Z" transform="translate(-346.661 -139.797)" fill="#ba68c8"/><path d="M390.546,208.621s-6.855-.352-11.012,4.23S370.54,244.8,370.54,244.8s4.546,6.247,16.53,3.646Z" transform="translate(-346.661 -139.797)" opacity="0.3" style="isolation:isolate"/><rect width="9.201" height="16.408" transform="translate(66.783 262.997)" fill="#ffa8a7"/><path d="M388.872,370.736l-9.2.34-.462-17.368,9.663-.328Z" transform="translate(-344.793 -108.614)" fill="#ffa8a7"/><path d="M423.093,251.519c0,9.152-1.349,82.806-1.349,82.806.207,2.637,2.577,7.5,2.066,17.611-.693,13.734-1.629,49.832-1.629,49.832a11.681,11.681,0,0,1-10.246.219s-8.7-50.014-10.343-63.639c-1.446-11.875-3.889-51.886-3.889-51.886l-4.983,46.514a57.1,57.1,0,0,1,1.142,15.241c-.438,6.3-3.391,39.1-3.391,39.1a12.156,12.156,0,0,1-10.623.839s-5.238-49.394-5.348-55.179c-.122-6.587,3.063-81.566,3.063-81.566Z" transform="translate(-345.808 -130.579)" fill="#37474f"/><path d="M408.42,378.245v-1.373c-.887.4-2.929,8.508-6.575,12.008-2.9,2.747-6.867,5.931-7.876,9.006s5.518,4.971,8.228,4.473c3.148-.583,8.617-2.893,9.979-5.044s2.018-5.3,3.136-6.867,3.646-3.318,4.278-5.141c.34-1,0-3.184-.523-5.032s-.887-3.561-1.446-3.4v1.045a7.079,7.079,0,0,1-4.594,1.629C411.677,379.582,408.408,379.3,408.42,378.245Z" transform="translate(-341.637 -103.556)" fill="#263238"/><path d="M383.388,365.609c-.474,0-.863.717-1.92,1.908a20.166,20.166,0,0,1-5.409,4.059c-3.452,1.8-10.149,4.558-13.187,5.98-1.884.887-1.8,3.269.158,4.631s6.685,2.334,12.361,1.009c3.087-.717,7.122-3.646,9.662-3.537s7.292.134,9.2-1.215,1.13-4.23.6-6.709c-.583-2.7-1.3-6.916-2.163-6.733v.936c-1.106,1.738-6.818,2.431-9.249,1.215Z" transform="translate(-348.606 -106.112)" fill="#263238"/><path d="M395.86,281.617a33.729,33.729,0,0,1-12.81-7.657s2.431,4.862,9.82,9.31L391.3,324.813Z" transform="translate(-343.966 -125.722)" fill="#263238"/><path d="M417.974,210.849s7.2.668,6.685,14.378L423.066,247.1V279.92c-6.77,7.669-36.766,7.1-47.036-.62,0,0,1.155-38.808,1.847-53.745.5-10.611,2.941-15.958,13.369-17.125l12.823.559Z" transform="translate(-345.478 -139.837)" fill="#ba68c8"/><path d="M394.684,216.34l-1.653,11.522-3.841-.073,4.339.693Z" transform="translate(-342.643 -138.133)" opacity="0.3" style="isolation:isolate"/><path d="M406.474,187.529a14,14,0,0,1-13.7,14.281c-7.572,0-13.37-6.405-13.71-14.269-.6-13.941,6.138-14.281,13.71-14.281A14,14,0,0,1,406.474,187.529Z" transform="translate(-344.832 -147.413)" fill="#263238"/><path d="M408.978,190.81s-2.1,10.282-2.941,11.972a4.449,4.449,0,0,1-2.577,2.163l.146-7.232Z" transform="translate(-339.569 -143.633)" fill="#263238"/><path d="M406.093,178.694s1.507-.377,3.112,2.127c1.373,2.139,1.689,6.952-.474,12.6l-3.95.474Z" transform="translate(-339.285 -146.247)" fill="#263238"/><path d="M408.8,195.018c.79.5,1.92-1.094,2.9-2.163s4.169-2.516,5.773.972-1.41,8.277-3.926,9.1c-4.339,1.422-4.983-1.483-4.983-1.483l-.34,16.286c-5.749,8.909-18.79,8.581-14.1-.425V212.35a26.524,26.524,0,0,1-5.846.316c-3.184-.523-5.19-3.136-6.162-6.733-1.556-5.773-2.139-10.428-.826-21.792,1.458-12.458,15.363-12.567,22.886-7.6S408.8,195.018,408.8,195.018Z" transform="translate(-344.5 -147.366)" fill="#ffa8a7"/><path d="M405.6,207.418a20.84,20.84,0,0,1-5.627,7.062,15.908,15.908,0,0,1-6.818,2.893,15.108,15.108,0,0,1,4.862,5.409c1.446,3.16,11.571-5.554,11.473-11.741,0,0-1.58-6.211-3.768-6.6Z" transform="translate(-341.79 -140.697)" fill="#263238"/><path d="M394.371,217.152s-3.124-1.544-1.726-6.733V205.46l-1.373.182a12.063,12.063,0,0,0-3.282,5.7c-.316,1.422-1.094,8.617.28,10.039S391.563,217.541,394.371,217.152Z" transform="translate(-343.011 -140.477)" fill="#263238"/><path d="M404.179,182.292a1.989,1.989,0,0,1,1.07.061c1.215.535,1.434,4.205,1.641,5.263.693,3.561,1.276,9.6,2.613,9.626.4,0,1.92-2.613,2.9-3.549,1.373-1.3-.4-13.041-.4-13.041a5.724,5.724,0,0,0-1.313-5.943c-2.431-2.82-6.344-3.452-9.881-3.646-4.169-.231-8.4.085-12.507-.826a33.262,33.262,0,0,0-3.926-.839.455.455,0,0,0-.352,0c-.134.109-.109.316-.073.486a13.07,13.07,0,0,0,1.288,3.525,31.635,31.635,0,0,1-7.2-1.422.685.685,0,0,0-.413,0c-.28.085-.328.45-.3.741.158,2.941,1.556,7.39,3.95,9.116a13.815,13.815,0,0,0,7.122,2.248C394.845,184.334,398.807,182.972,404.179,182.292Z" transform="translate(-345.199 -148.253)" fill="#263238"/><path d="M405.912,179.95l4.8-2.686a2.6,2.6,0,0,0-3.432-1.322c-.073.033-.145.068-.214.107A3.051,3.051,0,0,0,405.912,179.95Z" transform="translate(-339.105 -146.884)" fill="#263238"/><path d="M391.74,206.6s7.11-1.495,9.6-2.868a8.416,8.416,0,0,0,3.44-3.549,11.79,11.79,0,0,1-1.957,4.181c-1.811,2.431-11.085,4.205-11.085,4.205Z" transform="translate(-342.094 -141.614)" fill="#f28f8f"/><path d="M393.15,189.956a1.422,1.422,0,1,0,1.422-1.556,1.47,1.47,0,0,0-1.423,1.516Z" transform="translate(-341.791 -144.152)" fill="#263238"/><path d="M395,184.8l3.051,1.75a1.946,1.946,0,0,0-.62-2.5,1.664,1.664,0,0,0-2.3.506A1.618,1.618,0,0,0,395,184.8Z" transform="translate(-341.392 -145.146)" fill="#263238"/><path d="M392.847,198.12l-3.257,1.215A1.7,1.7,0,0,0,391.7,200.5c.035-.01.07-.022.106-.034A1.92,1.92,0,0,0,392.847,198.12Z" transform="translate(-342.557 -142.058)" fill="#f28f8f"/><path d="M382.441,186.22l2.783-2.236a1.641,1.641,0,0,0-2.267-.5,1.575,1.575,0,0,0-.164.12A1.97,1.97,0,0,0,382.441,186.22Z" transform="translate(-344.171 -145.266)" fill="#263238"/><path d="M383.39,189.606a1.471,1.471,0,0,0,1.407,1.531h.015a1.544,1.544,0,0,0,0-3.087A1.507,1.507,0,0,0,383.39,189.606Z" transform="translate(-343.893 -144.227)" fill="#263238"/><path d="M390.607,188.35l-.17,9.006-5.117-1.179Z" transform="translate(-343.477 -144.163)" fill="#f28f8f"/><path d="M422.25,195.921c2.054-2.723,6.211,3.318,8.131,7.487s1.957,6.527.377,8.18-4.558.656-7.536-3.294S421.071,197.926,422.25,195.921Z" transform="translate(-335.753 -142.679)" fill="#ba68c8"/><path d="M422.25,195.921c2.054-2.723,6.211,3.318,8.131,7.487s1.957,6.527.377,8.18-4.558.656-7.536-3.294S421.071,197.926,422.25,195.921Z" transform="translate(-335.753 -142.679)" opacity="0.5" style="isolation:isolate"/><path d="M439.306,206.038c-7.292,17.016-17.441,26.605-22,37.556-5.968-.4-10.623-14.828-6.174-20.99,0,0,17.478-18.924,19.058-26.362,1.41-6.6,3.294-17.49,3.136-23.093a3.876,3.876,0,0,0-1.082-2.431c-1.835-1.981-1.835-3.561-3.014-5.737-.912-1.7-1.92-2.334-1.629-2.723a2.2,2.2,0,0,1,2.978-.219,11.6,11.6,0,0,1,2.249,2.163,12.463,12.463,0,0,0-1.033-6.393c-2.03-4.594-1.531-6.928,4.655-5.3,3.889,1.033,6.32,4.266,6.9,13.588a92.33,92.33,0,0,1,.073,11.656c-.681,7.183-1.106,14.67-1.993,20.662A31.2,31.2,0,0,1,439.306,206.038Z" transform="translate(-338.297 -151.994)" fill="#ffa8a7"/><path d="M409.525,213.383l15.411-17.623s-1.835,4.29,2.176,10.55,6.393,5.165,6.393,5.165-9.1,13.284-11.534,17.733-4.971,8.2-4.971,8.2a2.931,2.931,0,0,1-2.88,1.568C411.858,238.98,405.867,228.941,409.525,213.383Z" transform="translate(-338.512 -142.566)" fill="#ba68c8"/><path d="M409.525,213.383l15.411-17.623s-1.835,4.29,2.176,10.55,6.393,5.165,6.393,5.165-9.1,13.284-11.534,17.733-4.971,8.2-4.971,8.2a2.931,2.931,0,0,1-2.88,1.568C411.858,238.98,405.867,228.941,409.525,213.383Z" transform="translate(-338.512 -142.566)" opacity="0.3" style="isolation:isolate"/></g><g transform="translate(267.452 190.357)"><path d="M308.3,242.85l7.256,9.662-7.8,8.933L297.7,249.693Z" transform="translate(-227.561 -173.717)" fill="#f28f8f"/><path d="M286.87,224.77c6.332.292,9.346,1.215,12.665,5.178s19.9,27.918,19.9,27.918-2.929,8.216-9.346,7.511l-11.656-12.02Z" transform="translate(-229.894 -177.612)" fill="#455a64"/><path d="M261.627,389.89a47.024,47.024,0,0,0-.729,7.633c-.085,4.618-.936,6.271-1.045,10.064-.134,4.339.62,5.968,2.431,8.4s6.381,4.655,8.338.535,1.7-6.818,1.07-11.085-.729-6.831-1.094-10.185c-.34-2.966-.729-5.214-.729-5.214Z" transform="translate(-235.717 -142.044)" fill="#263238"/><path d="M274.823,360.05l-15.253-.28c.231,10.185,1.847,27.128,2.115,36.669,0,1.8,0,13.965.632,17.672,1.021,5.554,7.608,4.8,7.961,1.483s-.425-17.538-.4-19.009c-.061-6.077,2.808-22.1,4.315-33.1C274.264,362.894,274.75,360.511,274.823,360.05Z" transform="translate(-235.774 -148.532)" fill="#ffbda7"/><path d="M290.9,383.38s-.778,0-.912.681-.182,1.969-.5,3.233a18.249,18.249,0,0,0-.535,6.077c.255,1.422,3.5,3.537,5.725,3.914s5.348,2.564,7.086,4.205a17.012,17.012,0,0,0,9.857,3.865c3.646,0,6.284-1.215,7.5-3.209s-1.106-2.224-5.336-4.971l-3.294-2.139c-6.7-4.375-9.152-6.721-11.048-11.1Z" transform="translate(-229.456 -143.446)" fill="#263238"/><path d="M299.679,386.094c-.109-3.16,1.495-26.374,1.495-26.374L288.06,361.2c3.111,18.5,3.355,24.806,3,27.5h0a2.623,2.623,0,0,0-.085.766c0,3.646,4.072,5.542,7.292,7.937,1.215.948,4.461,3.865,8.228,5.141,2.431.839,6.94,1.215,7.511-.328-3.841-2.941-9.091-6.782-12.154-10.149C300.348,390.445,299.789,389.23,299.679,386.094Z" transform="translate(-229.638 -148.543)" fill="#ffbda7"/><path d="M263.224,273.765c-7.147,15.63.267,70.664.267,70.664-.219,2.54-3.124,7.523-4.193,18.693-1.276,13.175,2.346,48.483,2.346,48.483a8.509,8.509,0,0,0,8.508.182s9.225-51.874,10.939-64.976c1.446-11.449,4.217-36.608,4.217-36.608l7.876,36.535a67.971,67.971,0,0,0-2.5,11.3c-.741,7.706,6.77,46.416,6.77,46.416a10.632,10.632,0,0,0,8.508-.17s3.318-50,4.023-59.288c1.215-15.606-2.978-64.283-5.834-73.52Z" transform="translate(-235.892 -167.55)" fill="#ba68c8"/><path d="M263.224,273.765c-7.147,15.63.267,70.664.267,70.664-.219,2.54-3.124,7.523-4.193,18.693-1.276,13.175,2.346,48.483,2.346,48.483a8.509,8.509,0,0,0,8.508.182s9.225-51.874,10.939-64.976c1.446-11.449,4.217-36.608,4.217-36.608l7.876,36.535a67.971,67.971,0,0,0-2.5,11.3c-.741,7.706,6.77,46.416,6.77,46.416a10.632,10.632,0,0,0,8.508-.17s3.318-50,4.023-59.288c1.215-15.606-2.978-64.283-5.834-73.52Z" transform="translate(-235.892 -167.55)" opacity="0.5" style="isolation:isolate"/><path d="M280.63,307.015l2.321-14.512s9.82-2.03,14.281-6.223A25.379,25.379,0,0,1,285.613,294L283,305.18,287.57,339Z" transform="translate(-231.238 -164.362)" opacity="0.2" style="isolation:isolate"/><path d="M265.5,236.688l9.723,2.528V218.639h0c-5.372-1.4-9.723,1.7-9.723,6.928Z" transform="translate(-234.497 -179.005)" fill="#ba68c8"/><path d="M265.5,236.688l9.723,2.528V218.639h0c-5.372-1.4-9.723,1.7-9.723,6.928Z" transform="translate(-234.497 -179.005)" opacity="0.6" style="isolation:isolate"/><path d="M285.3,228.546l-3.488-.073c-10.647-.255-19.082-9.432-18.851-20.516h0c0-12.081,9.359-21.877,20.954-21.987h0c11.595-.061,21.051,9.723,21.112,21.756v1.215C304.734,220.038,295.923,228.777,285.3,228.546Z" transform="translate(-235.045 -185.97)" fill="#ba68c8"/><path d="M285.3,228.546l-3.488-.073c-10.647-.255-19.082-9.432-18.851-20.516h0c0-12.081,9.359-21.877,20.954-21.987h0c11.595-.061,21.051,9.723,21.112,21.756v1.215C304.734,220.038,295.923,228.777,285.3,228.546Z" transform="translate(-235.045 -185.97)" opacity="0.6" style="isolation:isolate"/><path d="M269.132,190.478a2.638,2.638,0,0,0-3.181-1.948c-.063.016-.125.033-.186.052l.936,3.646a2.435,2.435,0,0,0-.7-.608,2.59,2.59,0,0,0-3.528.978c-.043.078-.083.156-.118.237l4.74,2.783a2.882,2.882,0,0,0,.316-1.544A3,3,0,0,0,269.132,190.478Z" transform="translate(-235.176 -185.434)" fill="#ba68c8"/><path d="M269.132,190.478a2.638,2.638,0,0,0-3.181-1.948c-.063.016-.125.033-.186.052l.936,3.646a2.435,2.435,0,0,0-.7-.608,2.59,2.59,0,0,0-3.528.978c-.043.078-.083.156-.118.237l4.74,2.783a2.882,2.882,0,0,0,.316-1.544A3,3,0,0,0,269.132,190.478Z" transform="translate(-235.176 -185.434)" opacity="0.6" style="isolation:isolate"/><path d="M275.251,225.675a89.278,89.278,0,0,0-9.723,1.872c3.768,9.237-2.139,23.506-2.139,23.506l5.579,17.174c-3.853,7.888-7.025,11.8-8.338,18.231,3.549,6.928,28.6,13.54,44.909.912,0,0-.523-17.538-2.6-27.76,5.336-10.416,4.473-13.479,3.379-17.113-2.54-8.447-7.669-11.692-13.783-17.648l-3.646-.389Z" transform="translate(-235.546 -177.679)" fill="#37474f"/><path d="M269.59,273.516c3.026-3.1,9.444-3.987,9.444-3.987l-5.895-3.355-6.587-15.91a36.475,36.475,0,0,0,3.974-17.514l-3.792-.912c.462,8.423-3.355,17.636-3.355,17.636l5.579,17.174c-3.853,7.888-7.025,11.8-8.338,18.231,2.431,4.74,14.937,9.334,27.821,7.706C271.182,291.419,266.685,276.518,269.59,273.516Z" transform="translate(-235.548 -176.089)" fill="#263238"/><path d="M282.35,281.943l.7-.073A4.287,4.287,0,0,0,282.35,281.943Z" transform="translate(-230.868 -165.312)" fill="#e6e6e6"/><path d="M296.221,194.83c2.091,1.92,4.7,6.077,4.5,18.231-.182,10.331-3.379,12.9-5,13.637s-4.716.316-7.742-.194v4.278s3.987,4.424,3.743,7.292-5.688,4.023-9.614,1.215a36.7,36.7,0,0,1-7.292-7.353V218.944s-1.775,1.811-4.862-.912c-2.431-2.261-3.354-6.077-1.422-8.143a4.254,4.254,0,0,1,6.916,1.4,39.476,39.476,0,0,0,13.321-3.841A13.187,13.187,0,0,0,296.221,194.83Z" transform="translate(-234.068 -184.061)" fill="#ffbda7"/><path d="M284.771,208.135a1.215,1.215,0,1,1-1.313-1.215A1.288,1.288,0,0,1,284.771,208.135Z" transform="translate(-230.87 -181.457)" fill="#263238"/><path d="M284.743,215l3.245,1.057a1.666,1.666,0,0,1-2,1.243l-.1-.028A1.872,1.872,0,0,1,284.743,215Z" transform="translate(-230.368 -179.716)" fill="#f79776"/><path d="M294.523,204.466l-2.953-1.009a1.445,1.445,0,0,1,1.74-1.074,1.207,1.207,0,0,1,.143.041A1.726,1.726,0,0,1,294.523,204.466Z" transform="translate(-228.882 -182.443)" fill="#263238"/><path d="M274.05,207.42v4.363a2.054,2.054,0,0,0,2.138-1.967c0-.041,0-.083,0-.124A2.26,2.26,0,0,0,274.05,207.42Z" transform="translate(-232.655 -181.349)" fill="#ba68c8"/><path d="M274.05,207.42v4.363a2.054,2.054,0,0,0,2.138-1.967c0-.041,0-.083,0-.124A2.26,2.26,0,0,0,274.05,207.42Z" transform="translate(-232.655 -181.349)" opacity="0.6" style="isolation:isolate"/><path d="M293.6,207.795a1.325,1.325,0,0,1-1.215,1.422,1.349,1.349,0,1,1,1.212-1.474Z" transform="translate(-229.025 -181.542)" fill="#263238"/><path d="M287.424,206.12l-.024,8.459,3.938-1.3Z" transform="translate(-229.78 -181.629)" fill="#f79776"/><path d="M286.265,221.824c-3.2-.413-9.723-2.346-10.805-5.044a7.044,7.044,0,0,0,2.321,3.44c1.969,1.738,8.508,3.646,8.508,3.646Z" transform="translate(-232.352 -179.333)" fill="#f79776"/><path d="M254.386,261s7.8,11.085,9.14,12.531,2.261.96,3.707.316a40.943,40.943,0,0,1,5.421-1.762c2.431-.6,2.893,1.6.535,3.172-1.7,1.142-3.646,1.629-2.844,2.564a18.061,18.061,0,0,0,5.688,3.488c5.761,2.273,5.311,3.415,4.254,5.275-.924,1.629-3.646,5.129-13.9,1-4.254-1.714-10.234-6.563-13.053-9.723-4.072-4.509-10.428-12.592-10.428-12.592Z" transform="translate(-239.365 -169.808)" fill="#ffbda7"/><path d="M271.469,226.67c-2.82.182-8.131.863-14.791,11.923-5.846,9.723-14.9,22.862-16.578,27.565-.681,1.908,1.969,5.858,5.384,9.906,4.655-.207,8.9-3.427,11.1-6a21.684,21.684,0,0,0-2.139-3.9L268.1,250.577s5.19-4.752,6.272-10.939C275.54,232.929,275.176,227.654,271.469,226.67Z" transform="translate(-239.992 -177.203)" fill="#455a64"/><path d="M336.432,243.93,302.754,252.8l-9.274,38.1,32.026-9.3Z" transform="translate(-228.47 -173.485)" fill="#ba68c8"/><path d="M336.432,243.93,302.754,252.8l-9.274,38.1,32.026-9.3Z" transform="translate(-228.47 -173.485)" opacity="0.25" style="isolation:isolate"/><g transform="translate(92.745 97.427)" opacity="0.1"><path d="M316.3,266.13a6.649,6.649,0,0,0,6.3,3.768l.243-.839Z" transform="translate(-316.3 -266.13)"/></g><g transform="translate(83.472 74.667)" opacity="0.1"><path d="M323.012,249.234l.28-1.288c.158-.7-1.823-.741-4.412,0l-4.971,1.215c-2.589.681-4.862,1.8-4.971,2.5l-.267,1.288Z" transform="translate(-308.67 -247.404)"/></g><path d="M325.708,245.248c.1-.45-.7-.571-1.787-.267l-1.969.547s.583-2.783-3.768-1.811a6.856,6.856,0,0,0-5.323,4.132l-2.09.6c-1.215.328-2.212.948-2.346,1.386l-.255.8,17.356-4.57Z" transform="translate(-225.306 -173.575)" fill="#37474f"/><path d="M322.661,246.155c-1.58.389-2.249.6-2.431,1.689s-.389,2.163-.389,2.163l-7.669,2.03s.377-1.58.5-2.188-.146-1-1.373-.668l-.1-.486,12.033-3.075Z" transform="translate(-224.653 -173.121)" fill="#37474f"/><path d="M323.392,249.324l.28-1.288c.158-.7-1.823-.741-4.412,0l-4.971,1.215c-2.589.681-4.862,1.8-4.971,2.5l-.267,1.288Z" transform="translate(-225.116 -172.717)" fill="#37474f"/><path d="M328.094,254.133s-1.215,4.315-1.544,5.336-4.072,2.881-6.539,3.561-5.19,1.483-4.011,4.947c1.069,3.2,5.153,3.926,7.22,3.829s4.922-2.066,6.077-5.263c1.422-4.084.656-8.435,1.215-10.817S329.333,252.711,328.094,254.133Z" transform="translate(-223.68 -171.449)" fill="#ffbda7"/></g><g transform="translate(127.288 231.448)"><path d="M232.777,255.306c-4.619-4.655-6.271-2.844-6.855,2.261a22.663,22.663,0,0,1-1.544,6.235,11.518,11.518,0,0,0-.863-3.075,2.248,2.248,0,0,0-2.747-1.349c-.45.182.109,1.215,0,3.245-.085,2.528-.912,3.926-.316,6.612A4.339,4.339,0,0,1,220,272.2c-2.431,4.618-10.44,13.151-16.055,19.3l-21.33-19.264c-7.292-6.563-9.65-9.517-16.688-9.043a19.027,19.027,0,0,1,5.98,3.646c3.269,2.759,2.492,18.547,2.492,18.547s24.211,17.356,26.739,19.009c.365.243.741.462,1.106.668a5.98,5.98,0,0,0,7.292-1.4c5.165-5.907,12.7-17.538,17.016-23.579a73.306,73.306,0,0,0,5.263-9.164C236.144,262.331,235.67,258.223,232.777,255.306Z" transform="translate(-115.78 -212.704)" fill="#914f4e"/><path d="M166.55,261.035a12.156,12.156,0,0,1,9.723,2.431c4.157,3.16,21.877,19.447,21.877,19.447s.486,8.617-8.508,13.746l-21.719-15.314Z" transform="translate(-115.647 -210.934)" fill="#ba68c8"/><path d="M166.55,261.035a12.156,12.156,0,0,1,9.723,2.431c4.157,3.16,21.877,19.447,21.877,19.447s.486,8.617-8.508,13.746l-21.719-15.314Z" transform="translate(-115.647 -210.934)" opacity="0.3" style="isolation:isolate"/><rect width="9.201" height="16.408" transform="translate(20.737 244.517)" fill="#914f4e"/><path d="M167.98,423.318l9.2.328.462-17.368-9.662-.328Z" transform="translate(-115.339 -179.676)" fill="#914f4e"/><path d="M140.8,304.092c0,9.152,1.349,82.818,1.349,82.818-.207,2.625-2.577,7.487-2.066,17.6.693,13.746,1.629,49.832,1.629,49.832a11.7,11.7,0,0,0,10.246.207s8.7-50.014,10.355-63.626c1.434-11.887,3.877-51.9,3.877-51.9l4.983,46.526a57.008,57.008,0,0,0-1.142,15.229c.438,6.3,3.391,39.1,3.391,39.1a12.154,12.154,0,0,0,10.635.851s5.226-49.406,5.336-55.179c.122-6.587-3.063-81.578-3.063-81.578Z" transform="translate(-121.364 -201.643)" fill="#37474f"/><path d="M151.292,430.8v-1.361c.887.4,2.929,8.508,6.575,12,2.9,2.759,6.867,5.943,7.876,9.018s-5.518,4.959-8.228,4.461c-3.148-.583-8.617-2.893-9.978-5.032s-2.018-5.311-3.136-6.879-3.646-3.318-4.278-5.141a12.15,12.15,0,0,1,.523-5.032c.425-1.689.887-3.549,1.446-3.391v1.045A7.152,7.152,0,0,0,146.7,432.1C148.034,432.152,151.3,431.872,151.292,430.8Z" transform="translate(-121.354 -174.618)" fill="#263238"/><path d="M177.782,418.191c.474,0,.863.717,1.92,1.908a20.185,20.185,0,0,0,5.409,4.047c3.452,1.8,10.149,4.57,13.187,5.992,1.9.887,1.8,3.269-.158,4.619s-6.685,2.334-12.361,1.021c-3.087-.729-7.122-3.646-9.723-3.537s-7.292.121-9.2-1.215-1.13-4.242-.6-6.709c.583-2.71,1.313-6.928,2.163-6.745v.936c1.106,1.75,6.818,2.431,9.249,1.215Z" transform="translate(-115.843 -177.174)" fill="#263238"/><path d="M161.55,334.187a33.729,33.729,0,0,0,12.81-7.657s-2.431,4.862-9.82,9.31l1.568,41.555Z" transform="translate(-116.724 -196.784)" fill="#263238"/><path d="M145.789,263.429s-7.2.656-6.685,14.378l1.592,21.877-.146,32.816c6.758,7.669,36.766,7.11,47.036-.62,0,0-1.057-38.808-1.75-53.745-.5-10.61-2.941-15.958-13.369-17.125l-12.835.559Z" transform="translate(-121.564 -210.897)" fill="#ba68c8"/><path d="M161.43,268.92l1.653,11.522,3.853-.073-4.351.681Z" transform="translate(-116.75 -209.193)" opacity="0.3" style="isolation:isolate"/><path d="M126.056,310.036c3.731-30.021,12.324-44.97,22.789-46.7l-.741,19.2a169.492,169.492,0,0,0-9.966,31.783c-1.373,7.39-2.966,20.237-2.552,26.544a4.718,4.718,0,0,0,1.337,2.953c2.066,2.1,2.686,3.926,4.072,6.3,1.094,1.86,2.212,2.516,1.92,2.966a2.322,2.322,0,0,1-3.209.413,17.435,17.435,0,0,1-2.99-2.686,19,19,0,0,0,1.507,8.35c2.431,5.056,2.042,7.718-4.74,6.223-4.254-.924-7.292-5.409-8.508-15.873a91.647,91.647,0,0,1-.207-11.741C125.229,327.769,125.314,316.04,126.056,310.036Z" transform="translate(-124.668 -210.395)" fill="#914f4e"/><path d="M149.037,262.93c-5.433,0-10.392.936-14.342,8.508-3.78,7.292-6.685,22.716-8.155,27.76,0,0,7.937,4.691,15.241,4.57l5.141-17.842S150.4,277.6,149.037,262.93Z" transform="translate(-124.265 -210.484)" fill="#ba68c8"/><path d="M149.037,262.93c-5.433,0-10.392.936-14.342,8.508-3.78,7.292-6.685,22.716-8.155,27.76,0,0,7.937,4.691,15.241,4.57l5.141-17.842S150.4,277.6,149.037,262.93Z" transform="translate(-124.265 -210.484)" opacity="0.3" style="isolation:isolate"/><path d="M154.28,240.039a13.71,13.71,0,1,0,13.7-14.269A14,14,0,0,0,154.28,240.039Z" transform="translate(-118.29 -218.488)" fill="#263238"/><path d="M147.11,243.38s2.1,10.282,2.941,11.972a4.5,4.5,0,0,0,2.589,2.176l-.158-7.292Z" transform="translate(-119.834 -214.695)" fill="#263238"/><path d="M150.024,231.262s-1.556-.316-3.111,2.115c-1.373,2.139-1.677,6.952.474,12.6l3.95.474Z" transform="translate(-120.111 -217.308)" fill="#263238"/><path d="M152.955,247.6c-.79.5-1.92-1.094-2.9-2.151s-4.169-2.528-5.761.972,1.4,8.277,3.914,9.091c4.339,1.422,4.983-1.483,4.983-1.483l.34,16.3c5.749,8.9,18.79,8.581,14.1-.438v-5a26.519,26.519,0,0,0,5.846.316c3.184-.51,5.19-3.136,6.162-6.733,1.556-5.773,2.139-10.428.826-21.78-1.446-12.446-15.338-12.579-22.85-7.657S152.955,247.6,152.955,247.6Z" transform="translate(-120.538 -218.436)" fill="#914f4e"/><path d="M152.439,259.988a20.839,20.839,0,0,0,5.627,7.061,16.069,16.069,0,0,0,6.818,2.9,15.136,15.136,0,0,0-4.862,5.4c-1.434,3.172-11.571-5.542-11.473-11.729,0,0,1.592-6.211,3.768-6.612Z" transform="translate(-119.524 -211.759)" fill="#263238"/><path d="M162,269.741s3.124-1.556,1.726-6.746v-5l1.373.182a12.063,12.063,0,0,1,3.282,5.7c.316,1.422,1.094,8.617-.28,10.039S164.8,270.154,162,269.741Z" transform="translate(-116.627 -211.545)" fill="#263238"/><path d="M151.947,250.336c-.4,0-1.92-2.613-2.9-3.549-1.373-1.3.4-13.053.4-13.053a5.76,5.76,0,0,1,1.313-5.943c1.884-2.151,5.02-2.431,10.367-3.257a55.857,55.857,0,0,0,6.344-1.155,37.311,37.311,0,0,0,6.344-3.087,3.183,3.183,0,0,1,2.139-.486,2.077,2.077,0,0,1,1.373,1.556,6.391,6.391,0,0,1,0,2.151,3.488,3.488,0,0,1,4.922.17,5.032,5.032,0,0,1,.778,5.2,9.31,9.31,0,0,1-3.646,4.1c-6.721,4.546-14.658,3.282-22.193,2.431a1.878,1.878,0,0,0-1.07.073c-1.215.535-1.434,4.193-1.641,5.251C153.868,244.259,153.284,250.311,151.947,250.336Z" transform="translate(-119.53 -219.779)" fill="#263238"/><path d="M150.129,232.521l-4.789-2.686a2.588,2.588,0,0,1,3.409-1.333,2.4,2.4,0,0,1,.237.118A3.052,3.052,0,0,1,150.129,232.521Z" transform="translate(-120.216 -217.947)" fill="#263238"/><path d="M165.711,259.137s-7.11-1.495-9.6-2.868a8.339,8.339,0,0,1-3.44-3.549,11.8,11.8,0,0,0,1.957,4.181c1.811,2.431,11.085,4.217,11.085,4.217Z" transform="translate(-118.637 -212.683)" fill="#783736"/><path d="M161.784,242.155a1.483,1.483,0,0,1-1.42,1.544h0a1.507,1.507,0,0,1-1.422-1.556,1.422,1.422,0,1,1,2.844,0v.017Z" transform="translate(-117.286 -215.268)" fill="#263238"/><path d="M159.848,237l-3.051,1.75a1.944,1.944,0,0,1,.7-2.528,1.678,1.678,0,0,1,2.281.649C159.807,236.909,159.828,236.952,159.848,237Z" transform="translate(-117.793 -216.283)" fill="#263238"/><path d="M162.889,250.69l3.257,1.276a1.689,1.689,0,0,1-2.089,1.158c-.041-.012-.083-.026-.123-.04A1.92,1.92,0,0,1,162.889,250.69Z" transform="translate(-116.459 -213.12)" fill="#783736"/><path d="M173.569,238.688l-3.209-1.556a1.641,1.641,0,0,1,2.1-.984,1.512,1.512,0,0,1,.171.073A1.969,1.969,0,0,1,173.569,238.688Z" transform="translate(-114.826 -216.274)" fill="#263238"/><path d="M171.777,242.171a1.434,1.434,0,0,1-2.856.264,1.365,1.365,0,0,1,0-.264,1.471,1.471,0,0,1,1.407-1.531h.015A1.494,1.494,0,0,1,171.777,242.171Z" transform="translate(-115.137 -215.285)" fill="#263238"/><path d="M164.62,240.99l.158,9.006,5.117-1.167Z" transform="translate(-116.063 -215.21)" fill="#783736"/><path d="M160.217,238.969a3.561,3.561,0,0,0,0,7.122h.644a3.561,3.561,0,0,0,0-7.122ZM156,242.53a4.254,4.254,0,0,1,4.205-4.29h.656a4.29,4.29,0,0,1,0,8.508h-.644A4.242,4.242,0,0,1,156,242.53Z" transform="translate(-117.919 -215.802)" fill="#263238"/><path d="M170.745,238.969a3.561,3.561,0,0,0,0,7.122h.644a3.561,3.561,0,0,0,0-7.122Zm-4.205,3.561a4.254,4.254,0,0,1,4.205-4.29h.644a4.29,4.29,0,0,1,0,8.508h-.644a4.242,4.242,0,0,1-4.181-4.217Z" transform="translate(-115.649 -215.802)" fill="#263238"/><path d="M163.528,241.4a2.785,2.785,0,0,1,2.224-1.155,2.249,2.249,0,0,1,1.932.754l.571-.438a2.865,2.865,0,0,0-2.54-1.033,3.43,3.43,0,0,0-2.8,1.495Z" transform="translate(-116.429 -215.527)" fill="#263238"/><rect width="7.244" height="0.717" transform="translate(31.226 25.841)" fill="#263238"/></g></g></g></svg>