<?xml version="1.0" encoding="utf-8"?>
<!-- Generator: Adobe Illustrator 24.2.1, SVG Export Plug-In . SVG Version: 6.00 Build 0)  -->
<svg version="1.1" id="Layer_1" xmlns="http://www.w3.org/2000/svg" xmlns:xlink="http://www.w3.org/1999/xlink" x="0px" y="0px"
	 viewBox="0 0 364.2 85" style="enable-background:new 0 0 364.2 85;" xml:space="preserve">
<style type="text/css">
	.st0{fill:none;}
	.st1{fill:#FFFFFF;}
</style>
<rect y="0" class="st0" width="364.2" height="85"/>
<path class="st1" d="M52.3,54.6l-8.8-9.1c-0.4-0.4-0.8-0.6-1.4-0.6H29.6c-1.1,0.1-2,1-1.9,2.1c0,0.5,0.2,1,0.6,1.3l15,15.7
	c0.7,0.8,0.7,2,0,2.8l-2.2,2.3c-0.7,0.7-1.9,0.8-2.6,0.1c0,0-0.1-0.1-0.1-0.1L15.8,45.5c-0.4-0.4-0.8-0.6-1.4-0.6H1.9
	c-1.1,0-2,1-1.9,2.1c0,0.5,0.2,1,0.6,1.3l30.2,31.5l2.1,2.2c3.6,3.8,9.5,4,13.3,0.4c0.1-0.1,0.3-0.3,0.4-0.4l2.1-2.2l4.9-5.1l9-9.3
	L79,48.3c0.8-0.8,0.8-2.1,0-2.8c-0.4-0.3-0.8-0.5-1.3-0.6H65.1c-0.5,0-1,0.2-1.4,0.6L55,54.6C54.3,55.4,53.1,55.4,52.3,54.6
	C52.3,54.7,52.3,54.7,52.3,54.6"/>
<path class="st1" d="M27.3,30.3l8.8,9.1c0.4,0.4,0.8,0.6,1.4,0.6h12.5c1.1,0,2-1,1.9-2.1c0-0.5-0.2-1-0.6-1.3L36.2,21
	c-0.7-0.8-0.7-2,0-2.8l2.2-2.3c0.7-0.7,1.9-0.8,2.6-0.1c0,0,0.1,0.1,0.1,0.1l22.6,23.6c0.4,0.4,0.8,0.6,1.4,0.6h12.5
	c1.1,0,2-1,1.9-2.1c0-0.5-0.2-1-0.6-1.3L48.7,5.1L46.6,3c-3.6-3.8-9.5-4-13.3-0.4C33.2,2.7,33,2.8,32.9,3l-2.1,2.2l-4.9,5.1l-9,9.3
	L0.6,36.7c-0.8,0.8-0.8,2.1,0,2.8c0.4,0.3,0.8,0.5,1.3,0.6h12.5c0.5,0,1-0.2,1.4-0.6l8.8-9.1C25.3,29.6,26.4,29.6,27.3,30.3
	C27.2,30.3,27.2,30.3,27.3,30.3"/>
<path class="st1" d="M92.2,66.8V32.5h21.9v4.8H97.4v10.2h14V52h-14v14.8H92.2z"/>
<path class="st1" d="M116.9,57.1V41.7h5.1V56c-0.1,1.8,0.3,3.5,1.2,5.1c0.8,1.1,2.1,1.8,3.5,1.7c1,0,1.9-0.2,2.8-0.6
	c0.9-0.4,1.8-1.1,2.5-1.8c0.8-0.9,1.4-1.8,1.8-2.9V41.7h5.1v19.1c0,0.4,0.1,0.9,0.3,1.3c0.3,0.3,0.7,0.5,1.1,0.5v4.3
	c-0.4,0.1-0.9,0.1-1.3,0.2c-0.4,0-0.7,0-0.9,0.1c-0.9,0-1.7-0.3-2.4-0.8c-0.6-0.5-1-1.2-1.1-2l-0.1-2.4c-1,1.7-2.5,3.1-4.2,4.1
	c-1.8,1-3.7,1.5-5.7,1.4c-2.2,0.1-4.4-0.8-5.7-2.6C117.5,63,116.9,60.4,116.9,57.1"/>
<path class="st1" d="M158.8,65.6c-0.4,0.2-0.9,0.4-1.6,0.7c-0.7,0.3-1.5,0.5-2.2,0.7c-0.8,0.2-1.7,0.3-2.5,0.3c-1,0-2-0.2-2.9-0.6
	c-0.9-0.4-1.6-1-2.2-1.9c-0.6-1-0.9-2.1-0.8-3.2V45.8h-3.2v-4.1h3.2v-8.3h5.1v8.3h5.3v4.1h-5.3v14c0,0.7,0.3,1.4,0.8,1.9
	c0.5,0.4,1.1,0.6,1.8,0.6c0.7,0,1.4-0.1,2.1-0.4c0.7-0.3,1.1-0.5,1.4-0.6L158.8,65.6z"/>
<path class="st1" d="M162.1,57.1V41.7h5.1V56c-0.1,1.8,0.3,3.5,1.2,5.1c0.8,1.1,2.1,1.8,3.5,1.7c1,0,1.9-0.2,2.8-0.6
	c0.9-0.4,1.8-1.1,2.5-1.8c0.8-0.9,1.4-1.8,1.8-2.9V41.7h5.1v19.1c0,0.4,0.1,0.9,0.3,1.3c0.3,0.3,0.7,0.5,1.1,0.5v4.3
	c-0.4,0.1-0.9,0.1-1.3,0.2c-0.4,0-0.7,0-0.9,0.1c-0.9,0-1.7-0.3-2.4-0.8c-0.6-0.5-1-1.2-1.1-2l-0.1-2.4c-1,1.7-2.5,3.1-4.2,4.1
	c-1.8,1-3.7,1.5-5.7,1.4c-2.2,0.1-4.4-0.8-5.7-2.6C162.7,63,162.1,60.4,162.1,57.1"/>
<path class="st1" d="M204.1,46.1c-1.8,0-3.6,0.5-5.2,1.4c-1.5,0.9-2.6,2.2-3.3,3.8v15.5h-5.1V41.7h4.7v5.4c0.8-1.6,1.9-3,3.3-4.1
	c1.2-1,2.7-1.6,4.3-1.7h0.8c0.2,0,0.3,0,0.5,0L204.1,46.1z"/>
<path class="st1" d="M218.5,67.3c-3.4,0.1-6.8-1.3-9.1-3.9c-1.1-1.2-2-2.6-2.6-4.1c-0.6-1.6-0.9-3.2-0.9-4.9c0-2.3,0.5-4.5,1.6-6.5
	c2.1-4.1,6.4-6.6,11-6.5c2.3-0.1,4.6,0.6,6.6,1.8c1.8,1.2,3.3,2.8,4.3,4.7c1,1.9,1.5,4.1,1.5,6.3c0,0.4,0,0.7,0,1.1
	c0,0.3-0.1,0.6-0.1,0.8h-19.5c0.1,1.4,0.5,2.7,1.3,3.9c0.6,1.1,1.6,2,2.6,2.6c1,0.6,2.2,0.9,3.4,0.9c1.4,0,2.7-0.4,3.9-1.1
	c1.1-0.6,2-1.6,2.5-2.8l4.4,1.3c-0.6,1.3-1.4,2.4-2.4,3.3c-1.1,1-2.4,1.8-3.8,2.3C221.7,67,220.1,67.3,218.5,67.3 M211.2,52.5h14.6
	c-0.1-1.3-0.5-2.6-1.2-3.8c-0.6-1.1-1.5-1.9-2.6-2.5c-2.2-1.2-4.9-1.2-7.1,0c-1.1,0.6-2,1.5-2.6,2.5
	C211.6,49.9,211.2,51.2,211.2,52.5"/>
<path class="st1" d="M247.2,66.8V32.5H269v4.8h-16.6v10.2h14V52h-14v14.8H247.2z"/>
<path class="st1" d="M282.8,67.3c-1.8,0-3.5-0.3-5.1-1c-1.5-0.7-2.8-1.6-3.9-2.8c-1.1-1.2-2-2.6-2.5-4.1c-0.6-1.6-0.9-3.2-0.9-4.9
	c0-1.7,0.3-3.4,0.9-5c0.6-1.5,1.4-2.9,2.5-4.1c1.1-1.2,2.4-2.2,3.9-2.8c1.6-0.7,3.4-1.1,5.1-1c3.4-0.1,6.7,1.3,9,3.9
	c1.1,1.2,2,2.6,2.5,4.1c0.6,1.6,0.9,3.3,0.9,5c0,1.7-0.3,3.3-0.9,4.9c-0.6,1.5-1.4,2.9-2.5,4.1c-1.1,1.2-2.4,2.2-3.9,2.8
	C286.3,67,284.6,67.3,282.8,67.3 M275.6,54.3c0,1.5,0.3,3,1,4.3c0.6,1.2,1.5,2.2,2.6,3c1.1,0.7,2.3,1.1,3.6,1.1
	c1.3,0,2.6-0.4,3.7-1.1c1.1-0.8,2-1.8,2.6-3c1.3-2.7,1.3-5.9,0-8.6c-0.6-1.2-1.5-2.3-2.6-3c-1.1-0.7-2.3-1.1-3.6-1.1
	c-1.3,0-2.6,0.4-3.7,1.1c-1.1,0.8-2,1.8-2.6,3C275.9,51.4,275.6,52.8,275.6,54.3"/>
<path class="st1" d="M313.4,46.1c-1.8,0-3.6,0.5-5.2,1.4c-1.5,0.9-2.6,2.2-3.3,3.8v15.5h-5.1V41.7h4.7v5.4c0.8-1.6,1.9-3,3.3-4.1
	c1.2-1,2.7-1.6,4.3-1.7h0.8c0.2,0,0.3,0,0.5,0L313.4,46.1z"/>
<path class="st1" d="M327.7,67.3c-1.8,0-3.5-0.3-5.1-1c-1.5-0.7-2.8-1.6-3.9-2.8c-1.1-1.2-2-2.6-2.6-4.1c-0.6-1.6-0.9-3.2-0.9-4.9
	c0-2.3,0.5-4.5,1.6-6.5c2.1-4.1,6.4-6.6,11-6.5c2.3-0.1,4.6,0.6,6.6,1.8c1.8,1.2,3.3,2.8,4.3,4.7c1,1.9,1.5,4.1,1.5,6.3
	c0,0.4,0,0.7,0,1.1s-0.1,0.6-0.1,0.8h-19.5c0.1,1.4,0.5,2.7,1.3,3.9c0.6,1.1,1.6,2,2.6,2.6c1,0.6,2.2,0.9,3.4,0.9
	c1.4,0,2.7-0.4,3.9-1.1c1.1-0.6,2-1.6,2.5-2.8l4.4,1.3c-0.6,1.3-1.4,2.4-2.4,3.3c-1.1,1-2.4,1.8-3.8,2.3
	C330.9,67,329.3,67.3,327.7,67.3 M320.5,52.5h14.6c-0.1-1.3-0.5-2.6-1.2-3.8c-0.6-1.1-1.5-1.9-2.6-2.5c-2.2-1.2-4.9-1.2-7.1,0
	c-1.1,0.6-2,1.5-2.6,2.5C320.9,49.9,320.5,51.2,320.5,52.5"/>
<path class="st1" d="M346.2,41.7l5.8,8.6l0.4,0.8l0.4-0.8l5.7-8.6h5.5l-8.7,12.5l8.8,12.6h-5.5l-5.8-8.5l-0.4-0.8l-0.4,0.8l-5.8,8.5
	h-5.5l8.8-12.5l-8.7-12.6H346.2z"/>
</svg>
