<svg xmlns="http://www.w3.org/2000/svg" xmlns:xlink="http://www.w3.org/1999/xlink" width="114" height="114" viewBox="0 0 114 114"><defs><filter id="a" x="0" y="0" width="114" height="114" filterUnits="userSpaceOnUse"><feOffset dy="4" input="SourceAlpha"/><feGaussianBlur stdDeviation="7" result="b"/><feFlood flood-opacity="0.2"/><feComposite operator="in" in2="b"/><feComposite in="SourceGraphic"/></filter></defs><g transform="translate(-1748 -883)"><g transform="matrix(1, 0, 0, 1, 1748, 883)" filter="url(#a)"><circle cx="36" cy="36" r="36" transform="translate(21 17)" fill="#8704bf"/></g><path d="M35.3,6H6.589A3.584,3.584,0,0,0,3.018,9.589L3,31.124a3.6,3.6,0,0,0,3.589,3.589H35.3a3.6,3.6,0,0,0,3.589-3.589V9.589A3.6,3.6,0,0,0,35.3,6Zm0,7.178L20.946,22.151,6.589,13.178V9.589l14.357,8.973L35.3,9.589Z" transform="translate(1784.054 915.644)" fill="#fff"/></g></svg>