<svg xmlns="http://www.w3.org/2000/svg" xmlns:xlink="http://www.w3.org/1999/xlink" width="694.99" height="650.123" viewBox="0 0 694.99 650.123"><defs><clipPath id="a"><path d="M382.73,0C-112.8.139,214.408,190.049,56.812,344.932-102.3,501.3,97.71,663.227,409.473,648.75S544.017,532.375,648.6,348.425,690.606,2.072,397.192.05C392.622.018,388.229,0,383.79,0Z" transform="translate(-0.885)" fill="none"/></clipPath></defs><g transform="translate(-613 -3080.684)"><path d="M258.9,716.061c2.024-293.293,164.359-355.836,348.232-251.3s285.729-72.61,300.2,239.024S759.946,1215.347,603.64,1056.3,255.337,1232.232,258.9,716.061Z" transform="translate(1725.49 2822.574) rotate(90)" fill="#84d904" opacity="0.07"/><g transform="translate(612.115 3080.684)"><g transform="translate(0.885)" clip-path="url(#a)"><path d="M634.4,141.5a79.991,79.991,0,0,0-62.47,29.953c-.238.006-.476.009-.714.017a75.333,75.333,0,0,0-110.29-4.6c-2.383-.2-4.783-.324-7.216-.324a86.287,86.287,0,0,0-33.725,6.818A73.074,73.074,0,0,0,354.2,179.85a64.836,64.836,0,0,0-20.953-3.475,65.852,65.852,0,0,0-8.388.556,86.179,86.179,0,0,0-116.14,11.475,68.589,68.589,0,0,0-72.3-27.269A69,69,0,0,0,28.787,187.289c-1.612.083-3.2.241-4.78.441A69.674,69.674,0,0,0,0,170.088v153.37H720.056V154.251C665.262,146.188,650.383,141.5,634.4,141.5" transform="translate(-1.333 71.616)" fill="#00aeeb"/><path d="M677.761,246.92a86.672,86.672,0,0,0-100.51-1.1,73.863,73.863,0,0,0-15.369-2.146,88.6,88.6,0,0,0-118.236-22.536,84.671,84.671,0,0,0-71.713,14.982,72.72,72.72,0,0,0-19.532-1.679c-.08.006-.157.012-.236.015a92.114,92.114,0,0,0-128.571.5A100.543,100.543,0,0,0,96.551,223.868a93.255,93.255,0,0,0-83.734,35.183A77.483,77.483,0,0,0,0,261.287V377.136H677.761Z" transform="translate(-1.333 104.421)" fill="#5fc6ed"/><path d="M99.434,267.282l119.521-24.053L436.214,216.46c14.837-1.828,54.76,4.482,56.587,19.319s-45.967,31.959-60.8,33.786L225.335,295.026,101.5,283.991Z" transform="translate(48.994 109.403)" fill="#d1d1d1"/><path d="M457.872,239.389c-9.284,5.912-22.184,11.182-32.914,14.582a138,138,0,0,1-18.161,4.148l-204.08,25.146-58.6-5.22Z" transform="translate(71.612 121.163)" fill="#bfbfbf"/><path d="M179.363,258.323,124.35,269.392,91.509,205.274l13.045-1.606Z" transform="translate(44.983 103.084)" fill="#d1d1d1"/><path d="M99.719,210.361l39.9,52.258L122.79,266l-28.2-55.013Z" transform="translate(46.543 106.471)" fill="#bfbfbf"/><path d="M218.955,243.229,436.214,216.46c14.837-1.828,54.759,4.482,56.586,19.319l-391.3,48.21-2.062-16.708Z" transform="translate(48.994 109.403)" fill="#e0e0e0"/><path d="M99.434,258.183,218.955,234.13l6.38,51.8L101.5,274.892Z" transform="translate(48.994 118.501)" fill="#bfbfbf"/><path d="M218.955,234.13l3.187,25.9L101.5,274.891l-2.062-16.708Z" transform="translate(48.994 118.502)" fill="#d1d1d1"/><path d="M125.622,262.229,93.875,251l14.1-1.735,57.188,3.5.557,4.524Z" transform="translate(46.181 126.161)" fill="#e0e0e0"/><path d="M103.235,249.264l57.188,3.5.557,4.524Z" transform="translate(50.918 126.161)" fill="#fff"/><path d="M136.169,260.545l-10.547,1.3-31.746-11.23,4.842-.593Z" transform="translate(46.181 126.545)" fill="#bfbfbf"/><path d="M175.8,258.323,164.478,260.6,98.547,203.972l2.444-.3Z" transform="translate(48.545 103.084)" fill="#e0e0e0"/><path d="M334.28,268.969l4.442-.548-.842-6.868,1.459-14.215-2.964,1.4L333.436,262.1Z" transform="translate(167.431 125.187)" fill="#2b2b2b"/><path d="M332.5,263.618a4.523,4.523,0,1,1,5.044,3.939,4.528,4.528,0,0,1-5.044-3.939" transform="translate(166.942 130.857)" fill="#404040"/><path d="M336.22,259.252a3.493,3.493,0,0,0-3.038,3.89l6.933-.851a3.5,3.5,0,0,0-3.895-3.039" transform="translate(167.289 131.203)" fill="#2b2b2b"/><path d="M333.959,262.6a2.31,2.31,0,1,1,2.574,2.017,2.309,2.309,0,0,1-2.574-2.017" transform="translate(167.687 131.6)" fill="#bfbfbf"/><path d="M336.527,263.937a2.311,2.311,0,0,1-2.574-2.017l4.585-.565a2.314,2.314,0,0,1-2.011,2.582" transform="translate(167.693 132.281)" fill="#969696"/><path d="M334.669,262.107a1.228,1.228,0,1,1,1.368,1.074,1.227,1.227,0,0,1-1.368-1.074" transform="translate(168.051 131.965)" fill="#bfbfbf"/><path d="M337.412,265.193a3.49,3.49,0,0,0,3.039-3.89l1.02-.128a4.523,4.523,0,1,1-8.978,1.109l1.026-.128a3.491,3.491,0,0,0,3.893,3.038" transform="translate(166.954 132.19)" fill="#2b2b2b"/><path d="M335.525,261.954l-.149-1.215a1.226,1.226,0,0,1,1.369,1.066Z" transform="translate(168.413 131.964)" fill="#e0e0e0"/><path d="M331,249.716l7.662,10.7-.868.627L329.9,250.031Z" transform="translate(165.644 126.39)" fill="#2b2b2b"/><path d="M331.759,236.449l6.165-.762a.739.739,0,0,0,.645-.824l-1.255-10.18a.74.74,0,0,0-.825-.642l-6.162.759a.739.739,0,0,0-.646.827l1.255,10.175a.738.738,0,0,0,.824.646" transform="translate(165.527 113.393)" fill="#969696"/><path d="M288.472,241.78l6.166-.759a.741.741,0,0,0,.645-.822l-1.255-10.181a.738.738,0,0,0-.822-.64l-6.166.758a.74.74,0,0,0-.646.822l1.255,10.181a.737.737,0,0,0,.824.642" transform="translate(143.619 116.093)" fill="#969696"/><path d="M156.386,258.056l6.166-.758a.74.74,0,0,0,.642-.824l-1.252-10.18a.741.741,0,0,0-.822-.646l-6.166.764a.732.732,0,0,0-.645.822l1.255,10.18a.739.739,0,0,0,.822.642" transform="translate(76.765 124.329)" fill="#969696"/><path d="M283.812,238.967l1.946-.238a.743.743,0,0,0,.642-.824l-.417-3.377a.741.741,0,0,0-.821-.646l-1.946.242a.739.739,0,0,0-.642.824l.416,3.377a.74.74,0,0,0,.822.642" transform="translate(141.685 118.374)" fill="#969696"/><path d="M280.859,239.331l1.941-.238a.739.739,0,0,0,.642-.824l-.417-3.381a.738.738,0,0,0-.821-.64l-1.941.236a.743.743,0,0,0-.642.828l.416,3.377a.736.736,0,0,0,.822.642" transform="translate(140.19 118.558)" fill="#969696"/><path d="M277.9,239.7l1.941-.238a.745.745,0,0,0,.646-.828l-.417-3.377a.743.743,0,0,0-.825-.64l-1.941.236a.744.744,0,0,0-.642.824l.419,3.377a.736.736,0,0,0,.819.646" transform="translate(138.695 118.743)" fill="#969696"/><path d="M274.949,240.059l1.941-.242a.741.741,0,0,0,.646-.824l-.42-3.377a.738.738,0,0,0-.822-.64l-1.938.238a.74.74,0,0,0-.645.822l.416,3.377a.74.74,0,0,0,.822.646" transform="translate(137.199 118.927)" fill="#969696"/><path d="M272,240.42l1.937-.238a.74.74,0,0,0,.646-.824l-.417-3.377a.738.738,0,0,0-.825-.642l-1.937.238a.736.736,0,0,0-.642.824l.416,3.377a.732.732,0,0,0,.822.642" transform="translate(135.705 119.111)" fill="#969696"/><path d="M269.046,240.784l1.937-.238a.74.74,0,0,0,.646-.824l-.417-3.377a.739.739,0,0,0-.825-.642l-1.937.238a.739.739,0,0,0-.646.824l.419,3.377a.734.734,0,0,0,.824.642" transform="translate(134.21 119.295)" fill="#969696"/><path d="M266.087,241.15l1.946-.238a.74.74,0,0,0,.642-.824l-.417-3.377a.739.739,0,0,0-.821-.645l-1.943.241a.74.74,0,0,0-.645.824l.416,3.377a.737.737,0,0,0,.822.642" transform="translate(132.714 119.479)" fill="#969696"/><path d="M263.135,241.514l1.937-.238a.743.743,0,0,0,.646-.824l-.417-3.377a.743.743,0,0,0-.825-.645l-1.937.241a.737.737,0,0,0-.642.824l.416,3.377a.738.738,0,0,0,.822.642" transform="translate(131.22 119.663)" fill="#969696"/><path d="M260.18,241.878l1.941-.238a.741.741,0,0,0,.646-.822l-.417-3.381a.745.745,0,0,0-.825-.642l-1.941.238a.745.745,0,0,0-.642.827l.416,3.377a.739.739,0,0,0,.822.642" transform="translate(129.724 119.848)" fill="#969696"/><path d="M257.225,242.243l1.941-.238a.739.739,0,0,0,.642-.824l-.417-3.381a.738.738,0,0,0-.821-.642l-1.938.238a.743.743,0,0,0-.645.824l.416,3.381a.74.74,0,0,0,.822.642" transform="translate(128.228 120.032)" fill="#969696"/><path d="M254.273,242.607l1.937-.242a.737.737,0,0,0,.646-.822l-.417-3.378a.739.739,0,0,0-.825-.64l-1.937.236a.739.739,0,0,0-.642.824l.414,3.377a.74.74,0,0,0,.824.646" transform="translate(126.734 120.217)" fill="#969696"/><path d="M251.318,242.968l1.94-.238a.738.738,0,0,0,.643-.824l-.419-3.377a.733.733,0,0,0-.821-.642l-1.941.238a.741.741,0,0,0-.642.824l.417,3.377a.735.735,0,0,0,.822.642" transform="translate(125.238 120.401)" fill="#969696"/><path d="M248.362,243.332l1.941-.238a.74.74,0,0,0,.642-.824l-.417-3.377a.734.734,0,0,0-.821-.642l-1.938.238a.74.74,0,0,0-.645.824l.416,3.377a.737.737,0,0,0,.822.642" transform="translate(123.743 120.585)" fill="#969696"/><path d="M245.41,243.7l1.941-.238a.739.739,0,0,0,.642-.822l-.417-3.378a.732.732,0,0,0-.821-.64l-1.941.236a.737.737,0,0,0-.642.824l.414,3.377a.737.737,0,0,0,.824.642" transform="translate(122.248 120.769)" fill="#969696"/><path d="M242.455,244.062l1.941-.238a.746.746,0,0,0,.646-.824l-.417-3.377a.746.746,0,0,0-.825-.645l-1.941.241a.74.74,0,0,0-.642.824l.416,3.377a.738.738,0,0,0,.822.642" transform="translate(120.753 120.953)" fill="#969696"/><path d="M239.5,244.426l1.941-.236a.741.741,0,0,0,.642-.824l-.417-3.377a.74.74,0,0,0-.821-.648l-1.938.239a.743.743,0,0,0-.645.824l.416,3.38a.738.738,0,0,0,.822.642" transform="translate(119.257 121.137)" fill="#969696"/><path d="M236.548,244.791l1.937-.238a.743.743,0,0,0,.646-.824l-.417-3.381a.745.745,0,0,0-.825-.642l-1.937.238a.741.741,0,0,0-.642.824l.414,3.381a.74.74,0,0,0,.824.642" transform="translate(117.763 121.322)" fill="#969696"/><path d="M233.593,245.155l1.941-.243a.738.738,0,0,0,.642-.824l-.417-3.377a.741.741,0,0,0-.821-.64l-1.941.236a.743.743,0,0,0-.642.824l.416,3.377a.74.74,0,0,0,.822.646" transform="translate(116.268 121.506)" fill="#969696"/><path d="M230.638,245.516l1.941-.238a.738.738,0,0,0,.642-.824l-.417-3.377a.737.737,0,0,0-.821-.642l-1.938.238a.739.739,0,0,0-.645.824l.416,3.377a.737.737,0,0,0,.822.642" transform="translate(114.772 121.69)" fill="#969696"/><path d="M227.686,245.88l1.937-.238a.737.737,0,0,0,.642-.824l-.416-3.377a.734.734,0,0,0-.822-.642l-1.937.238a.736.736,0,0,0-.642.824l.414,3.377a.737.737,0,0,0,.824.642" transform="translate(113.277 121.874)" fill="#969696"/><path d="M224.731,246.244l1.941-.238a.74.74,0,0,0,.642-.824l-.417-3.377a.736.736,0,0,0-.821-.642l-1.941.238a.739.739,0,0,0-.642.824l.414,3.377a.739.739,0,0,0,.824.642" transform="translate(111.782 122.059)" fill="#969696"/><path d="M221.779,246.61l1.937-.238a.74.74,0,0,0,.642-.824l-.416-3.377a.741.741,0,0,0-.822-.645l-1.937.241a.74.74,0,0,0-.646.824l.416,3.377a.74.74,0,0,0,.827.642" transform="translate(110.286 122.243)" fill="#969696"/><path d="M218.823,246.974l1.937-.238a.746.746,0,0,0,.646-.824l-.417-3.381a.741.741,0,0,0-.825-.64l-1.937.238a.74.74,0,0,0-.642.822l.414,3.381a.74.74,0,0,0,.824.642" transform="translate(108.792 122.427)" fill="#969696"/><path d="M215.868,247.338l1.941-.238a.742.742,0,0,0,.642-.824l-.417-3.38a.742.742,0,0,0-.821-.642l-1.941.238a.743.743,0,0,0-.642.822l.414,3.381a.743.743,0,0,0,.824.642" transform="translate(107.296 122.611)" fill="#969696"/><path d="M212.917,247.7l1.937-.242a.738.738,0,0,0,.642-.824l-.416-3.377a.744.744,0,0,0-.822-.642l-1.937.238a.743.743,0,0,0-.646.824l.419,3.377a.738.738,0,0,0,.824.646" transform="translate(105.801 122.795)" fill="#969696"/><path d="M209.961,248.063l1.937-.238a.734.734,0,0,0,.642-.824l-.414-3.377a.74.74,0,0,0-.824-.642l-1.937.238a.737.737,0,0,0-.642.824l.414,3.377a.737.737,0,0,0,.824.642" transform="translate(104.306 122.98)" fill="#969696"/><path d="M207.006,248.428l1.941-.238a.74.74,0,0,0,.642-.824l-.417-3.377a.736.736,0,0,0-.821-.642l-1.941.238a.739.739,0,0,0-.642.824l.416,3.377a.737.737,0,0,0,.822.642" transform="translate(102.811 123.164)" fill="#969696"/><path d="M204.055,248.792l1.937-.238a.737.737,0,0,0,.642-.824l-.416-3.377a.737.737,0,0,0-.822-.642l-1.937.238a.739.739,0,0,0-.646.824l.416,3.377a.736.736,0,0,0,.827.642" transform="translate(101.315 123.348)" fill="#969696"/><path d="M201.1,249.157l1.937-.238a.737.737,0,0,0,.642-.824l-.416-3.377a.738.738,0,0,0-.822-.645l-1.937.241a.737.737,0,0,0-.642.824l.414,3.377a.74.74,0,0,0,.824.642" transform="translate(99.821 123.532)" fill="#969696"/><path d="M198.144,249.522l1.941-.238a.743.743,0,0,0,.642-.824l-.417-3.377a.741.741,0,0,0-.821-.645l-1.941.241a.738.738,0,0,0-.642.819l.414,3.381a.743.743,0,0,0,.824.642" transform="translate(98.325 123.716)" fill="#969696"/><path d="M195.192,249.886l1.937-.238a.74.74,0,0,0,.642-.824l-.416-3.381a.741.741,0,0,0-.822-.64l-1.937.238a.743.743,0,0,0-.646.822l.419,3.381a.737.737,0,0,0,.824.642" transform="translate(96.829 123.901)" fill="#969696"/><path d="M192.236,250.251l1.937-.242a.738.738,0,0,0,.646-.824l-.42-3.377a.741.741,0,0,0-.822-.642l-1.937.238a.739.739,0,0,0-.642.824l.414,3.377a.74.74,0,0,0,.824.646" transform="translate(95.335 124.085)" fill="#969696"/><path d="M189.281,250.611l1.941-.238a.737.737,0,0,0,.642-.824l-.417-3.377a.74.74,0,0,0-.821-.642l-1.941.238a.74.74,0,0,0-.642.824l.414,3.377a.739.739,0,0,0,.824.642" transform="translate(93.84 124.269)" fill="#969696"/><path d="M186.33,250.976l1.937-.238a.737.737,0,0,0,.642-.824l-.416-3.377a.737.737,0,0,0-.822-.642l-1.937.238a.739.739,0,0,0-.646.824l.419,3.377a.734.734,0,0,0,.824.642" transform="translate(92.344 124.454)" fill="#969696"/><path d="M183.375,251.34l1.937-.238a.74.74,0,0,0,.646-.824l-.42-3.377a.735.735,0,0,0-.822-.642l-1.937.238a.743.743,0,0,0-.646.824l.416,3.377a.741.741,0,0,0,.827.642" transform="translate(90.848 124.638)" fill="#969696"/><path d="M180.419,251.705l1.941-.238a.74.74,0,0,0,.642-.824l-.417-3.377a.742.742,0,0,0-.821-.645l-1.941.241a.739.739,0,0,0-.642.824l.414,3.377a.743.743,0,0,0,.824.642" transform="translate(89.354 124.821)" fill="#969696"/><path d="M177.464,252.07l1.941-.238a.739.739,0,0,0,.642-.824l-.417-3.377a.739.739,0,0,0-.821-.645l-1.941.241a.74.74,0,0,0-.642.824l.414,3.377a.74.74,0,0,0,.824.642" transform="translate(87.859 125.006)" fill="#969696"/><path d="M174.509,252.434l1.941-.238a.743.743,0,0,0,.646-.824l-.422-3.381a.737.737,0,0,0-.821-.64l-1.938.238a.743.743,0,0,0-.645.822l.414,3.381a.743.743,0,0,0,.824.642" transform="translate(86.363 125.19)" fill="#969696"/><path d="M171.557,252.8l1.941-.242a.738.738,0,0,0,.642-.824l-.417-3.377a.744.744,0,0,0-.822-.642l-1.94.238a.743.743,0,0,0-.642.824l.414,3.377a.743.743,0,0,0,.824.646" transform="translate(84.869 125.375)" fill="#969696"/><path d="M168.6,253.164l1.941-.242a.735.735,0,0,0,.642-.824l-.417-3.377a.738.738,0,0,0-.821-.642l-1.941.238a.74.74,0,0,0-.642.824l.419,3.377a.739.739,0,0,0,.819.646" transform="translate(83.373 125.559)" fill="#969696"/><path d="M165.652,253.523l1.937-.238a.743.743,0,0,0,.646-.824l-.422-3.377a.733.733,0,0,0-.821-.642l-1.938.238a.74.74,0,0,0-.646.824l.416,3.377a.739.739,0,0,0,.828.642" transform="translate(81.877 125.743)" fill="#969696"/><path d="M162.694,253.888l1.941-.238a.74.74,0,0,0,.642-.824l-.417-3.377a.738.738,0,0,0-.822-.642l-1.94.238a.739.739,0,0,0-.642.824l.414,3.377a.739.739,0,0,0,.824.642" transform="translate(80.383 125.928)" fill="#969696"/><path d="M199.568,240.594,322.2,245.912a3.62,3.62,0,0,1,.889,7.186L239.4,263.412l-58.661-20.5Z" transform="translate(90.146 121.773)" fill="#d1d1d1"/><path d="M193.241,240.594l122.636,5.318a3.62,3.62,0,0,1,.889,7.186Z" transform="translate(96.473 121.773)" fill="#fff"/><path d="M189.795,241.4l66.942,19.473L239.4,263.007l-58.663-20.5Z" transform="translate(90.146 122.179)" fill="#969696"/><rect width="28.512" height="5.115" transform="matrix(0.993, -0.122, 0.122, 0.993, 481.943, 373.693)" fill="#d1d1d1"/><path d="M349.76,222.357l5.592-.69a28.776,28.776,0,0,1,7,4.677l-11.924,1.47Z" transform="translate(175.693 112.194)" fill="#2b2b2b"/><rect width="6.597" height="5.501" transform="translate(516.723 335.621) rotate(-6.982)" fill="#2b2b2b"/><path d="M232.615,283.228l12.691-9.086-2.479-20.126,6.223-.767,2.478,20.127,14.516,5.738-2.214.27-12.155-4.8.764,6.2-6.219.767-.767-6.2-10.623,7.606Z" transform="translate(116.402 128.178)" fill="#2b2b2b"/><rect width="31.652" height="3.317" transform="translate(349.821 409.639) rotate(-7.022)" fill="#2b2b2b"/><path d="M250.129,273.3a6.111,6.111,0,1,1,6.811,5.318,6.112,6.112,0,0,1-6.811-5.318" transform="translate(125.243 134.858)" fill="#404040"/><path d="M255.149,267.408a4.713,4.713,0,0,0-4.1,5.253l9.362-1.154a4.717,4.717,0,0,0-5.258-4.1" transform="translate(125.712 135.327)" fill="#2b2b2b"/><path d="M252.092,271.935a3.122,3.122,0,1,1,3.482,2.72,3.121,3.121,0,0,1-3.482-2.72" transform="translate(126.248 135.861)" fill="#bfbfbf"/><path d="M255.566,273.732a3.127,3.127,0,0,1-3.482-2.72l6.2-.764a3.131,3.131,0,0,1-2.717,3.484" transform="translate(126.256 136.782)" fill="#969696"/><path d="M253.052,271.264a1.66,1.66,0,1,1,1.85,1.444,1.663,1.663,0,0,1-1.85-1.444" transform="translate(126.74 136.352)" fill="#bfbfbf"/><path d="M256.757,275.436a4.718,4.718,0,0,0,4.1-5.261l1.384-.17a6.11,6.11,0,1,1-12.129,1.5l1.383-.173a4.718,4.718,0,0,0,5.259,4.107" transform="translate(125.259 136.659)" fill="#2b2b2b"/><path d="M254.21,271.058l-.2-1.646a1.665,1.665,0,0,1,1.848,1.444Z" transform="translate(127.23 136.353)" fill="#e0e0e0"/><path d="M229.273,275.872a6.111,6.111,0,1,1,6.811,5.318,6.113,6.113,0,0,1-6.811-5.318" transform="translate(114.687 136.158)" fill="#404040"/><path d="M234.292,269.977a4.718,4.718,0,0,0-4.1,5.258l9.362-1.154a4.711,4.711,0,0,0-5.258-4.1" transform="translate(115.155 136.627)" fill="#2b2b2b"/><path d="M231.236,274.5a3.122,3.122,0,1,1,3.479,2.72,3.125,3.125,0,0,1-3.479-2.72" transform="translate(115.692 137.161)" fill="#bfbfbf"/><path d="M234.706,276.3a3.125,3.125,0,0,1-3.479-2.72l6.2-.762a3.125,3.125,0,0,1-2.72,3.482" transform="translate(115.699 138.083)" fill="#969696"/><path d="M232.2,273.834a1.661,1.661,0,1,1,1.85,1.444,1.665,1.665,0,0,1-1.85-1.444" transform="translate(116.183 137.653)" fill="#bfbfbf"/><path d="M235.9,278.005a4.717,4.717,0,0,0,4.1-5.258l1.384-.173a6.111,6.111,0,1,1-12.13,1.5l1.384-.17a4.718,4.718,0,0,0,5.258,4.1" transform="translate(114.703 137.959)" fill="#2b2b2b"/><path d="M233.353,273.631l-.2-1.651A1.67,1.67,0,0,1,235,273.426Z" transform="translate(116.673 137.653)" fill="#e0e0e0"/><path d="M239.7,274.586a6.112,6.112,0,1,1,6.814,5.323,6.112,6.112,0,0,1-6.814-5.323" transform="translate(119.965 135.507)" fill="#404040"/><path d="M244.719,268.694a4.716,4.716,0,0,0-4.1,5.253l9.367-1.154a4.718,4.718,0,0,0-5.262-4.1" transform="translate(120.433 135.977)" fill="#2b2b2b"/><path d="M241.662,273.219a3.122,3.122,0,1,1,3.482,2.716,3.126,3.126,0,0,1-3.482-2.716" transform="translate(120.969 136.512)" fill="#bfbfbf"/><path d="M245.136,275.014a3.124,3.124,0,0,1-3.482-2.716l6.2-.767a3.12,3.12,0,0,1-2.717,3.482" transform="translate(120.977 137.432)" fill="#969696"/><path d="M242.623,272.546a1.66,1.66,0,1,1,1.851,1.444,1.661,1.661,0,0,1-1.851-1.444" transform="translate(121.461 137.004)" fill="#bfbfbf"/><path d="M246.327,276.718a4.719,4.719,0,0,0,4.109-5.258l1.383-.169a6.112,6.112,0,1,1-12.132,1.493l1.383-.17a4.714,4.714,0,0,0,5.258,4.1" transform="translate(119.981 137.31)" fill="#2b2b2b"/><path d="M243.784,272.344l-.206-1.646a1.664,1.664,0,0,1,1.853,1.444Z" transform="translate(121.951 137.004)" fill="#e0e0e0"/><rect width="8.602" height="8.598" transform="translate(357.544 378.068) rotate(-7.03)" fill="#969696"/><rect width="17.814" height="26.631" transform="matrix(0.993, -0.122, 0.122, 0.993, 395.681, 377.047)" fill="#d1d1d1"/><path d="M277.337,248.735l-2,.25,3.256,26.43s.9-.108,2-.247a2.158,2.158,0,0,0,1.728-2.5l-2.7-21.914a2.167,2.167,0,0,0-2.285-2.014" transform="translate(138.024 125.887)" fill="#e0e0e0"/><path d="M254.441,255.776l13.787-5.434,3.256,26.433-14.694-1.925Z" transform="translate(127.449 126.707)" fill="#bfbfbf"/><path d="M280.42,257.341l1.351,10.959a2.157,2.157,0,0,1-1.726,2.506l-2,.247-1.625-13.218Z" transform="translate(138.572 130.249)" fill="#d1d1d1"/><rect width="17.815" height="13.317" transform="translate(397.309 390.26) rotate(-7.009)" fill="#bfbfbf"/><path d="M278.759,254.795a3.883,3.883,0,1,1,.953,7.707Z" transform="translate(139.757 128.946)" fill="#ff4d4d"/><path d="M251.314,262.648l6.469,3.922-1.142-9.293Z" transform="translate(125.866 130.217)" fill="#404040"/><path d="M257.214,260.361l.569,4.648-6.469-3.922Z" transform="translate(125.866 131.778)" fill="#2b2b2b"/><path d="M279.552,261.359l-.476-3.857,3.857-.476a3.887,3.887,0,0,1-3.381,4.333" transform="translate(139.917 130.09)" fill="#c23131"/><path d="M269.464,259.115l1.627,13.218-14.7-1.923-1.175-9.54Z" transform="translate(127.844 131.147)" fill="#969696"/><rect width="17.815" height="4.76" transform="translate(398.353 398.754) rotate(-7.015)" fill="#969696"/><path d="M270.226,264.754l.581,4.725-14.7-1.925-.328-2.646Z" transform="translate(128.128 134.002)" fill="gray"/><path d="M281.115,262.981l.306,2.466a2.156,2.156,0,0,1-1.726,2.5c-1.107.139-2,.247-2,.247l-.581-4.725Z" transform="translate(138.923 133.104)" fill="#bfbfbf"/><rect width="17.814" height="4.763" transform="matrix(0.993, -0.122, 0.122, 0.993, 395.678, 377.048)" fill="#e0e0e0"/><path d="M268.81,255.07l-.581-4.729-13.787,5.436.327,2.648Z" transform="translate(127.449 126.706)" fill="#d1d1d1"/><path d="M279.924,253.214l-.3-2.466a2.167,2.167,0,0,0-2.285-2.014l-2,.25.581,4.726Z" transform="translate(138.024 125.887)" fill="#fff"/><rect width="32.466" height="4.734" transform="matrix(0.992, -0.122, 0.122, 0.992, 380.559, 374.142)" fill="#bfbfbf"/><path d="M327.5,233.584l1.937-.238a.739.739,0,0,0,.646-.824l-.417-3.381a.74.74,0,0,0-.821-.642l-1.941.238a.744.744,0,0,0-.642.824l.416,3.381a.738.738,0,0,0,.822.642" transform="translate(163.798 115.649)" fill="#969696"/><path d="M324.547,233.948l1.941-.236a.739.739,0,0,0,.642-.824l-.417-3.381a.738.738,0,0,0-.821-.642l-1.938.238a.745.745,0,0,0-.645.824l.416,3.377a.738.738,0,0,0,.822.645" transform="translate(162.303 115.834)" fill="#969696"/><path d="M321.6,234.313l1.937-.242a.731.731,0,0,0,.642-.822l-.416-3.378a.736.736,0,0,0-.822-.64l-1.937.238a.741.741,0,0,0-.646.822l.416,3.377a.745.745,0,0,0,.827.646" transform="translate(160.807 116.019)" fill="#969696"/><path d="M318.64,234.674l1.937-.238a.74.74,0,0,0,.646-.824l-.417-3.377a.737.737,0,0,0-.821-.642l-1.941.238a.739.739,0,0,0-.642.824l.414,3.377a.737.737,0,0,0,.824.642" transform="translate(159.313 116.203)" fill="#969696"/><path d="M315.685,235.038l1.941-.238a.737.737,0,0,0,.642-.824l-.417-3.377a.732.732,0,0,0-.821-.642l-1.938.238a.74.74,0,0,0-.645.824l.414,3.377a.739.739,0,0,0,.824.642" transform="translate(157.817 116.387)" fill="#969696"/><path d="M312.734,235.4l1.94-.238a.746.746,0,0,0,.643-.824l-.417-3.377a.745.745,0,0,0-.822-.645l-1.941.241a.738.738,0,0,0-.642.824l.414,3.377a.741.741,0,0,0,.825.642" transform="translate(156.322 116.57)" fill="#969696"/><path d="M309.777,235.768l1.941-.238a.74.74,0,0,0,.642-.824l-.417-3.377a.741.741,0,0,0-.821-.646l-1.941.242a.739.739,0,0,0-.642.822l.414,3.378a.74.74,0,0,0,.824.642" transform="translate(154.827 116.755)" fill="#969696"/><path d="M306.822,236.132l1.941-.238a.746.746,0,0,0,.646-.824l-.422-3.381a.741.741,0,0,0-.821-.642l-1.938.238a.744.744,0,0,0-.645.824l.414,3.381a.743.743,0,0,0,.824.642" transform="translate(153.331 116.939)" fill="#969696"/><path d="M303.87,236.5l1.94-.242a.741.741,0,0,0,.643-.824l-.417-3.377a.744.744,0,0,0-.821-.64l-1.941.236a.738.738,0,0,0-.642.824l.414,3.377a.738.738,0,0,0,.824.646" transform="translate(151.837 117.124)" fill="#969696"/><path d="M300.915,236.861l1.937-.242a.736.736,0,0,0,.646-.824l-.417-3.377a.736.736,0,0,0-.821-.64l-1.941.236a.74.74,0,0,0-.642.824l.414,3.377a.74.74,0,0,0,.824.646" transform="translate(150.342 117.308)" fill="#969696"/><path d="M297.96,237.221l1.941-.238a.743.743,0,0,0,.646-.824l-.422-3.377a.735.735,0,0,0-.821-.642l-1.938.238a.739.739,0,0,0-.645.824l.414,3.377a.739.739,0,0,0,.824.642" transform="translate(148.846 117.492)" fill="#969696"/><path d="M295.008,237.586l1.937-.238a.737.737,0,0,0,.642-.824l-.416-3.377a.735.735,0,0,0-.822-.642l-1.937.238a.733.733,0,0,0-.642.824l.414,3.377a.734.734,0,0,0,.824.642" transform="translate(147.352 117.677)" fill="#969696"/><path d="M196.328,263.356l-13.73,1.691-1.691-13.731a13.835,13.835,0,0,0,15.421,12.04" transform="translate(90.231 127.2)" fill="#bfbfbf"/><path d="M677.761,265.323a61.568,61.568,0,0,0-18.027-2.719c-20.03,0-38.218,9.734-51.706,25.58a64.851,64.851,0,0,0-25.33,1.642c-11.626-12.566-26.8-20.191-43.422-20.191-15.32,0-29.412,6.482-40.628,17.33a56.808,56.808,0,0,0-19.6-3.518,57.88,57.88,0,0,0-29.058,7.948,68.458,68.458,0,0,0-59.791-1.247,74.288,74.288,0,0,0-31.611-7.132,75.649,75.649,0,0,0-40.678,12.115,57.759,57.759,0,0,0-19.55-3.442,58.87,58.87,0,0,0-28.888,7.695,68.4,68.4,0,0,0-31.344-7.695c-15.313,0-29.642,5.214-41.922,14.265a52.731,52.731,0,0,0-36.188-.151c-12.081-10.168-26.654-16.113-42.348-16.113a62.934,62.934,0,0,0-29.54,7.446,65.821,65.821,0,0,0-30.688-7.674,64.855,64.855,0,0,0-21.577,3.731C25.69,284.1,13.361,278.488,0,277.8V609.836H677.761Z" transform="translate(-1.333 132.913)" fill="#82d0ed"/><path d="M375.389,428a7.445,7.445,0,0,1-8.288,6.469l-189.568-23.35a7.426,7.426,0,0,1-6.469-8.281l9.343-75.894a7.431,7.431,0,0,1,8.281-6.464l189.571,23.348a7.42,7.42,0,0,1,6.469,8.282Z" transform="translate(85.219 162.176)" fill="#bac1cf"/><path d="M177.132,408.646a5.577,5.577,0,0,1-4.856-6.211l9.349-75.891a5.572,5.572,0,0,1,6.211-4.844l189.576,23.345a5.579,5.579,0,0,1,4.853,6.211l-9.349,75.894a5.562,5.562,0,0,1-6.216,4.836Z" transform="translate(85.841 162.802)" fill="#eff3f4"/><path d="M329.613,339.348l-52.239-6.436-10.7,86.952,52.231,6.425a5.563,5.563,0,0,0,6.216-4.836l9.349-75.893a5.581,5.581,0,0,0-4.854-6.213" transform="translate(133.639 168.499)" fill="#dae5e8"/><path d="M375.6,343.825,186.026,320.477a7.431,7.431,0,0,0-8.281,6.464l-1.482,12.052,204.322,25.158,1.481-12.045a7.42,7.42,0,0,0-6.469-8.282" transform="translate(87.88 162.176)" fill="#ffca0d"/><path d="M326.967,338.123l-52.227-6.436-2.4,19.426,59.611,7.336,1.481-12.045a7.42,7.42,0,0,0-6.469-8.282" transform="translate(136.51 167.879)" fill="#f0bb00"/><path d="M289.5,339.129c.092,0,.194,0,.306,0,.127.008.267.023.437.045a1.964,1.964,0,0,1,.432.093,1.123,1.123,0,0,1,.346.167.882.882,0,0,1,.206.267.7.7,0,0,1,.038.38.741.741,0,0,1-.074.248,1.472,1.472,0,0,1-.119.182,1.254,1.254,0,0,1-.17.133.572.572,0,0,1-.181.038,1.957,1.957,0,0,1,.2.081.77.77,0,0,1,.2.167.7.7,0,0,1,.131.252.681.681,0,0,1,.026.346.844.844,0,0,1-.154.432.709.709,0,0,1-.3.229.965.965,0,0,1-.419.093,2.74,2.74,0,0,1-.48-.017c-.125-.018-.25-.042-.374-.06s-.258-.056-.416-.093Zm.643,1.306a.534.534,0,0,0,.19,0,.372.372,0,0,0,.161-.039.52.52,0,0,0,.122-.116.646.646,0,0,0,.06-.2.362.362,0,0,0-.024-.208.292.292,0,0,0-.093-.133.685.685,0,0,0-.137-.074.529.529,0,0,0-.173-.035,1.32,1.32,0,0,0-.2-.018l-.1.8Zm-.355,1.294a.729.729,0,0,0,.134.032c.051.01.1.015.14.02a.938.938,0,0,0,.181.008.368.368,0,0,0,.187-.044.323.323,0,0,0,.149-.111.4.4,0,0,0,.092-.214.54.54,0,0,0-.018-.22.292.292,0,0,0-.1-.152.333.333,0,0,0-.176-.093,1.628,1.628,0,0,0-.227-.053l-.251-.036Z" transform="translate(145.007 171.644)" fill="#0c8eec"/><path d="M291.969,342.486a1.412,1.412,0,0,1-.563-.178,1.324,1.324,0,0,1-.363-.377,1.669,1.669,0,0,1-.175-.518,2.2,2.2,0,0,1,0-.621,1.994,1.994,0,0,1,.148-.6,1.386,1.386,0,0,1,.292-.467,1.13,1.13,0,0,1,.45-.271,1.291,1.291,0,0,1,.586-.045,1.4,1.4,0,0,1,.565.185,1.022,1.022,0,0,1,.365.38,1.241,1.241,0,0,1,.173.52,1.857,1.857,0,0,1,0,.628,3.41,3.41,0,0,1-.146.6,1.566,1.566,0,0,1-.3.452,1.187,1.187,0,0,1-.441.273,1.4,1.4,0,0,1-.6.042m.065-.508c.431.054.685-.264.768-.941a1.53,1.53,0,0,0-.062-.8.51.51,0,0,0-.453-.313c-.426-.059-.691.256-.776.946s.1,1.054.523,1.1" transform="translate(145.876 171.778)" fill="#0c8eec"/><path d="M293.868,339.629a1.061,1.061,0,0,1,.16,0c.048,0,.121,0,.188.009.045.008.1.018.149.032s.11.026.176.038l.568,3.1a1.877,1.877,0,0,1-.333-.012,2.292,2.292,0,0,1-.313-.069l-.084-.608-.985-.128-.249.584a1.606,1.606,0,0,1-.288-.02,1.524,1.524,0,0,1-.3-.06Zm.428,1.97-.194-1.3-.514,1.2Z" transform="translate(146.74 171.898)" fill="#0c8eec"/><path d="M294.858,339.789c.122,0,.233.01.346.01a3.2,3.2,0,0,1,.357.024,2.61,2.61,0,0,1,.443.1,1.354,1.354,0,0,1,.384.2.938.938,0,0,1,.252.319.792.792,0,0,1,.05.471,1.254,1.254,0,0,1-.065.291,1.463,1.463,0,0,1-.143.214.939.939,0,0,1-.157.139.738.738,0,0,1-.16.093l-.074.039.575,1.348a.911.911,0,0,1-.175-.009c-.069,0-.131-.006-.19-.006-.108-.02-.206-.044-.306-.071l-.611-1.481.1-.042a.6.6,0,0,0,.145-.045,1.237,1.237,0,0,0,.178-.1.476.476,0,0,0,.149-.146.549.549,0,0,0,.089-.221.5.5,0,0,0-.11-.407.541.541,0,0,0-.365-.17.737.737,0,0,0-.173,0l-.3,2.523a1.179,1.179,0,0,0-.158-.017c-.044,0-.1,0-.152,0s-.09-.015-.137-.03a.827.827,0,0,1-.16-.038Z" transform="translate(147.721 171.979)" fill="#0c8eec"/><path d="M296.529,339.995c.111,0,.242,0,.375.012a3.341,3.341,0,0,1,.422.042,1.641,1.641,0,0,1,1.139.527,1.535,1.535,0,0,1,.268,1.229,1.5,1.5,0,0,1-.551,1.1,1.8,1.8,0,0,1-1.277.214c-.142-.009-.276-.044-.39-.051-.127-.035-.232-.057-.349-.089Zm.307,2.577a.513.513,0,0,0,.09.023,1.46,1.46,0,0,1,.146.015,1.221,1.221,0,0,0,.354.008.579.579,0,0,0,.3-.131.736.736,0,0,0,.238-.283,1.713,1.713,0,0,0,.13-.488,1.855,1.855,0,0,0-.009-.511.952.952,0,0,0-.154-.342.751.751,0,0,0-.252-.2,1.113,1.113,0,0,0-.334-.087,1.26,1.26,0,0,0-.13-.009.439.439,0,0,0-.139-.006Z" transform="translate(148.566 172.084)" fill="#0c8eec"/><path d="M298.455,340.238a1.33,1.33,0,0,1,.3,0,2.4,2.4,0,0,1,.31.069l-.374,2.981a2.166,2.166,0,0,1-.31-.02,1.769,1.769,0,0,1-.3-.054Z" transform="translate(149.536 172.203)" fill="#0c8eec"/><path d="M299.24,340.329a2.4,2.4,0,0,1,.242.012,1.036,1.036,0,0,1,.262.053l.917,2.039.238-1.9a1.849,1.849,0,0,1,.28.017.919.919,0,0,1,.253.05l-.371,2.979a.7.7,0,0,1-.245,0,.922.922,0,0,1-.244-.057l-.926-2.035-.239,1.9c-.089,0-.179,0-.273-.014a.856.856,0,0,1-.259-.063Z" transform="translate(149.938 172.253)" fill="#0c8eec"/><path d="M302.512,342.16a1.541,1.541,0,0,1,.3.017,1.242,1.242,0,0,1,.306.057l-.185,1.465a1.631,1.631,0,0,1-.462.042,2.8,2.8,0,0,1-.419-.015,1.558,1.558,0,0,1-.616-.2,1.26,1.26,0,0,1-.422-.363,1.213,1.213,0,0,1-.206-.529,2.187,2.187,0,0,1-.023-.624,2.226,2.226,0,0,1,.172-.6,1.251,1.251,0,0,1,.34-.458,1.512,1.512,0,0,1,.48-.279,1.656,1.656,0,0,1,.613-.027,2.073,2.073,0,0,1,.363.066,1.828,1.828,0,0,1,.36.146.813.813,0,0,1-.092.238c-.041.072-.074.148-.116.227a2.633,2.633,0,0,0-.247-.1,1.809,1.809,0,0,0-.264-.056.747.747,0,0,0-.645.187,1.224,1.224,0,0,0-.31.74,1.113,1.113,0,0,0,.116.791.741.741,0,0,0,.593.322.375.375,0,0,0,.13.012.777.777,0,0,0,.1,0Z" transform="translate(150.9 172.402)" fill="#0c8eec"/><path d="M303.529,340.85c.124.008.262.012.392.02s.258.023.386.045a1.9,1.9,0,0,1,.426.086,1.059,1.059,0,0,1,.358.209.716.716,0,0,1,.238.345,1.159,1.159,0,0,1,.051.542,1.133,1.133,0,0,1-.173.511.821.821,0,0,1-.321.28.973.973,0,0,1-.4.116,1.682,1.682,0,0,1-.419-.015.507.507,0,0,1-.1-.012c-.033,0-.06-.012-.087-.012l-.113.953c-.05,0-.107,0-.155,0a1.169,1.169,0,0,0-.143-.02,1.244,1.244,0,0,1-.152-.023,1.28,1.28,0,0,1-.158-.039Zm.411,1.612c.032,0,.069.017.1.023s.06.008.105.008a1.371,1.371,0,0,0,.208,0,.586.586,0,0,0,.19-.081.306.306,0,0,0,.136-.143.671.671,0,0,0,.081-.244.846.846,0,0,0-.012-.267.5.5,0,0,0-.107-.179.378.378,0,0,0-.167-.116,1.293,1.293,0,0,0-.194-.056c-.036,0-.065,0-.089-.007s-.069,0-.116,0Z" transform="translate(152.107 172.516)" fill="#0c8eec"/><path d="M305.735,341.091a6.393,6.393,0,0,1,.349.02,1.049,1.049,0,0,1,.164.023l.175.044.565,3.1a2.238,2.238,0,0,1-.337-.021,1.745,1.745,0,0,1-.3-.066l-.1-.616-.987-.119-.244.577c-.09,0-.193-.008-.285-.015a1.739,1.739,0,0,1-.306-.054Zm.443,1.966-.2-1.291-.517,1.2Z" transform="translate(152.751 172.638)" fill="#0c8eec"/><path d="M307.111,342.9a2.436,2.436,0,0,1-.239-.155.59.59,0,0,1-.172-.175.543.543,0,0,1-.092-.229.577.577,0,0,1-.009-.3.909.909,0,0,1,.116-.372.77.77,0,0,1,.233-.24.784.784,0,0,1,.345-.12,1.031,1.031,0,0,1,.429-.015,1.9,1.9,0,0,1,.384.084c.122.044.249.1.387.16a1.586,1.586,0,0,1-.206.456.58.58,0,0,0-.111-.065.593.593,0,0,0-.137-.059c-.044-.02-.105-.035-.157-.054-.069-.008-.133-.023-.206-.032a.892.892,0,0,0-.143,0,.344.344,0,0,0-.142.03.222.222,0,0,0-.1.086.244.244,0,0,0-.057.163.191.191,0,0,0,.006.14c.021.039.029.077.072.1a.618.618,0,0,0,.1.086.85.85,0,0,0,.119.065l.238.122a2.44,2.44,0,0,1,.273.17.505.505,0,0,1,.188.185.8.8,0,0,1,.116.252,1.255,1.255,0,0,1,.007.357.892.892,0,0,1-.124.369.792.792,0,0,1-.264.274,1.052,1.052,0,0,1-.374.151,1.5,1.5,0,0,1-.5.017,2.14,2.14,0,0,1-.239-.042c-.075-.017-.14-.035-.209-.056s-.12-.045-.185-.066a1.527,1.527,0,0,1-.19-.1,1.24,1.24,0,0,1,.077-.241c.035-.081.069-.173.113-.256a2.794,2.794,0,0,0,.313.143,1.918,1.918,0,0,0,.321.078.759.759,0,0,0,.425-.054.321.321,0,0,0,.185-.274.363.363,0,0,0-.021-.172.184.184,0,0,0-.069-.111.243.243,0,0,0-.12-.093l-.133-.084Z" transform="translate(153.678 172.737)" fill="#0c8eec"/><path d="M308.553,343.076a1.428,1.428,0,0,1-.232-.148.63.63,0,0,1-.178-.173.82.82,0,0,1-.1-.229.677.677,0,0,1,0-.3.861.861,0,0,1,.116-.371.745.745,0,0,1,.236-.244.88.88,0,0,1,.342-.127,1.289,1.289,0,0,1,.425,0,2.321,2.321,0,0,1,.393.081c.12.039.247.1.38.158a1.533,1.533,0,0,1-.194.461.769.769,0,0,1-.125-.069c-.042-.018-.087-.035-.134-.057a.561.561,0,0,0-.163-.042.8.8,0,0,0-.2-.039.459.459,0,0,0-.155-.012.6.6,0,0,0-.128.035.267.267,0,0,0-.108.086.359.359,0,0,0-.054.158.448.448,0,0,0,.008.152.276.276,0,0,0,.069.1.3.3,0,0,0,.1.077c.035.023.086.047.122.074l.232.124c.1.051.19.108.274.163a.951.951,0,0,1,.194.187.653.653,0,0,1,.107.259.949.949,0,0,1,.02.34,1.022,1.022,0,0,1-.136.384.74.74,0,0,1-.253.267.978.978,0,0,1-.387.149,1.616,1.616,0,0,1-.5.015,1.4,1.4,0,0,1-.245-.042,1.44,1.44,0,0,1-.206-.047,1.634,1.634,0,0,1-.175-.075,1.2,1.2,0,0,1-.2-.092,1.472,1.472,0,0,1,.081-.248c.03-.089.068-.166.105-.252a2.053,2.053,0,0,0,.313.148,1.266,1.266,0,0,0,.334.074.7.7,0,0,0,.416-.045.347.347,0,0,0,.185-.285.312.312,0,0,0-.015-.167.268.268,0,0,0-.075-.116c-.036-.039-.074-.065-.115-.1a.788.788,0,0,1-.137-.074Z" transform="translate(154.409 172.827)" fill="#0c8eec"/><path d="M224.087,333.781l1.7.2a1.188,1.188,0,0,1-.012.258,1.092,1.092,0,0,1-.057.259l-1.08-.131-.095.7.865.113a1.022,1.022,0,0,1-.011.261.846.846,0,0,1-.057.256l-.855-.107-.16,1.253a2.133,2.133,0,0,1-.3-.02,1.59,1.59,0,0,1-.31-.062Z" transform="translate(111.897 168.939)" fill="#0c8eec"/><path d="M225.479,333.958a1.2,1.2,0,0,1,.3.012,1.687,1.687,0,0,1,.306.059l-.363,2.987c-.105,0-.209-.01-.306-.018s-.2-.035-.306-.059Z" transform="translate(112.606 169.025)" fill="#0c8eec"/><path d="M226.3,334.051c.116,0,.232,0,.343.008a2.248,2.248,0,0,1,.352.035,3.372,3.372,0,0,1,.458.089,1.279,1.279,0,0,1,.371.2.76.76,0,0,1,.253.322,1.008,1.008,0,0,1,.057.476.923.923,0,0,1-.078.28.851.851,0,0,1-.143.2.478.478,0,0,1-.151.155,1.535,1.535,0,0,1-.155.092l-.078.032.58,1.357c-.065-.009-.122-.009-.181-.012s-.127-.008-.19,0a2.442,2.442,0,0,1-.306-.074l-.616-1.479.111-.039a.825.825,0,0,0,.146-.059.6.6,0,0,0,.181-.092.536.536,0,0,0,.151-.152.514.514,0,0,0,.081-.224.5.5,0,0,0-.105-.4.607.607,0,0,0-.38-.175c-.057,0-.111,0-.155,0l-.316,2.515c-.041,0-.1,0-.145,0-.059-.012-.1,0-.148-.015s-.1-.008-.151-.017l-.158-.042Z" transform="translate(113.016 169.075)" fill="#0c8eec"/><path d="M228.352,335.9a1.546,1.546,0,0,1-.239-.146,1.007,1.007,0,0,1-.182-.175.687.687,0,0,1-.095-.236.962.962,0,0,1-.008-.3,1.029,1.029,0,0,1,.124-.365.65.65,0,0,1,.238-.249.863.863,0,0,1,.348-.128,1.434,1.434,0,0,1,.419,0,2.3,2.3,0,0,1,.4.086,3.016,3.016,0,0,1,.371.152,1.469,1.469,0,0,1-.2.456c-.036-.02-.074-.039-.114-.063l-.133-.06c-.047-.012-.1-.032-.163-.047a1.5,1.5,0,0,0-.2-.035.444.444,0,0,0-.148,0,.768.768,0,0,0-.136.027.3.3,0,0,0-.107.089.323.323,0,0,0-.059.167.506.506,0,0,0,.012.139.322.322,0,0,0,.065.105c.03.027.069.051.1.078a1.324,1.324,0,0,1,.125.068l.233.133a1.494,1.494,0,0,1,.274.155,1.079,1.079,0,0,1,.2.194,1.161,1.161,0,0,1,.113.252,2.148,2.148,0,0,1,.006.348,1.324,1.324,0,0,1-.126.38,1.012,1.012,0,0,1-.259.273,1.188,1.188,0,0,1-.389.148,1.7,1.7,0,0,1-.5.012c-.089-.012-.166-.024-.235-.041s-.145-.038-.2-.054a.921.921,0,0,1-.191-.077,1.076,1.076,0,0,1-.188-.092.9.9,0,0,1,.08-.241c.032-.086.074-.175.113-.256a2.158,2.158,0,0,0,.3.148,2.089,2.089,0,0,0,.331.077.744.744,0,0,0,.425-.047.342.342,0,0,0,.181-.279.466.466,0,0,0-.012-.175.3.3,0,0,0-.086-.116.289.289,0,0,0-.116-.092c-.035-.035-.089-.051-.131-.09Z" transform="translate(113.814 169.198)" fill="#0c8eec"/><path d="M229.941,335.031l-.744-.081v-.271c.014-.081.042-.163.059-.253l2.1.261a.988.988,0,0,1,0,.259,1.225,1.225,0,0,1-.059.261l-.743-.089-.309,2.456a.934.934,0,0,1-.146,0c-.053,0-.1,0-.146-.008a.824.824,0,0,1-.149-.027c-.053-.008-.107-.024-.166-.032Z" transform="translate(114.672 169.265)" fill="#0c8eec"/><path d="M233.277,337.334a1.192,1.192,0,0,1,.059.251c.017.086.018.175.027.253a1.875,1.875,0,0,1-.405.059c-.117,0-.233-.008-.37-.017a1.659,1.659,0,0,1-.6-.2,1.4,1.4,0,0,1-.4-.372,1.443,1.443,0,0,1-.215-.524,1.779,1.779,0,0,1-.012-.622,1.648,1.648,0,0,1,.17-.6,1.263,1.263,0,0,1,.337-.461,1.216,1.216,0,0,1,.486-.273,1.543,1.543,0,0,1,.611-.042c.125.02.246.045.357.074a1.3,1.3,0,0,1,.349.154.836.836,0,0,1-.065.226,2.372,2.372,0,0,0-.133.236,1.03,1.03,0,0,0-.252-.1,1.885,1.885,0,0,0-.259-.062.764.764,0,0,0-.649.193,1.134,1.134,0,0,0-.3.737c-.084.675.157,1.051.733,1.121a1.745,1.745,0,0,0,.267.012,1.978,1.978,0,0,0,.268-.044" transform="translate(115.752 169.443)" fill="#0c8eec"/><path d="M233.334,334.922a1.5,1.5,0,0,1,.3.011,2,2,0,0,1,.3.063l-.3,2.461,1.033.126c0,.047,0,.09,0,.14a.837.837,0,0,1-.009.113c-.008.05-.017.092-.023.139s-.017.083-.036.133l-1.63-.2Z" transform="translate(116.582 169.515)" fill="#0c8eec"/><path d="M235.477,335.146c.054,0,.111,0,.163,0l.185.017.158.026c.044.02.1.023.173.045l.56,3.088a1.524,1.524,0,0,1-.34-.008,1.667,1.667,0,0,1-.3-.068l-.095-.613-.982-.124-.241.577a1.329,1.329,0,0,1-.291-.012,1.875,1.875,0,0,1-.3-.062Zm.426,1.956-.185-1.283-.521,1.206Z" transform="translate(117.186 169.628)" fill="#0c8eec"/><path d="M236.839,336.953c-.089-.05-.161-.1-.236-.148a.6.6,0,0,1-.172-.182.451.451,0,0,1-.1-.226,1.217,1.217,0,0,1,0-.306.882.882,0,0,1,.116-.363.832.832,0,0,1,.236-.244,1.2,1.2,0,0,1,.343-.128,1.427,1.427,0,0,1,.417,0,2.431,2.431,0,0,1,.395.087,3.061,3.061,0,0,1,.384.152,1.6,1.6,0,0,1-.194.456c-.041-.023-.08-.042-.122-.066s-.086-.042-.133-.057-.1-.032-.158-.054-.13-.02-.2-.03a.741.741,0,0,0-.142,0,.376.376,0,0,0-.148.026c-.042.017-.063.051-.105.086a.559.559,0,0,0-.06.167.389.389,0,0,0,.017.143.381.381,0,0,0,.069.1.428.428,0,0,0,.1.083c.047.023.081.047.12.066l.236.128c.1.05.187.111.276.158a1.108,1.108,0,0,1,.19.2.571.571,0,0,1,.116.252.929.929,0,0,1,0,.345.9.9,0,0,1-.389.651.866.866,0,0,1-.38.152,1.85,1.85,0,0,1-.5.012c-.087-.012-.166-.027-.235-.042a1.08,1.08,0,0,1-.2-.056.789.789,0,0,1-.181-.069.857.857,0,0,1-.2-.1c.015-.074.048-.158.071-.245.044-.081.081-.169.117-.247a3.11,3.11,0,0,0,.313.14,1.576,1.576,0,0,0,.321.077.733.733,0,0,0,.428-.047.389.389,0,0,0,.169-.446.286.286,0,0,0-.075-.124.358.358,0,0,0-.114-.1c-.048-.024-.081-.047-.143-.075Z" transform="translate(118.112 169.727)" fill="#0c8eec"/><path d="M238.285,337.135c-.086-.059-.163-.1-.241-.152a.844.844,0,0,1-.169-.182.494.494,0,0,1-.09-.224.644.644,0,0,1-.012-.3.928.928,0,0,1,.119-.366.572.572,0,0,1,.241-.241.8.8,0,0,1,.333-.131,1.792,1.792,0,0,1,.818.084,1.881,1.881,0,0,1,.378.158,1.274,1.274,0,0,1-.194.45,1.066,1.066,0,0,1-.116-.066c-.047-.023-.09-.044-.137-.062s-.093-.024-.154-.047-.136-.023-.215-.03a.443.443,0,0,0-.136,0,.335.335,0,0,0-.139.03.25.25,0,0,0-.105.081.565.565,0,0,0-.065.164.59.59,0,0,0,.017.143.226.226,0,0,0,.074.107.31.31,0,0,0,.1.08c.036.018.075.05.108.065l.241.133a1.7,1.7,0,0,1,.271.158,1.423,1.423,0,0,1,.2.19.76.76,0,0,1,.108.256.979.979,0,0,1,0,.348,1.117,1.117,0,0,1-.121.377.962.962,0,0,1-.264.271,1.091,1.091,0,0,1-.38.152,1.774,1.774,0,0,1-.5.006c-.1-.006-.175-.023-.253-.033s-.133-.036-.193-.051a1.173,1.173,0,0,1-.187-.074c-.065-.035-.133-.057-.193-.1.014-.078.05-.158.077-.253a2.42,2.42,0,0,1,.11-.244c.111.054.215.11.321.149a1.839,1.839,0,0,0,.318.068.685.685,0,0,0,.428-.05.324.324,0,0,0,.185-.271.3.3,0,0,0-.024-.172.4.4,0,0,0-.069-.127.949.949,0,0,0-.12-.093c-.042-.02-.093-.054-.14-.072Z" transform="translate(118.844 169.817)" fill="#0c8eec"/><path d="M224.842,328.465l.56.012c.217.012.485.038.807.081a5.225,5.225,0,0,1,.779.163,1.87,1.87,0,0,1,.622.313,1.243,1.243,0,0,1,.386.493,1.491,1.491,0,0,1-.063,1.136,1.743,1.743,0,0,1-.224.345,1.93,1.93,0,0,1-.313.221.773.773,0,0,1-.327.089,1.184,1.184,0,0,1,.374.151,1.421,1.421,0,0,1,.365.291,1.4,1.4,0,0,1,.247.458,1.43,1.43,0,0,1,.051.639,1.639,1.639,0,0,1-.288.783,1.482,1.482,0,0,1-.56.434,2.157,2.157,0,0,1-.753.155,5.086,5.086,0,0,1-.88-.032c-.227-.035-.461-.065-.691-.1s-.479-.1-.759-.166ZM226,330.857a2.213,2.213,0,0,0,.366.015.855.855,0,0,0,.289-.086.59.59,0,0,0,.226-.221.8.8,0,0,0,.116-.363.709.709,0,0,0-.041-.369.543.543,0,0,0-.178-.239.671.671,0,0,0-.276-.143,2.137,2.137,0,0,0-.289-.066c-.145-.017-.265-.02-.361-.024l-.187,1.458Zm-.621,2.363a.818.818,0,0,0,.236.054c.1.024.181.027.259.042a2.37,2.37,0,0,0,.334.017,1.344,1.344,0,0,0,.345-.078.7.7,0,0,0,.426-.613.9.9,0,0,0-.03-.395.6.6,0,0,0-.188-.276,1.007,1.007,0,0,0-.312-.173,2.121,2.121,0,0,0-.428-.089l-.449-.059Z" transform="translate(112.129 166.248)" fill="#0c8eec"/><path d="M229.358,334.6a2.394,2.394,0,0,1-1.035-.34,1.847,1.847,0,0,1-.658-.675,2.456,2.456,0,0,1-.322-.932,4,4,0,0,1,0-1.137,4.116,4.116,0,0,1,.271-1.1,2.371,2.371,0,0,1,.538-.845,1.956,1.956,0,0,1,.8-.5,2.443,2.443,0,0,1,1.09-.081,2.368,2.368,0,0,1,1.035.345,1.945,1.945,0,0,1,.669.673,2.609,2.609,0,0,1,.312.95,4.038,4.038,0,0,1,0,1.151,3.908,3.908,0,0,1-.277,1.093,2.265,2.265,0,0,1-.536.828,2.046,2.046,0,0,1-.8.5,2.411,2.411,0,0,1-1.086.072m.114-.91c.785.086,1.246-.485,1.405-1.74a2.745,2.745,0,0,0-.113-1.446.971.971,0,0,0-.825-.581c-.789-.1-1.267.485-1.419,1.737s.161,1.922.952,2.03" transform="translate(113.714 166.495)" fill="#0c8eec"/><path d="M232.815,329.387c.107-.008.206,0,.3,0,.105.008.2.018.327.035.1.015.193.027.3.045l.315.074,1.027,5.651a4.819,4.819,0,0,1-.611-.023,2.9,2.9,0,0,1-.553-.124l-.173-1.125-1.8-.224-.44,1.057a3.455,3.455,0,0,1-.526-.018,2.636,2.636,0,0,1-.551-.125Zm.786,3.589-.342-2.372-.941,2.21Z" transform="translate(115.292 166.713)" fill="#0c8eec"/><path d="M234.623,329.68c.223,0,.443,0,.636.012a5.566,5.566,0,0,1,.654.062,4.091,4.091,0,0,1,.812.17,2.194,2.194,0,0,1,.7.36,1.477,1.477,0,0,1,.467.589,1.874,1.874,0,0,1-.047,1.377,1.258,1.258,0,0,1-.247.387,2.453,2.453,0,0,1-.28.271,2.639,2.639,0,0,1-.288.167l-.143.069,1.042,2.464c-.1-.006-.2-.011-.315-.014a2.2,2.2,0,0,1-.348-.029,2.869,2.869,0,0,1-.56-.116l-1.118-2.693.194-.078a2,2,0,0,0,.27-.1,1.541,1.541,0,0,0,.327-.17,1.367,1.367,0,0,0,.271-.279.82.82,0,0,0,.151-.4.839.839,0,0,0-.19-.738,1.069,1.069,0,0,0-.676-.313,1.144,1.144,0,0,0-.3,0l-.574,4.58a1.852,1.852,0,0,1-.259,0c-.1-.009-.19-.012-.279-.017s-.184-.03-.273-.042-.193-.039-.3-.069Z" transform="translate(117.08 166.863)" fill="#0c8eec"/><path d="M237.685,330.059c.214-.008.435.007.675.01.224.02.483.035.773.071a3.075,3.075,0,0,1,2.081.979,2.871,2.871,0,0,1,.486,2.226,2.7,2.7,0,0,1-1.014,2.011,3.313,3.313,0,0,1-2.336.4,6.687,6.687,0,0,1-.714-.122c-.208-.045-.419-.084-.627-.142Zm.539,4.7a1.1,1.1,0,0,1,.181.042c.066.008.152.02.253.03a2.418,2.418,0,0,0,.66,0,1.139,1.139,0,0,0,.548-.221,1.287,1.287,0,0,0,.416-.527,2.544,2.544,0,0,0,.247-.9,2.926,2.926,0,0,0-.014-.922,1.478,1.478,0,0,0-.282-.616,1.293,1.293,0,0,0-.468-.367,2.086,2.086,0,0,0-.587-.157c-.071-.011-.152-.018-.25-.027a1.658,1.658,0,0,0-.246-.015Z" transform="translate(118.626 167.053)" fill="#0c8eec"/><path d="M241.178,330.492a2.931,2.931,0,0,1,.556.023,4.443,4.443,0,0,1,.56.1l-.663,5.446a3.2,3.2,0,0,1-.56-.02,3.708,3.708,0,0,1-.559-.113Z" transform="translate(120.399 167.271)" fill="#0c8eec"/><path d="M242.617,330.669a1.9,1.9,0,0,1,.465.014,2.1,2.1,0,0,1,.456.1l1.682,3.716.419-3.46a3.382,3.382,0,0,1,.53.023,2.12,2.12,0,0,1,.449.1l-.673,5.445a2.41,2.41,0,0,1-.438-.01,2.234,2.234,0,0,1-.458-.105l-1.7-3.716-.429,3.457a2.5,2.5,0,0,1-.5-.012,2.781,2.781,0,0,1-.468-.1Z" transform="translate(121.131 167.359)" fill="#0c8eec"/><path d="M248.6,334a2.845,2.845,0,0,1,.554.021,2.594,2.594,0,0,1,.539.116l-.325,2.67a3.545,3.545,0,0,1-.842.092,6.06,6.06,0,0,1-.759-.047,3,3,0,0,1-1.14-.348,2.2,2.2,0,0,1-.758-.685,2.433,2.433,0,0,1-.387-.95,3.372,3.372,0,0,1-.032-1.139,3.621,3.621,0,0,1,.312-1.106,2.652,2.652,0,0,1,.611-.837,2.23,2.23,0,0,1,.886-.492,2.733,2.733,0,0,1,1.121-.072,5.375,5.375,0,0,1,.673.124,2.693,2.693,0,0,1,.628.279,2.008,2.008,0,0,1-.143.431c-.074.133-.139.271-.217.414a2.962,2.962,0,0,0-.458-.19,2.115,2.115,0,0,0-.48-.1,1.372,1.372,0,0,0-1.175.333,2.211,2.211,0,0,0-.56,1.357,2.154,2.154,0,0,0,.212,1.441,1.419,1.419,0,0,0,1.077.6c.089,0,.172.015.241.011s.12,0,.181,0Z" transform="translate(122.88 167.633)" fill="#0c8eec"/><path d="M250.444,331.612c.239.008.465.027.718.036.236.021.468.045.718.069a4.731,4.731,0,0,1,.758.178,1.818,1.818,0,0,1,.666.372,1.6,1.6,0,0,1,.446.636,2.168,2.168,0,0,1,.077.99,1.928,1.928,0,0,1-.322.934,1.472,1.472,0,0,1-.58.511,1.888,1.888,0,0,1-.721.209,3.42,3.42,0,0,1-.767-.027.957.957,0,0,1-.185-.02,1.1,1.1,0,0,1-.163-.036l-.206,1.749a1.471,1.471,0,0,1-.294,0,2.157,2.157,0,0,1-.258-.026c-.081-.009-.176-.024-.267-.041a1.992,1.992,0,0,1-.288-.069Zm.761,2.938a1.2,1.2,0,0,0,.173.035,1.623,1.623,0,0,0,.19.027,1.777,1.777,0,0,0,.38,0,.9.9,0,0,0,.343-.128.8.8,0,0,0,.25-.271,1.065,1.065,0,0,0,.151-.45,1.053,1.053,0,0,0-.033-.48.815.815,0,0,0-.176-.34,1.14,1.14,0,0,0-.307-.2,1.051,1.051,0,0,0-.363-.089.619.619,0,0,0-.154-.02.64.64,0,0,0-.211,0Z" transform="translate(125.088 167.841)" fill="#0c8eec"/><path d="M254.494,332.054c.107,0,.208,0,.3,0s.2.02.316.027.2.032.306.047c.084.02.19.051.306.077l1.033,5.651a3.511,3.511,0,0,1-.616-.032,2.571,2.571,0,0,1-.548-.116l-.163-1.121-1.813-.22-.438,1.047a3.443,3.443,0,0,1-.523-.02,4.109,4.109,0,0,1-.559-.108Zm.789,3.589-.348-2.363-.938,2.2Z" transform="translate(126.263 168.064)" fill="#0c8eec"/><path d="M256.981,335.351a3.436,3.436,0,0,1-.435-.261,2.68,2.68,0,0,1-.316-.325,1.237,1.237,0,0,1-.163-.422,1.454,1.454,0,0,1-.023-.551,1.63,1.63,0,0,1,.215-.667,1.306,1.306,0,0,1,.444-.449,1.658,1.658,0,0,1,.617-.232,2.493,2.493,0,0,1,.773,0,3.09,3.09,0,0,1,.708.155,6.593,6.593,0,0,1,.7.283,2.888,2.888,0,0,1-.358.833,1.745,1.745,0,0,0-.214-.12.977.977,0,0,0-.241-.1,1.608,1.608,0,0,0-.294-.093,2.871,2.871,0,0,0-.372-.071,1.254,1.254,0,0,0-.261,0,.856.856,0,0,0-.25.051.444.444,0,0,0-.2.155.679.679,0,0,0-.108.3.575.575,0,0,0,.027.265.451.451,0,0,0,.116.2.716.716,0,0,0,.2.14c.062.044.136.081.2.125l.438.224c.178.108.345.2.485.3a1.451,1.451,0,0,1,.372.348,1.477,1.477,0,0,1,.2.464,1.923,1.923,0,0,1,0,.642,1.57,1.57,0,0,1-.694,1.178,1.976,1.976,0,0,1-.706.271,2.92,2.92,0,0,1-.919.02c-.154-.024-.3-.041-.432-.075a2.36,2.36,0,0,1-.369-.089,3.418,3.418,0,0,1-.342-.127c-.111-.051-.227-.108-.351-.179.033-.143.087-.291.139-.441.074-.16.131-.313.2-.468a4.651,4.651,0,0,0,.575.267,3.126,3.126,0,0,0,.592.14,1.475,1.475,0,0,0,.779-.081.653.653,0,0,0,.342-.515.784.784,0,0,0-.041-.31.64.64,0,0,0-.131-.226.974.974,0,0,0-.217-.166c-.084-.054-.169-.093-.254-.145Z" transform="translate(127.952 168.245)" fill="#0c8eec"/><path d="M259.622,335.681a3.813,3.813,0,0,1-.431-.271,1.358,1.358,0,0,1-.318-.319,1.185,1.185,0,0,1-.173-.417,1.467,1.467,0,0,1-.017-.562,1.754,1.754,0,0,1,.217-.663,1.318,1.318,0,0,1,.434-.449,1.517,1.517,0,0,1,.625-.226,2.323,2.323,0,0,1,.774-.011,3.338,3.338,0,0,1,.712.151,6.912,6.912,0,0,1,.691.286,3,3,0,0,1-.349.833c-.066-.042-.152-.081-.226-.119a1,1,0,0,0-.241-.105c-.08-.027-.176-.057-.292-.084s-.226-.047-.377-.066a1.359,1.359,0,0,0-.265-.012.935.935,0,0,0-.238.05.492.492,0,0,0-.2.16.657.657,0,0,0-.108.3.665.665,0,0,0,.02.259.655.655,0,0,0,.126.194,1.389,1.389,0,0,0,.181.148c.086.039.154.084.227.119l.431.226c.181.111.352.209.491.3a1.872,1.872,0,0,1,.363.351,1.209,1.209,0,0,1,.2.461,1.819,1.819,0,0,1,.008.643,1.507,1.507,0,0,1-.224.678,1.53,1.53,0,0,1-.47.5,1.881,1.881,0,0,1-.7.271,2.994,2.994,0,0,1-.917.027c-.152-.032-.315-.051-.443-.075s-.243-.065-.365-.092-.232-.084-.348-.128c-.11-.059-.217-.108-.343-.178a2.9,2.9,0,0,1,.137-.446c.062-.158.137-.313.206-.465a3.7,3.7,0,0,0,.574.268,3.028,3.028,0,0,0,.592.134,1.327,1.327,0,0,0,.764-.084.645.645,0,0,0,.349-.5.609.609,0,0,0-.029-.318.659.659,0,0,0-.146-.224.788.788,0,0,0-.217-.17c-.078-.051-.163-.092-.249-.14Z" transform="translate(129.289 168.41)" fill="#0c8eec"/><path d="M253.385,386.925l14.728,1.813.143-1.191-14.721-1.812Z" transform="translate(126.914 195.235)" fill="#8c8c8c"/><rect width="2.626" height="14.835" transform="matrix(0.122, -0.992, 0.992, 0.122, 380.823, 577.958)" fill="#8c8c8c"/><path d="M255.014,373.828l14.738,1.81.19-1.59-14.728-1.813Z" transform="translate(127.739 188.401)" fill="#8c8c8c"/><rect width="1.334" height="14.838" transform="matrix(0.122, -0.993, 0.993, 0.122, 381.249, 574.435)" fill="#8c8c8c"/><rect width="1.788" height="14.846" transform="matrix(0.123, -0.992, 0.992, 0.123, 381.459, 572.708)" fill="#8c8c8c"/><path d="M254.65,376.936l14.721,1.816.258-2.018L254.9,374.921Z" transform="translate(127.555 189.761)" fill="#8c8c8c"/><path d="M254.857,374.866l14.73,1.816.116-.929-14.721-1.81Z" transform="translate(127.659 189.266)" fill="#8c8c8c"/><rect width="1.87" height="14.847" transform="translate(381.777 570.091) rotate(-82.966)" fill="#8c8c8c"/><path d="M253.572,385.365l14.725,1.822.148-1.17-14.725-1.812Z" transform="translate(127.009 194.46)" fill="#8c8c8c"/><path d="M257.356,354.711l14.729,1.8.169-1.277-14.735-1.822Z" transform="translate(128.924 178.876)" fill="#8c8c8c"/><path d="M257.174,356.045l14.731,1.809.116-.913-14.727-1.815Z" transform="translate(128.832 179.742)" fill="#8c8c8c"/><path d="M257.584,352.962l14.73,1.818.217-1.666L257.793,351.3Z" transform="translate(129.04 177.807)" fill="#8c8c8c"/><path d="M257.811,350.913l14.725,1.813.108-.919L257.918,350Z" transform="translate(129.154 177.147)" fill="#8c8c8c"/><path d="M255.276,371.671l14.733,1.81.194-1.6-14.722-1.813Z" transform="translate(127.872 187.306)" fill="#8c8c8c"/><rect width="2.254" height="14.838" transform="matrix(0.122, -0.993, 0.993, 0.122, 387.111, 526.843)" fill="#8c8c8c"/><path d="M258.228,347.492l14.725,1.818.124-.919-14.733-1.816Z" transform="translate(129.365 175.414)" fill="#8c8c8c"/><rect width="1.794" height="14.839" transform="matrix(0.123, -0.992, 0.992, 0.123, 384.425, 548.669)" fill="#8c8c8c"/><rect width="2.041" height="14.841" transform="translate(383.654 554.932) rotate(-82.998)" fill="#8c8c8c"/><rect width="1.869" height="14.84" transform="matrix(0.123, -0.992, 0.992, 0.123, 384.092, 551.365)" fill="#8c8c8c"/><path d="M255.489,369.722l14.727,1.813.116-.914-14.723-1.806Z" transform="translate(127.979 186.671)" fill="#8c8c8c"/><rect width="1.172" height="14.838" transform="matrix(0.122, -0.993, 0.993, 0.122, 385.378, 540.945)" fill="#8c8c8c"/><rect width="1.201" height="14.847" transform="translate(385.655 538.64) rotate(-82.995)" fill="#8c8c8c"/><path d="M256.3,363.3l14.731,1.809.169-1.325-14.738-1.821Z" transform="translate(128.389 183.202)" fill="#8c8c8c"/><path d="M256.484,362.223l14.728,1.816.315-2.582L256.8,359.645Z" transform="translate(128.483 182.029)" fill="#8c8c8c"/><rect width="5.598" height="46.74" transform="translate(413.03 535.257) rotate(-82.985)" fill="#acb6cc"/><rect width="5.604" height="46.748" transform="matrix(0.122, -0.992, 0.992, 0.122, 411.657, 546.347)" fill="#acb6cc"/><path d="M319.7,377.69,273.3,371.973l.694-5.553,46.387,5.71Z" transform="translate(136.992 185.458)" fill="#acb6cc"/><rect width="5.6" height="46.742" transform="translate(408.928 568.522) rotate(-82.971)" fill="#acb6cc"/><rect width="5.599" height="46.746" transform="translate(407.563 579.619) rotate(-82.987)" fill="#acb6cc"/><rect width="5.6" height="47.908" transform="matrix(0.122, -0.993, 0.993, 0.122, 270.296, 517.677)" fill="#bac1cf"/><rect width="5.6" height="24.145" transform="translate(323.235 524.195) rotate(-82.973)" fill="#bac1cf"/><rect width="5.596" height="27.76" transform="translate(353.189 527.886) rotate(-82.986)" fill="#bac1cf"/><rect width="5.607" height="47.989" transform="matrix(0.122, -0.993, 0.993, 0.122, 268.93, 528.77)" fill="#bac1cf"/><rect width="5.6" height="59.23" transform="translate(320.586 535.128) rotate(-82.974)" fill="#bac1cf"/><rect width="5.599" height="53.655" transform="translate(267.566 539.857) rotate(-82.984)" fill="#bac1cf"/><rect width="5.607" height="53.66" transform="translate(324.757 546.899) rotate(-82.974)" fill="#bac1cf"/><path d="M230.89,374.232l-53.265-6.561.678-5.562,53.266,6.562Z" transform="translate(88.57 183.276)" fill="#bac1cf"/><path d="M268.854,378.9,215.6,372.346l.69-5.556,53.258,6.555Z" transform="translate(107.788 185.646)" fill="#bac1cf"/><rect width="5.596" height="53.656" transform="translate(264.835 562.031) rotate(-82.977)" fill="#bac1cf"/><rect width="5.599" height="53.654" transform="translate(322.023 569.077) rotate(-82.978)" fill="#bac1cf"/><path d="M267.32,413.724l-.648-.077.223-1.845.643.069Zm.455-3.692-.649-.09.226-1.848.646.081Zm.452-3.7-.643-.081.233-1.853.643.086Zm.461-3.708-.651-.074.235-1.856.643.08Zm.461-3.7-.655-.077.224-1.849.651.078Zm.453-3.7-.655-.086.232-1.842.648.071Zm.45-3.7-.645-.086.224-1.845.657.078Zm.458-3.705-.637-.077.221-1.854.643.078Zm.456-3.7-.64-.084.223-1.849.645.09Zm.452-3.705-.649-.072L271,378.5l.651.074Zm.453-3.7-.639-.078.229-1.851.642.077Zm.455-3.7-.64-.084.227-1.848.645.081Zm.465-3.705-.646-.075.223-1.85.648.081Zm.44-3.7-.633-.08.227-1.842.648.083Zm.465-3.7-.643-.081.221-1.857.643.086Zm.458-3.7-.643-.081.224-1.848.646.074Zm.458-3.7-.643-.074.232-1.857.636.083Zm.453-3.7-.651-.078.236-1.853.643.078Zm.456-3.693-.646-.089.233-1.845.633.074Z" transform="translate(133.639 174.717)" fill="#595959"/><path d="M273.07,349.641l-.648-.074.23-1.857.633.078Zm.449-3.7-.643-.069.229-1.857.645.081Zm.455-3.7-.64-.074.236-1.856.637.084Zm.468-3.7-.655-.086.233-1.84.646.081Zm.441-3.7-.643-.081.226-1.851.658.081Z" transform="translate(136.55 168.499)" fill="#eff3f4"/><path d="M229.822,329.416l-47.705-5.874.063-.408,47.7,5.875Z" transform="translate(90.843 163.55)" fill="#0c8eec"/><path d="M230.835,331.367,181.9,325.338l.056-.4,48.928,6.026Z" transform="translate(90.734 164.462)" fill="#0c8eec"/><path d="M225.915,332.6l-44.232-5.452.047-.411,44.237,5.452Z" transform="translate(90.623 165.373)" fill="#0c8eec"/><rect width="0.404" height="49.3" transform="translate(271.968 495.229) rotate(-82.975)" fill="#0c8eec"/><path d="M228.944,336.624l-47.714-5.875.051-.4,47.705,5.871Z" transform="translate(90.394 167.2)" fill="#0c8eec"/><path d="M222.774,332.977l-2.53-.31-.6-1.185.161.05.608.074.14-.023.081-.678-.128-.051-.595-.074-.642,0-1.887-3.639-.47-.05,1.009,4.235-.13,1.042-1.67-.2-1.478-.011-.3.023-1.181-1.715-.485-.054.485,1.856-.563.047-.023.158-.02.17.536.179-.926,1.685.483.066,1.568-1.384.28.09,1.446.36,1.663.2-.125,1.039-2.008,3.871.458.063,2.717-3.066.625.148.6.077.126-.023.092-.673-.122-.059-.607-.066-.178-.012.878-.988,2.526.307c.306.05,1.077-.3,1.109-.618.038-.306-.613-.813-.929-.855" transform="translate(106.054 165.55)" fill="#0c8eec"/><path d="M376.528,419.183a7.437,7.437,0,0,1-7.178,7.668l-190.907,6.36a7.417,7.417,0,0,1-7.674-7.168l-2.548-76.418a7.421,7.421,0,0,1,7.187-7.672l190.9-6.366a7.424,7.424,0,0,1,7.674,7.174Z" transform="translate(83.807 169.85)" fill="#bac1cf"/><path d="M177.763,430.743A5.575,5.575,0,0,1,172,425.36l-2.551-76.424a5.579,5.579,0,0,1,5.39-5.752l190.9-6.371A5.579,5.579,0,0,1,371.5,342.2l2.547,76.421a5.583,5.583,0,0,1-5.389,5.755Z" transform="translate(84.431 170.472)" fill="#eff3f4"/><path d="M317.452,336.813l-52.6,1.752,2.923,87.561,52.6-1.75a5.586,5.586,0,0,0,5.39-5.755l-2.55-76.421a5.577,5.577,0,0,0-5.759-5.386" transform="translate(132.718 170.472)" fill="#dae5e8"/><path d="M366.3,335.586l-190.9,6.366a7.422,7.422,0,0,0-7.187,7.672l.411,12.123,205.75-6.863-.405-12.124a7.423,7.423,0,0,0-7.674-7.174" transform="translate(83.807 169.85)" fill="#ec780c"/><path d="M317.41,335.586l-52.6,1.752.648,19.554,60.029-2.008-.405-12.124a7.423,7.423,0,0,0-7.674-7.174" transform="translate(132.698 169.85)" fill="#e65b0c"/><path d="M281.216,341.724a1.53,1.53,0,0,1,.316-.042c.122-.012.255-.027.432-.035.157,0,.3.011.431.023a1.133,1.133,0,0,1,.369.125.712.712,0,0,1,.255.22.874.874,0,0,1,.1.381.7.7,0,0,1-.038.247.714.714,0,0,1-.1.2.514.514,0,0,1-.146.145.582.582,0,0,1-.167.084.769.769,0,0,1,.211.042.7.7,0,0,1,.223.131.559.559,0,0,1,.167.226.635.635,0,0,1,.089.34,1.04,1.04,0,0,1-.089.455.8.8,0,0,1-.268.279,1.333,1.333,0,0,1-.395.155c-.158.023-.31.042-.48.053-.124,0-.254,0-.369,0a3.138,3.138,0,0,1-.438-.03Zm.839,1.19c.066,0,.131-.015.194-.02a.34.34,0,0,0,.154-.074.3.3,0,0,0,.1-.139.526.526,0,0,0,.03-.209.344.344,0,0,0-.051-.19.322.322,0,0,0-.116-.122.378.378,0,0,0-.16-.053c-.051-.008-.111,0-.163-.008-.083,0-.148.01-.2.015l.036.806Zm-.137,1.337a.416.416,0,0,0,.133,0,1.1,1.1,0,0,0,.142,0,1.621,1.621,0,0,0,.181-.018.7.7,0,0,0,.178-.074.483.483,0,0,0,.133-.133.464.464,0,0,0,.051-.22.68.68,0,0,0-.054-.226.37.37,0,0,0-.125-.131.4.4,0,0,0-.182-.066,1.047,1.047,0,0,0-.233-.015l-.25.008Z" transform="translate(141.001 172.92)" fill="#fff"/><path d="M284.233,344.687a1.3,1.3,0,0,1-.595-.1.947.947,0,0,1-.405-.315,1.035,1.035,0,0,1-.25-.48,2.436,2.436,0,0,1-.112-.612,2.062,2.062,0,0,1,.063-.625,1.434,1.434,0,0,1,.217-.5,1.056,1.056,0,0,1,.4-.34,1.272,1.272,0,0,1,.58-.14,1.289,1.289,0,0,1,.586.108,1.081,1.081,0,0,1,.422.306,1.384,1.384,0,0,1,.242.485,1.94,1.94,0,0,1,.1.619,2.263,2.263,0,0,1-.056.621,1.347,1.347,0,0,1-.22.5.964.964,0,0,1-.395.333,1.193,1.193,0,0,1-.574.136m-.023-.508c.429-.02.646-.369.619-1.062a1.637,1.637,0,0,0-.185-.771.519.519,0,0,0-.5-.236c-.431.011-.643.352-.62,1.05s.258,1.036.684,1.02" transform="translate(141.837 172.886)" fill="#fff"/><path d="M285.582,341.58a.765.765,0,0,1,.169-.03c.059,0,.114-.008.172-.012s.117,0,.167,0a.522.522,0,0,1,.17.015l1.035,2.964a1.814,1.814,0,0,1-.321.041,1.212,1.212,0,0,1-.315-.021l-.181-.589-1,.032-.158.6a1.2,1.2,0,0,1-.28.039,1.581,1.581,0,0,1-.306-.02Zm.74,1.865-.392-1.247-.327,1.276Z" transform="translate(142.783 172.864)" fill="#fff"/><path d="M286.62,341.543c.111-.02.235-.03.345-.045a2.251,2.251,0,0,1,.357-.029,2.689,2.689,0,0,1,.455.032,1.117,1.117,0,0,1,.405.133.866.866,0,0,1,.3.274.94.94,0,0,1,.133.465,1.609,1.609,0,0,1-.038.291.743.743,0,0,1-.1.224.372.372,0,0,1-.142.17.327.327,0,0,1-.131.116l-.063.048.771,1.247c-.059.011-.122.015-.179.023s-.121.009-.181.017c-.11,0-.217,0-.315-.012l-.836-1.372.1-.05c.038-.024.09-.047.143-.078s.1-.077.158-.119a1.327,1.327,0,0,0,.125-.175.542.542,0,0,0,.044-.236.436.436,0,0,0-.16-.377.593.593,0,0,0-.393-.116,1,1,0,0,0-.158.02l.083,2.53-.152.027c-.054,0-.112,0-.149,0a1.438,1.438,0,0,1-.161.006c-.05,0-.105,0-.16-.011Z" transform="translate(143.736 172.829)" fill="#fff"/><path d="M288.309,341.49c.107-.014.232-.029.358-.053l.417-.027a1.673,1.673,0,0,1,1.223.36,1.591,1.591,0,0,1,.449,1.167,1.494,1.494,0,0,1-.38,1.166,1.816,1.816,0,0,1-1.231.422,2.391,2.391,0,0,1-.384-.015,3.026,3.026,0,0,1-.357-.02Zm.693,2.5c.015,0,.054,0,.1,0a.46.46,0,0,0,.134,0,1.462,1.462,0,0,0,.36-.051.545.545,0,0,0,.279-.173.841.841,0,0,0,.181-.313,1.75,1.75,0,0,0,.063-.512,2.029,2.029,0,0,0-.093-.5.939.939,0,0,0-.2-.315.75.75,0,0,0-.289-.151,1.232,1.232,0,0,0-.328-.044c-.038.008-.084,0-.137.008a1.057,1.057,0,0,0-.137.017Z" transform="translate(144.591 172.799)" fill="#fff"/><path d="M290.234,341.414a3.019,3.019,0,0,1,.3-.039,1.158,1.158,0,0,1,.306.02l.1,3a1.363,1.363,0,0,1-.291.038,1.223,1.223,0,0,1-.315-.02Z" transform="translate(145.565 172.781)" fill="#fff"/><path d="M291.029,341.409a.831.831,0,0,1,.249-.038,1.879,1.879,0,0,1,.262.015l1.227,1.872-.063-1.908a1.649,1.649,0,0,1,.28-.038.854.854,0,0,1,.259.024l.1,3a1.076,1.076,0,0,1-.253.03,1.174,1.174,0,0,1-.25-.02l-1.228-1.865.06,1.9a.959.959,0,0,1-.283.042,1.463,1.463,0,0,1-.256-.018Z" transform="translate(145.967 172.75)" fill="#fff"/><path d="M294.593,342.73c.105-.015.2-.02.307-.03a1.162,1.162,0,0,1,.294.024l.054,1.462a1.988,1.988,0,0,1-.453.13,3.663,3.663,0,0,1-.41.035,1.8,1.8,0,0,1-.646-.089,1.259,1.259,0,0,1-.465-.315,1.244,1.244,0,0,1-.3-.48,2.344,2.344,0,0,1-.113-.613,2.017,2.017,0,0,1,.077-.627,1.573,1.573,0,0,1,.258-.5,1.155,1.155,0,0,1,.437-.34,1.37,1.37,0,0,1,.6-.139,2.091,2.091,0,0,1,.38.011,1.578,1.578,0,0,1,.369.093,2.454,2.454,0,0,1-.038.249c-.035.077-.057.158-.095.24a2.236,2.236,0,0,0-.258-.062,1.342,1.342,0,0,0-.27-.02.774.774,0,0,0-.61.286,1.272,1.272,0,0,0-.185.783,1.109,1.109,0,0,0,.241.761.742.742,0,0,0,.63.227.654.654,0,0,0,.125,0,.425.425,0,0,1,.107-.024Z" transform="translate(146.897 172.717)" fill="#fff"/><path d="M295.349,341.242c.133-.012.253-.027.384-.032a2.88,2.88,0,0,1,.4-.03,2.235,2.235,0,0,1,.422.023,1.029,1.029,0,0,1,.387.148.73.73,0,0,1,.294.31,1.015,1.015,0,0,1,.133.53,1.04,1.04,0,0,1-.09.527.849.849,0,0,1-.273.33.987.987,0,0,1-.37.167,1.593,1.593,0,0,1-.42.06c-.039,0-.069,0-.095,0s-.069,0-.095-.008l.035.965a1.164,1.164,0,0,1-.3.027l-.148.012c-.056-.008-.116-.012-.167-.024Zm.66,1.523a.243.243,0,0,0,.09.008c.026,0,.068,0,.1,0a.576.576,0,0,0,.211-.039.3.3,0,0,0,.17-.09.486.486,0,0,0,.12-.166.631.631,0,0,0,.041-.256.8.8,0,0,0-.053-.264.935.935,0,0,0-.133-.166.453.453,0,0,0-.187-.086.7.7,0,0,0-.208-.023.3.3,0,0,1-.083,0,.947.947,0,0,0-.105.015Z" transform="translate(148.154 172.682)" fill="#fff"/><path d="M297.553,341.179l.158-.027c.056,0,.113,0,.182-.008.054,0,.105,0,.155,0s.108.007.185.02l1.032,2.961a1.381,1.381,0,0,1-.327.042,1.707,1.707,0,0,1-.316-.02l-.185-.593-.993.036-.155.6a.835.835,0,0,1-.288.038,1.379,1.379,0,0,1-.306-.01Zm.727,1.875-.387-1.255-.327,1.274Z" transform="translate(148.836 172.663)" fill="#fff"/><path d="M299.177,342.74a1.409,1.409,0,0,1-.25-.1.714.714,0,0,1-.2-.154,1.342,1.342,0,0,1-.139-.211,1.016,1.016,0,0,1-.047-.3,1.185,1.185,0,0,1,.054-.38.8.8,0,0,1,.206-.279.869.869,0,0,1,.315-.182,1.906,1.906,0,0,1,.813-.044,3.933,3.933,0,0,1,.4.093,1.393,1.393,0,0,1-.13.485,1.1,1.1,0,0,0-.122-.051c-.032-.011-.086-.02-.137-.03a.884.884,0,0,0-.169-.027c-.068,0-.128,0-.206,0a1.071,1.071,0,0,0-.137.017.419.419,0,0,0-.139.05.259.259,0,0,0-.093.1.414.414,0,0,0-.036.175.241.241,0,0,0,.045.133.16.16,0,0,0,.075.092.472.472,0,0,0,.121.066c.032.02.081.036.12.057l.255.08a1.793,1.793,0,0,1,.292.123.537.537,0,0,1,.22.151.7.7,0,0,1,.157.239.91.91,0,0,1,.054.337.9.9,0,0,1-.059.4.808.808,0,0,1-.217.306,1.023,1.023,0,0,1-.348.2,1.483,1.483,0,0,1-.494.1c-.1,0-.173,0-.25-.006s-.131-.009-.2-.02-.133-.024-.194-.039-.133-.042-.2-.066a1.375,1.375,0,0,1,.033-.255,1.7,1.7,0,0,1,.069-.27,1.682,1.682,0,0,0,.334.1,2.082,2.082,0,0,0,.333.023.748.748,0,0,0,.4-.116.336.336,0,0,0,.148-.306.731.731,0,0,0-.032-.167.6.6,0,0,0-.107-.108.368.368,0,0,0-.125-.066.747.747,0,0,0-.146-.054Z" transform="translate(149.765 172.625)" fill="#fff"/><path d="M300.635,342.7a1.973,1.973,0,0,1-.253-.108.657.657,0,0,1-.333-.357,1,1,0,0,1-.056-.3.969.969,0,0,1,.057-.38.935.935,0,0,1,.194-.283,1.289,1.289,0,0,1,.327-.182,1.809,1.809,0,0,1,.417-.069,2.142,2.142,0,0,1,.407.024c.12.026.253.06.39.1a1.609,1.609,0,0,1-.116.48c-.053-.018-.086-.03-.125-.042a.733.733,0,0,0-.145-.042,1.616,1.616,0,0,0-.169-.017,1.1,1.1,0,0,0-.2,0,.492.492,0,0,0-.152.015.343.343,0,0,0-.133.05.26.26,0,0,0-.087.105.316.316,0,0,0-.038.166.327.327,0,0,0,.042.133.155.155,0,0,0,.083.1.551.551,0,0,0,.111.059c.044.02.086.042.126.057l.255.083a2.792,2.792,0,0,1,.289.124.815.815,0,0,1,.242.155.9.9,0,0,1,.133.232.947.947,0,0,1,.069.345.985.985,0,0,1-.069.392.846.846,0,0,1-.218.306.923.923,0,0,1-.352.211,1.548,1.548,0,0,1-.5.087c-.086,0-.164,0-.237,0a2.086,2.086,0,0,1-.208-.023.9.9,0,0,1-.2-.042,1.259,1.259,0,0,1-.206-.066c.009-.078.027-.16.044-.248a2.544,2.544,0,0,1,.066-.267c.128.039.236.065.337.092a1.674,1.674,0,0,0,.333.024.8.8,0,0,0,.417-.108.376.376,0,0,0,.133-.31.313.313,0,0,0-.047-.163.263.263,0,0,0-.092-.108.352.352,0,0,0-.131-.069,1.181,1.181,0,0,0-.152-.063Z" transform="translate(150.498 172.601)" fill="#fff"/><path d="M215.773,346.588l1.712-.057a1.307,1.307,0,0,1,.017.258,1.982,1.982,0,0,1,0,.268l-1.1.03.023.709.875-.032a1.691,1.691,0,0,1,.02.253,1.571,1.571,0,0,1,0,.267l-.877.032.042,1.259a2.506,2.506,0,0,1-.3.033,1.683,1.683,0,0,1-.315-.017Z" transform="translate(107.878 175.392)" fill="#ffe996"/><path d="M217.175,346.534a2.142,2.142,0,0,1,.31-.032,1.442,1.442,0,0,1,.306.02l.1,3a2.478,2.478,0,0,1-.3.039,1.99,1.99,0,0,1-.322-.02Z" transform="translate(108.587 175.377)" fill="#ffe996"/><path d="M217.99,346.528c.131-.027.241-.035.345-.056a2.082,2.082,0,0,1,.366-.021,1.725,1.725,0,0,1,.449.026,1.089,1.089,0,0,1,.41.136.736.736,0,0,1,.3.285.863.863,0,0,1,.134.447,1.016,1.016,0,0,1-.033.3.879.879,0,0,1-.1.229,1.165,1.165,0,0,1-.133.17,1.427,1.427,0,0,1-.143.116l-.072.051.776,1.243-.178.024c-.059,0-.119.011-.188.011-.1.006-.2,0-.315-.006l-.827-1.372.095-.059a.972.972,0,0,0,.142-.077.7.7,0,0,0,.154-.116.917.917,0,0,0,.131-.17.567.567,0,0,0,.05-.245.471.471,0,0,0-.166-.372.55.55,0,0,0-.392-.108.617.617,0,0,0-.17.012l.089,2.538a1.355,1.355,0,0,0-.154.021,1.171,1.171,0,0,1-.145.008.794.794,0,0,1-.146,0,.891.891,0,0,1-.169-.008Z" transform="translate(109 175.348)" fill="#ffe996"/><path d="M220.282,348.058a1.763,1.763,0,0,1-.255-.105.783.783,0,0,1-.2-.146.592.592,0,0,1-.133-.214.977.977,0,0,1-.05-.3.85.85,0,0,1,.069-.38.629.629,0,0,1,.187-.276.927.927,0,0,1,.322-.181,1.606,1.606,0,0,1,.417-.071,1.938,1.938,0,0,1,.4.02,2.16,2.16,0,0,1,.39.1,1.494,1.494,0,0,1-.114.477,1.105,1.105,0,0,0-.128-.039.757.757,0,0,0-.146-.044.916.916,0,0,1-.163-.027c-.062,0-.13,0-.208.008a1.235,1.235,0,0,0-.148.008.473.473,0,0,0-.125.059.253.253,0,0,0-.095.1.4.4,0,0,0-.029.175.562.562,0,0,0,.029.137.281.281,0,0,0,.087.095.62.62,0,0,0,.111.066,1.293,1.293,0,0,1,.128.039l.249.089c.116.051.2.081.3.116a.974.974,0,0,1,.22.164.77.77,0,0,1,.151.24,1.019,1.019,0,0,1,.057.337.966.966,0,0,1-.057.383.838.838,0,0,1-.22.315.86.86,0,0,1-.357.2,1.459,1.459,0,0,1-.488.095l-.249,0a2.005,2.005,0,0,1-.206-.023.717.717,0,0,1-.2-.05,1.2,1.2,0,0,1-.2-.059.938.938,0,0,1,.032-.25c.02-.083.042-.179.066-.277a1.374,1.374,0,0,0,.343.105,1.837,1.837,0,0,0,.322.023.863.863,0,0,0,.414-.108.338.338,0,0,0,.14-.31.4.4,0,0,0-.042-.163.256.256,0,0,0-.095-.111.288.288,0,0,0-.13-.071.829.829,0,0,0-.151-.06Z" transform="translate(109.834 175.317)" fill="#ffe996"/><path d="M221.855,346.905l-.749.027a1.6,1.6,0,0,1-.032-.264,2.2,2.2,0,0,1,.014-.25l2.116-.071a2.469,2.469,0,0,1,.03.25,1.953,1.953,0,0,1-.017.27l-.752.023.089,2.484c-.053.009-.105.012-.152.023s-.1.009-.142.009h-.16a.852.852,0,0,1-.167-.012Z" transform="translate(110.561 175.299)" fill="#ffe996"/><path d="M225.45,348.718a1.605,1.605,0,0,1,.1.235.247.247,0,0,1-.325.369,2.825,2.825,0,0,1-.38.035,1.584,1.584,0,0,1-.618-.1,1.2,1.2,0,0,1-.746-.786,1.747,1.747,0,0,1-.121-.612,2.1,2.1,0,0,1,.069-.619,1.594,1.594,0,0,1,.268-.512,1.217,1.217,0,0,1,.434-.334,1.53,1.53,0,0,1,.6-.143,2.493,2.493,0,0,1,.374.017,1.568,1.568,0,0,1,.369.089.659.659,0,0,1-.042.252,1.275,1.275,0,0,1-.089.236,2.062,2.062,0,0,0-.264-.054.846.846,0,0,0-.255-.017.749.749,0,0,0-.6.283,1.156,1.156,0,0,0-.193.78c.017.669.324,1.011.892,1,.107-.012.2-.023.279-.035s.155-.047.255-.081" transform="translate(111.717 175.25)" fill="#ffe996"/><path d="M225.094,346.272a1.7,1.7,0,0,1,.3-.035,1.642,1.642,0,0,1,.3.02l.083,2.472,1.044-.03a.453.453,0,0,1,.015.128.676.676,0,0,0,.015.127c-.009.041,0,.09-.009.125s0,.093,0,.143l-1.646.054Z" transform="translate(112.595 175.243)" fill="#ffe996"/><path d="M227.211,346.211a1.112,1.112,0,0,0,.167-.026c.045,0,.1-.006.175-.014.057.008.1,0,.161,0a.826.826,0,0,1,.173.017l1.036,2.969a2.253,2.253,0,0,1-.33.038,1.335,1.335,0,0,1-.312-.023l-.19-.586-.987.027-.158.613c-.105.01-.19.03-.285.035a2.935,2.935,0,0,1-.306-.02Zm.727,1.872-.39-1.244-.322,1.276Z" transform="translate(113.235 175.21)" fill="#ffe996"/><path d="M228.835,347.775a2.65,2.65,0,0,1-.25-.108.59.59,0,0,1-.2-.151.668.668,0,0,1-.185-.5.81.81,0,0,1,.065-.386.682.682,0,0,1,.194-.282.966.966,0,0,1,.31-.17,1.587,1.587,0,0,1,.426-.074,2.335,2.335,0,0,1,.4.018,3.962,3.962,0,0,1,.392.1,1.916,1.916,0,0,1-.119.48l-.128-.051a.4.4,0,0,0-.145-.027.449.449,0,0,0-.163-.027,1.063,1.063,0,0,0-.208,0,.443.443,0,0,0-.148.012.409.409,0,0,0-.125.054.21.21,0,0,0-.095.093.28.28,0,0,0-.026.17.243.243,0,0,0,.03.146.246.246,0,0,0,.078.093,1.187,1.187,0,0,0,.116.066c.044.015.086.032.128.042l.245.089c.113.042.212.081.3.116a.811.811,0,0,1,.22.16.867.867,0,0,1,.154.236,1.292,1.292,0,0,1,.065.345,1.04,1.04,0,0,1-.065.387.84.84,0,0,1-.22.306.918.918,0,0,1-.352.206,1.677,1.677,0,0,1-.5.093c-.09,0-.175,0-.249,0s-.143-.012-.2-.015c-.074-.012-.136-.029-.2-.039a1.485,1.485,0,0,0-.206-.071,1.627,1.627,0,0,1,.044-.256,2.568,2.568,0,0,1,.069-.271,1.117,1.117,0,0,0,.34.093,1.038,1.038,0,0,0,.322.024.79.79,0,0,0,.416-.1.38.38,0,0,0,.143-.307.262.262,0,0,0-.042-.166.334.334,0,0,0-.107-.113.246.246,0,0,0-.12-.069c-.053-.02-.095-.042-.151-.057Z" transform="translate(114.159 175.174)" fill="#ffe996"/><path d="M230.291,347.731a2.346,2.346,0,0,1-.255-.113.663.663,0,0,1-.194-.143.642.642,0,0,1-.137-.221,1.069,1.069,0,0,1-.048-.3,1.142,1.142,0,0,1,.053-.383.673.673,0,0,1,.206-.271.823.823,0,0,1,.318-.178,1.5,1.5,0,0,1,.419-.075,1.866,1.866,0,0,1,.4.024,2.7,2.7,0,0,1,.4.092,1.5,1.5,0,0,1-.122.485,1.256,1.256,0,0,0-.128-.047.534.534,0,0,0-.125-.03c-.062-.02-.127-.02-.179-.032s-.131,0-.206,0c-.047,0-.1.012-.146.02a.363.363,0,0,0-.128.047.2.2,0,0,0-.092.105.264.264,0,0,0-.042.163.378.378,0,0,0,.039.146.36.36,0,0,0,.084.093.471.471,0,0,0,.12.066c.032.012.08.027.122.044l.253.087c.113.044.2.081.3.113a1.278,1.278,0,0,1,.221.167.929.929,0,0,1,.151.229,1.129,1.129,0,0,1,.056.345,1.328,1.328,0,0,1-.056.395,1.178,1.178,0,0,1-.223.306.805.805,0,0,1-.358.2,1.33,1.33,0,0,1-.485.092c-.1,0-.17,0-.255,0a.9.9,0,0,1-.2-.012c-.06-.015-.133-.035-.193-.045s-.131-.039-.211-.063c.012-.081.033-.17.044-.252a2.425,2.425,0,0,1,.068-.274,1.992,1.992,0,0,0,.334.1,1.283,1.283,0,0,0,.334.02.808.808,0,0,0,.411-.109.347.347,0,0,0,.139-.3.342.342,0,0,0-.048-.166c-.014-.051-.056-.077-.095-.113a.674.674,0,0,0-.125-.069,1.1,1.1,0,0,0-.149-.059Z" transform="translate(114.896 175.148)" fill="#ffe996"/><path d="M215.6,341.27c.158-.029.343-.059.563-.086s.482-.035.8-.045a4.417,4.417,0,0,1,.788.038,1.907,1.907,0,0,1,.664.218,1.2,1.2,0,0,1,.453.417,1.493,1.493,0,0,1,.184.687,1.382,1.382,0,0,1-.068.449,1.062,1.062,0,0,1-.178.38,1.121,1.121,0,0,1-.259.261.825.825,0,0,1-.313.139,1.636,1.636,0,0,1,.4.1,1.432,1.432,0,0,1,.4.235,1.168,1.168,0,0,1,.318.413,1.525,1.525,0,0,1,.152.618,1.719,1.719,0,0,1-.164.821,1.412,1.412,0,0,1-.491.515,2.559,2.559,0,0,1-.724.279,5.24,5.24,0,0,1-.866.1c-.238.009-.464.006-.691,0s-.493-.012-.786-.039Zm1.512,2.173a1.979,1.979,0,0,0,.355-.045.963.963,0,0,0,.285-.128.634.634,0,0,0,.181-.252,1,1,0,0,0-.039-.738.567.567,0,0,0-.2-.2.651.651,0,0,0-.291-.1,1.832,1.832,0,0,0-.31-.018,1.863,1.863,0,0,0-.364.038l.054,1.461Zm-.261,2.438c.078.008.167.011.247.015.1,0,.19,0,.274-.008a1.824,1.824,0,0,0,.331-.035,1.028,1.028,0,0,0,.315-.136.635.635,0,0,0,.244-.248.751.751,0,0,0,.084-.407.9.9,0,0,0-.084-.395.586.586,0,0,0-.227-.249.9.9,0,0,0-.337-.116,2.166,2.166,0,0,0-.432-.027l-.464.006Z" transform="translate(107.787 172.661)" fill="#fff"/><path d="M221.079,346.684a2.549,2.549,0,0,1-1.071-.179,2.021,2.021,0,0,1-.75-.569,2.277,2.277,0,0,1-.461-.881,3.549,3.549,0,0,1-.182-1.115,4.065,4.065,0,0,1,.1-1.14,2.556,2.556,0,0,1,.4-.907,1.961,1.961,0,0,1,.714-.628,2.543,2.543,0,0,1,1.065-.247,2.456,2.456,0,0,1,1.077.178,1.964,1.964,0,0,1,.761.569,2.657,2.657,0,0,1,.464.89,4.4,4.4,0,0,1,.166,1.121,4.669,4.669,0,0,1-.09,1.131,2.49,2.49,0,0,1-.413.907,1.942,1.942,0,0,1-.708.617,2.515,2.515,0,0,1-1.071.253m-.026-.935c.788-.027,1.161-.666,1.125-1.931a2.839,2.839,0,0,0-.34-1.405.981.981,0,0,0-.9-.45c-.8.032-1.178.675-1.136,1.935s.461,1.883,1.253,1.851" transform="translate(109.313 172.6)" fill="#fff"/><path d="M223.559,341c.113-.024.211-.035.306-.047a2.664,2.664,0,0,1,.331-.018,2.112,2.112,0,0,1,.3,0c.1,0,.191.015.313.023l1.9,5.43a4.417,4.417,0,0,1-1.176.044l-.339-1.1-1.818.063-.279,1.1a3.641,3.641,0,0,1-.523.066,4.075,4.075,0,0,1-.559-.023Zm1.339,3.419-.706-2.288-.589,2.333Z" transform="translate(111.034 172.558)" fill="#fff"/><path d="M225.45,340.944c.212-.035.432-.066.633-.09.184-.015.405-.035.643-.041a4.042,4.042,0,0,1,.827.045,2.41,2.41,0,0,1,.746.244,1.652,1.652,0,0,1,.55.512,1.614,1.614,0,0,1,.224.833,1.492,1.492,0,0,1-.059.535,1.144,1.144,0,0,1-.182.422,1.588,1.588,0,0,1-.244.319,1.813,1.813,0,0,1-.252.2l-.128.086,1.419,2.271-.316.045c-.116.012-.233.015-.349.021a3.1,3.1,0,0,1-.569-.029l-1.52-2.484.172-.108c.074-.039.157-.086.262-.148a1.114,1.114,0,0,0,.28-.214,1.136,1.136,0,0,0,.238-.316.794.794,0,0,0,.078-.426.857.857,0,0,0-.289-.7,1.087,1.087,0,0,0-.714-.194,1.722,1.722,0,0,0-.315.036l.154,4.627c-.08.011-.181.018-.265.038-.1,0-.185.008-.273.008s-.173.008-.271.008a2.686,2.686,0,0,1-.294-.018Z" transform="translate(112.775 172.495)" fill="#fff"/><path d="M228.516,340.846c.218-.032.438-.059.678-.095.23-.02.489-.038.773-.045a3.076,3.076,0,0,1,2.22.643,2.825,2.825,0,0,1,.818,2.119,2.683,2.683,0,0,1-.685,2.148,3.325,3.325,0,0,1-2.244.759c-.259,0-.5,0-.718,0s-.437-.029-.655-.051Zm1.279,4.556c.056,0,.113.012.173.012s.158,0,.262,0a2.011,2.011,0,0,0,.646-.1,1.1,1.1,0,0,0,.52-.313,1.367,1.367,0,0,0,.328-.581,2.793,2.793,0,0,0,.095-.926,2.682,2.682,0,0,0-.155-.905,1.48,1.48,0,0,0-.368-.571,1.238,1.238,0,0,0-.526-.283,1.963,1.963,0,0,0-.613-.071c-.06.009-.146.009-.238.017a1.018,1.018,0,0,0-.242.029Z" transform="translate(114.327 172.442)" fill="#fff"/><path d="M232.047,340.7a3.535,3.535,0,0,1,.562-.063,4.5,4.5,0,0,1,.562.032l.178,5.476c-.19.035-.375.057-.547.074-.193,0-.383-.012-.569-.035Z" transform="translate(116.114 172.408)" fill="#fff"/><path d="M233.5,340.685a2.236,2.236,0,0,1,.443-.062,2.745,2.745,0,0,1,.479.035l2.231,3.41-.114-3.487a3.079,3.079,0,0,1,.532-.057,2.123,2.123,0,0,1,.449.027l.184,5.487a3.462,3.462,0,0,1-.443.057,3.911,3.911,0,0,1-.468-.032l-2.244-3.408.113,3.488a4.437,4.437,0,0,1-.49.053,2.214,2.214,0,0,1-.486-.03Z" transform="translate(116.851 172.35)" fill="#fff"/><path d="M240,343.114a3.763,3.763,0,0,1,.554-.066,5.458,5.458,0,0,1,.551.024l.092,2.688a3.506,3.506,0,0,1-.816.23,6.26,6.26,0,0,1-.756.075,3.066,3.066,0,0,1-1.185-.169,2.418,2.418,0,0,1-.854-.562,2.354,2.354,0,0,1-.529-.88,3.789,3.789,0,0,1-.206-1.121,3.282,3.282,0,0,1,.143-1.139,2.408,2.408,0,0,1,.471-.916,2.092,2.092,0,0,1,.8-.623,2.657,2.657,0,0,1,1.089-.256,6,6,0,0,1,.688.027,2.8,2.8,0,0,1,.669.167,2.091,2.091,0,0,1-.083.449c-.047.145-.092.291-.151.446a3.533,3.533,0,0,0-.479-.12,2.946,2.946,0,0,0-.49-.015,1.381,1.381,0,0,0-1.112.512,2.124,2.124,0,0,0-.328,1.422,2.1,2.1,0,0,0,.423,1.392,1.424,1.424,0,0,0,1.16.422,1.57,1.57,0,0,0,.232-.023c.075-.012.12-.027.179-.036Z" transform="translate(118.543 172.289)" fill="#fff"/><path d="M241.381,340.392c.23-.03.458-.045.7-.069a7.09,7.09,0,0,1,.724-.042,2.929,2.929,0,0,1,.78.047,1.685,1.685,0,0,1,.708.267,1.511,1.511,0,0,1,.542.559,2.152,2.152,0,0,1,.232.959,2.019,2.019,0,0,1-.17.973,1.5,1.5,0,0,1-.491.6,1.974,1.974,0,0,1-.685.319,4.117,4.117,0,0,1-.753.1,1.439,1.439,0,0,1-.2,0c-.06,0-.107,0-.16,0l.057,1.759a1.207,1.207,0,0,1-.279.032.98.98,0,0,1-.262.02c-.08.008-.176,0-.274,0a1.743,1.743,0,0,1-.291-.017Zm1.2,2.786c.065.008.117,0,.173.008s.119-.008.188-.015a1.216,1.216,0,0,0,.377-.059.718.718,0,0,0,.318-.17.748.748,0,0,0,.217-.3,1.272,1.272,0,0,0,.068-.459,1.241,1.241,0,0,0-.1-.479.873.873,0,0,0-.238-.31.785.785,0,0,0-.327-.152,1.035,1.035,0,0,0-.38-.035.718.718,0,0,0-.154.008,2.039,2.039,0,0,0-.206.02Z" transform="translate(120.839 172.224)" fill="#fff"/><path d="M245.386,340.275c.11-.018.209-.032.31-.045s.2-.017.319-.023h.3c.1.01.2.018.324.03l1.9,5.425a4.965,4.965,0,0,1-.621.057,3.685,3.685,0,0,1-.56-.018l-.337-1.1-1.824.066-.273,1.113a3.611,3.611,0,0,1-.529.057,3.856,3.856,0,0,1-.557-.026Zm1.337,3.419-.708-2.283-.584,2.321Z" transform="translate(122.081 172.191)" fill="#fff"/><path d="M248.367,343.125a3.666,3.666,0,0,1-.477-.193,1.616,1.616,0,0,1-.351-.273,1.094,1.094,0,0,1-.241-.387,1.861,1.861,0,0,1-.105-.542,1.569,1.569,0,0,1,.116-.685,1.33,1.33,0,0,1,.369-.517,1.555,1.555,0,0,1,.565-.328,2.929,2.929,0,0,1,.771-.123,3.586,3.586,0,0,1,.732.038,5.912,5.912,0,0,1,.717.178,2.628,2.628,0,0,1-.212.877c-.078-.027-.157-.051-.236-.084a1.232,1.232,0,0,0-.251-.066,1.607,1.607,0,0,0-.3-.035,1.926,1.926,0,0,0-.38-.017,2.526,2.526,0,0,0-.27.038,1.419,1.419,0,0,0-.247.086.721.721,0,0,0-.16.187.62.62,0,0,0-.059.313.436.436,0,0,0,.068.249.39.39,0,0,0,.151.178.91.91,0,0,0,.2.116c.083.032.152.059.232.086l.459.163a5.281,5.281,0,0,1,.542.218,1.568,1.568,0,0,1,.41.282,1.355,1.355,0,0,1,.267.431,1.921,1.921,0,0,1,.108.624,1.574,1.574,0,0,1-.116.7,1.392,1.392,0,0,1-.386.574,2.158,2.158,0,0,1-.643.381,2.868,2.868,0,0,1-.905.166c-.169,0-.316,0-.44-.011a1.333,1.333,0,0,1-.4-.039c-.113-.024-.233-.041-.349-.075a2.154,2.154,0,0,1-.37-.12,2.518,2.518,0,0,1,.069-.461,3.9,3.9,0,0,1,.131-.484,4.748,4.748,0,0,0,.605.175,2.56,2.56,0,0,0,.6.039,1.372,1.372,0,0,0,.756-.2.6.6,0,0,0,.255-.551.478.478,0,0,0-.077-.306.6.6,0,0,0-.164-.2,1.609,1.609,0,0,0-.247-.133c-.089-.027-.175-.066-.268-.1Z" transform="translate(123.775 172.123)" fill="#fff"/><path d="M251.029,343.046a2.767,2.767,0,0,1-.473-.2,1.652,1.652,0,0,1-.361-.276,1.237,1.237,0,0,1-.246-.38,1.729,1.729,0,0,1-.095-.551,1.649,1.649,0,0,1,.111-.693,1.33,1.33,0,0,1,.361-.5,1.494,1.494,0,0,1,.58-.328,3.12,3.12,0,0,1,.761-.137,4.412,4.412,0,0,1,.727.048,5.694,5.694,0,0,1,.729.178,3.023,3.023,0,0,1-.212.88c-.09-.027-.167-.059-.249-.089s-.157-.047-.247-.071-.194-.026-.306-.035a2.479,2.479,0,0,0-.374-.008,1.062,1.062,0,0,0-.271.035.76.76,0,0,0-.232.089.415.415,0,0,0-.164.187.534.534,0,0,0-.066.318.8.8,0,0,0,.057.249.752.752,0,0,0,.149.17.688.688,0,0,0,.217.1c.086.039.155.074.233.1l.461.158a5.507,5.507,0,0,1,.533.217,1.688,1.688,0,0,1,.413.286,1.251,1.251,0,0,1,.267.428,1.767,1.767,0,0,1,.116.631,1.841,1.841,0,0,1-.12.7,1.528,1.528,0,0,1-.386.569,1.845,1.845,0,0,1-.652.375,2.734,2.734,0,0,1-.895.164c-.172,0-.322,0-.452,0s-.262-.02-.38-.035-.243-.044-.354-.074-.241-.072-.369-.12a2.259,2.259,0,0,1,.063-.468,4.864,4.864,0,0,1,.13-.485,4.142,4.142,0,0,0,.608.175,2.537,2.537,0,0,0,.6.044,1.381,1.381,0,0,0,.749-.2.7.7,0,0,0,.181-.86.749.749,0,0,0-.179-.2,1.012,1.012,0,0,0-.224-.131c-.1-.03-.19-.069-.273-.1Z" transform="translate(125.121 172.075)" fill="#fff"/><rect width="14.839" height="1.199" transform="matrix(0.999, -0.033, 0.033, 0.999, 379.721, 592.378)" fill="#8c8c8c"/><rect width="14.845" height="2.618" transform="translate(379.532 586.727) rotate(-1.912)" fill="#8c8c8c"/><rect width="14.841" height="1.608" transform="matrix(0.999, -0.034, 0.034, 0.999, 379.037, 571.903)" fill="#8c8c8c"/><path d="M252.867,389.558l14.828-.493-.038-1.34-14.831.5Z" transform="translate(126.632 196.241)" fill="#8c8c8c"/><rect width="14.843" height="1.794" transform="translate(379.382 582.276) rotate(-1.913)" fill="#8c8c8c"/><rect width="14.844" height="2.045" transform="matrix(0.999, -0.033, 0.033, 0.999, 379.17, 575.973)" fill="#8c8c8c"/><path d="M252.637,382.53l14.834-.5-.035-.922-14.831.487Z" transform="translate(126.52 192.893)" fill="#8c8c8c"/><rect width="14.841" height="1.872" transform="translate(379.294 579.559) rotate(-1.931)" fill="#8c8c8c"/><rect width="14.841" height="1.174" transform="translate(379.647 590.062) rotate(-1.914)" fill="#8c8c8c"/><rect width="14.845" height="1.3" transform="translate(378.082 543.367) rotate(-1.913)" fill="#8c8c8c"/><path d="M252,363.58l14.837-.5-.032-.917-14.84.483Z" transform="translate(126.198 183.306)" fill="#8c8c8c"/><rect width="14.844" height="1.678" transform="translate(377.978 540.153) rotate(-1.884)" fill="#8c8c8c"/><path d="M251.824,358.413l14.841-.491-.026-.929-14.843.5Z" transform="translate(126.11 180.687)" fill="#8c8c8c"/><rect width="14.85" height="1.606" transform="translate(378.924 568.622) rotate(-1.9)" fill="#8c8c8c"/><rect width="14.85" height="2.255" transform="translate(377.819 535.622) rotate(-1.912)" fill="#8c8c8c"/><rect width="14.847" height="0.925" transform="translate(377.732 532.987) rotate(-1.901)" fill="#8c8c8c"/><rect width="14.845" height="1.787" transform="translate(378.57 558.071) rotate(-1.918)" fill="#8c8c8c"/><rect width="14.843" height="2.039" transform="translate(378.776 564.124) rotate(-1.942)" fill="#8c8c8c"/><rect width="14.838" height="1.869" transform="translate(378.664 560.705) rotate(-1.914)" fill="#8c8c8c"/><path d="M252.456,377.366l14.847-.5-.035-.922-14.84.5Z" transform="translate(126.431 190.277)" fill="#8c8c8c"/><path d="M252.115,367.107l14.843-.491-.045-1.172-14.832.5Z" transform="translate(126.254 184.964)" fill="#8c8c8c"/><path d="M252.064,365.574l14.838-.491-.042-1.2-14.834.487Z" transform="translate(126.227 184.176)" fill="#8c8c8c"/><rect width="14.848" height="1.337" transform="matrix(0.999, -0.034, 0.034, 0.999, 378.513, 556.339)" fill="#8c8c8c"/><path d="M252.2,369.8l14.84-.491-.081-2.6-14.835.5Z" transform="translate(126.276 185.606)" fill="#8c8c8c"/><rect width="46.746" height="5.6" transform="translate(404.619 536.567) rotate(-1.911)" fill="#acb6cc"/><rect width="46.744" height="5.601" transform="translate(404.992 547.736) rotate(-1.913)" fill="#acb6cc"/><rect width="46.744" height="5.601" transform="translate(405.366 558.901) rotate(-1.915)" fill="#acb6cc"/><rect width="46.744" height="5.601" transform="matrix(0.999, -0.034, 0.034, 0.999, 405.733, 570.075)" fill="#acb6cc"/><rect width="46.74" height="5.597" transform="translate(406.109 581.234) rotate(-1.904)" fill="#acb6cc"/><rect width="47.906" height="5.598" transform="translate(260.895 541.364) rotate(-1.917)" fill="#bac1cf"/><rect width="24.139" height="5.598" transform="translate(314.203 539.583) rotate(-1.902)" fill="#bac1cf"/><rect width="27.768" height="5.601" transform="translate(344.361 538.575) rotate(-1.909)" fill="#bac1cf"/><rect width="47.985" height="5.6" transform="matrix(0.999, -0.033, 0.033, 0.999, 261.265, 552.528)" fill="#bac1cf"/><path d="M268.274,369.992l-59.191,1.973-.191-5.6,59.2-1.976Z" transform="translate(104.395 184.428)" fill="#bac1cf"/><rect width="53.66" height="5.6" transform="translate(261.631 563.696) rotate(-1.916)" fill="#bac1cf"/><rect width="53.658" height="5.603" transform="translate(319.229 561.772) rotate(-1.909)" fill="#bac1cf"/><rect width="53.654" height="5.599" transform="translate(262.007 574.863) rotate(-1.909)" fill="#bac1cf"/><path d="M266.9,384.818,213.269,386.6l-.184-5.588,53.627-1.791Z" transform="translate(106.517 191.936)" fill="#bac1cf"/><rect width="53.661" height="5.595" transform="translate(262.378 586.031) rotate(-1.912)" fill="#bac1cf"/><rect width="53.657" height="5.601" transform="matrix(0.999, -0.033, 0.033, 0.999, 319.972, 584.104)" fill="#bac1cf"/><path d="M268.207,419.269l-.642.014-.069-1.865.654-.018Zm-.126-3.734-.639.024-.066-1.862.651-.018Zm-.116-3.723-.654.014-.054-1.856.639-.02Zm-.121-3.725-.654.024-.059-1.871.648-.018Zm-.134-3.732-.643.03-.059-1.866.643-.017Zm-.12-3.716-.652.015-.057-1.862.646-.023Zm-.128-3.729-.642.02-.068-1.865.652-.018Zm-.12-3.732-.651.024-.06-1.856.654-.029Zm-.125-3.716-.643.015-.06-1.863.643-.023Zm-.117-3.74-.654.03-.062-1.863.643-.023Zm-.131-3.716-.651.023-.057-1.868.643-.024Zm-.122-3.732-.649.027-.062-1.865.643-.023Zm-.128-3.722-.64.021-.071-1.869.654-.015Zm-.121-3.723-.648.018-.063-1.859.645-.027Zm-.125-3.728-.655.024-.057-1.871.648-.014Zm-.122-3.729-.649.02-.065-1.859.651-.017Zm-.133-3.719-.643.018-.059-1.86.645-.029Zm-.116-3.729-.657.02-.059-1.868.649-.02Zm-.13-3.728-.646.027-.062-1.877.648-.015Z" transform="translate(132.927 177.316)" fill="#595959"/><path d="M266.059,354.731l-.645.02-.062-1.86.643-.023ZM265.934,351l-.646.023-.063-1.86.649-.023Zm-.119-3.728-.652.023-.063-1.86.648-.02Zm-.133-3.723-.64.026-.065-1.86.645-.024Zm-.117-3.729-.658.02-.056-1.862.649-.021Z" transform="translate(132.718 171.054)" fill="#eff3f4"/><rect width="48.074" height="0.407" transform="matrix(0.999, -0.033, 0.033, 0.999, 258.949, 515.918)" fill="#fff"/><path d="M222.172,343.674l-49.282,1.648-.012-.411,49.273-1.643Z" transform="translate(86.167 173.74)" fill="#fff"/><path d="M217.517,345.593l-44.568,1.488-.012-.411L217.5,345.19Z" transform="translate(86.197 174.713)" fill="#fff"/><path d="M222.29,347.3l-49.282,1.646-.011-.407L222.28,346.9Z" transform="translate(86.227 175.578)" fill="#fff"/><path d="M221.117,349.144l-48.044,1.606-.017-.4,48.04-1.605Z" transform="translate(86.257 176.51)" fill="#fff"/><path d="M214.133,346.218l-2.545.081-.783-1.066.175.012.616-.024.119-.035-.027-.682-.119-.035-.608.02-.636.093-2.428-3.3-.467.014,1.652,4.039.032,1.041-1.676.059-1.461.233-.291.059-1.443-1.509-.488.017.78,1.759-.556.128.009.166v.175l.569.093-.66,1.806.485-.015,1.339-1.6.289.05,1.473.123,1.681-.057.038,1.051-1.377,4.134.459-.017,2.2-3.448.645.05.612-.02.122-.042-.023-.682-.128-.039-.608.027-.178.024.717-1.116,2.539-.09c.324-.01,1.009-.456,1-.777s-.732-.714-1.054-.7" transform="translate(101.794 172.737)" fill="#fff"/><rect width="4.023" height="4.023" transform="translate(140.92 219.648) rotate(-45)" fill="#99e4ff"/><rect width="2.134" height="2.134" transform="translate(30.293 214.236) rotate(-45)" fill="#99e4ff"/><rect width="2.968" height="2.968" transform="translate(81.133 224.999) rotate(-45.041)" fill="#99e4ff"/><rect width="3.426" height="3.426" transform="translate(230 211.53) rotate(-45)" fill="#99e4ff"/><rect width="3.326" height="3.326" transform="translate(205.702 251.848) rotate(-45)" fill="#99e4ff"/><rect width="3.054" height="3.054" transform="matrix(0.707, -0.707, 0.707, 0.707, 266.268, 236.954)" fill="#99e4ff"/><rect width="3.642" height="3.642" transform="translate(185.851 231.133) rotate(-45)" fill="#99e4ff"/><path d="M248.677,146.319l-1.441,1.441-1.438-1.441,1.438-1.438Z" transform="translate(123.074 73.329)" fill="#99e4ff"/><rect width="1.749" height="1.749" transform="matrix(0.707, -0.707, 0.707, 0.707, 304.03, 216.943)" fill="#99e4ff"/><rect width="3.139" height="3.139" transform="translate(332.056 260.166) rotate(-45)" fill="#99e4ff"/><rect width="3.491" height="3.491" transform="translate(334.438 234.248) rotate(-45)" fill="#99e4ff"/><rect width="4.499" height="4.499" transform="translate(18.746 251.849) rotate(-45)" fill="#99e4ff"/><rect width="3.02" height="3.02" transform="matrix(0.707, -0.707, 0.707, 0.707, 105.741, 206.117)" fill="#99e4ff"/><rect width="3.692" height="3.692" transform="translate(390.142 248.56) rotate(-44.967)" fill="#99e4ff"/><rect width="2.535" height="2.535" transform="translate(417.942 208.825) rotate(-45.048)" fill="#99e4ff"/><rect width="2.602" height="2.602" transform="translate(433.99 249.142) rotate(-45)" fill="#99e4ff"/><rect width="4.516" height="4.516" transform="translate(471.341 214.236) rotate(-45)" fill="#99e4ff"/><rect width="1.558" height="1.558" transform="translate(664.031 228.429) rotate(-45.079)" fill="#99e4ff"/><rect width="3.942" height="3.942" transform="translate(610.974 206.119) rotate(-45.031)" fill="#99e4ff"/><rect width="3.543" height="3.543" transform="translate(534.07 206.117) rotate(-45)" fill="#99e4ff"/><rect width="1.651" height="1.651" transform="translate(567.254 216.942) rotate(-45)" fill="#99e4ff"/><rect width="2.816" height="2.816" transform="translate(502.732 234.248) rotate(-45)" fill="#99e4ff"/><rect width="2.198" height="2.198" transform="translate(572.137 249.142) rotate(-45)" fill="#99e4ff"/><path d="M227.781,139l-1.056,1.056L225.672,139l1.053-1.053Z" transform="translate(112.888 69.821)" fill="#99e4ff"/><rect width="3.088" height="3.088" transform="translate(264.846 211.532) rotate(-45.04)" fill="#99e4ff"/><rect width="1.554" height="1.554" transform="translate(233.104 239.66) rotate(-45)" fill="#99e4ff"/><path d="M124.146,137.269l-1.247,1.247-1.244-1.247,1.244-1.244Z" transform="translate(60.241 68.847)" fill="#99e4ff"/><rect width="3.969" height="3.969" transform="matrix(0.707, -0.707, 0.707, 0.707, 59.366, 208.823)" fill="#99e4ff"/><rect width="4.3" height="4.3" transform="translate(6.922 225.722) rotate(-45.029)" fill="#99e4ff"/><rect width="3.191" height="3.191" transform="translate(42.654 236.942) rotate(-45)" fill="#99e4ff"/><rect width="4.464" height="4.464" transform="translate(135.97 242.367) rotate(-45)" fill="#99e4ff"/><rect width="2.469" height="2.469" transform="translate(110.467 228.429) rotate(-45.049)" fill="#99e4ff"/><rect width="2.743" height="2.743" transform="translate(304.35 246.436) rotate(-45)" fill="#99e4ff"/><rect width="2.652" height="2.652" transform="matrix(0.707, -0.708, 0.708, 0.707, 397.497, 227.705)" fill="#99e4ff"/><rect width="2.895" height="2.895" transform="translate(358.766 245.073) rotate(-45)" fill="#99e4ff"/><rect width="2.739" height="2.739" transform="translate(498.81 206.117) rotate(-45)" fill="#99e4ff"/><rect width="2.157" height="2.157" transform="translate(646.316 206.117) rotate(-45)" fill="#99e4ff"/></g></g></g></svg>