<svg xmlns="http://www.w3.org/2000/svg" width="351.248" height="86.85" viewBox="0 0 351.248 86.85">
  <g id="Group_233" data-name="Group 233" transform="translate(-34.721 -36.807)">
    <g id="Group_237" data-name="Group 237" transform="translate(34.721 28.829)">
      <g id="Group_233-2" data-name="Group 233" transform="translate(0 7.978)">
        <path id="Path_2652" data-name="Path 2652" d="M90.419,66.764l-9.349-9.35a2.041,2.041,0,0,0-1.443-.6H66.313A2.04,2.04,0,0,0,64.872,60.3L80.879,76.3a2.043,2.043,0,0,1,0,2.886l-2.349,2.348a2.038,2.038,0,0,1-2.884,0L51.521,57.414a2.04,2.04,0,0,0-1.441-.6H36.764A2.04,2.04,0,0,0,35.323,60.3L67.546,92.523l2.228,2.228a10.344,10.344,0,0,0,14.626,0l2.23-2.228,5.232-5.233,9.542-9.542L118.853,60.3a2.04,2.04,0,0,0-1.443-3.482H104.1a2.041,2.041,0,0,0-1.443.6L93.3,66.764A2.043,2.043,0,0,1,90.419,66.764Z" transform="translate(-34.721 -10.93)" fill="#3e1d5f"/>
        <path id="Path_2653" data-name="Path 2653" d="M63.755,59.844l9.349,9.35a2.041,2.041,0,0,0,1.443.6H87.861A2.04,2.04,0,0,0,89.3,66.309L73.3,50.3a2.038,2.038,0,0,1,0-2.884l2.348-2.348a2.038,2.038,0,0,1,2.884,0l24.124,24.124a2.041,2.041,0,0,0,1.443.6h13.315a2.04,2.04,0,0,0,1.443-3.482L86.63,34.085,84.4,31.857a10.344,10.344,0,0,0-14.626,0l-2.228,2.228-5.233,5.233-9.542,9.542L35.323,66.309a2.04,2.04,0,0,0,1.441,3.482H50.08a2.04,2.04,0,0,0,1.441-.6l9.349-9.35A2.043,2.043,0,0,1,63.755,59.844Z" transform="translate(-34.721 -28.829)" fill="#3e1d5f"/>
      </g>
      <g id="Group_236" data-name="Group 236" transform="translate(94.248 26.721)">
        <g id="Group_235" data-name="Group 235">
          <g id="Group_234" data-name="Group 234">
            <text id="Future_Forex" data-name="Future Forex" transform="translate(0 40)" fill="#3e1d5f" font-size="43" font-family="Raleway-SemiBold, Raleway" font-weight="600"><tspan x="0" y="0">Future Forex</tspan></text>
          </g>
        </g>
      </g>
    </g>
  </g>
</svg>
