<svg xmlns="http://www.w3.org/2000/svg" xmlns:xlink="http://www.w3.org/1999/xlink" width="364.173" height="84.968" viewBox="0 0 364.173 84.968"><defs><clipPath id="a"><rect width="364.173" height="84.968" fill="#fff"/></clipPath></defs><g transform="translate(-18 91)"><g transform="translate(18 -91)"><g clip-path="url(#a)"><path d="M52.278,86.342,43.5,77.2a1.876,1.876,0,0,0-1.354-.584h-12.5A2.007,2.007,0,0,0,28.3,80.018l15.023,15.66a2.055,2.055,0,0,1,0,2.822l-2.2,2.3a1.86,1.86,0,0,1-2.707,0L15.769,77.2a1.876,1.876,0,0,0-1.354-.584H1.918A2.007,2.007,0,0,0,.564,80.018l30.244,31.525,2.091,2.18a9.432,9.432,0,0,0,13.729,0l2.092-2.18,4.911-5.119,8.956-9.335L78.965,80.018a2.007,2.007,0,0,0-1.354-3.406h-12.5a1.874,1.874,0,0,0-1.354.584l-8.775,9.146a1.859,1.859,0,0,1-2.707,0" transform="translate(0 -31.718)" fill="#fff"/><path d="M27.251,30.344l8.775,9.146a1.876,1.876,0,0,0,1.354.584h12.5a2.007,2.007,0,0,0,1.354-3.406L36.208,21.009a2.055,2.055,0,0,1,0-2.822l2.2-2.3a1.861,1.861,0,0,1,2.707,0L63.76,39.49a1.876,1.876,0,0,0,1.354.584h12.5a2.007,2.007,0,0,0,1.354-3.406L48.721,5.144l-2.091-2.18a9.432,9.432,0,0,0-13.729,0l-2.092,2.18L25.9,10.263,16.942,19.6.565,36.669a2.007,2.007,0,0,0,1.354,3.406h12.5a1.874,1.874,0,0,0,1.354-.584l8.775-9.146a1.859,1.859,0,0,1,2.707,0" transform="translate(0 0)" fill="#fff"/><path d="M172.889,39.433v-7.3L170,37.673h-.914l-2.892-5.539v7.3h-1.563V29.191h1.661l3.252,6.247,3.252-6.247h1.661V39.433Z" transform="translate(-72.076 -12.085)" fill="#fff"/><path d="M189.628,39.454a4.141,4.141,0,0,1-1.9-.433,4.688,4.688,0,0,1-1.488-1.175,5.467,5.467,0,0,1-.969-1.674,5.542,5.542,0,0,1-.339-1.911,5.376,5.376,0,0,1,.36-1.955,5.446,5.446,0,0,1,1-1.659,4.918,4.918,0,0,1,1.495-1.154,4.144,4.144,0,0,1,1.875-.426,4.068,4.068,0,0,1,1.916.447,4.818,4.818,0,0,1,1.474,1.2A5.613,5.613,0,0,1,194,36.23a5.225,5.225,0,0,1-.989,1.659,4.779,4.779,0,0,1-1.495,1.147,4.215,4.215,0,0,1-1.889.419m-3.1-5.194a4.575,4.575,0,0,0,.215,1.406,3.839,3.839,0,0,0,.623,1.2,2.988,2.988,0,0,0,.982.83,2.768,2.768,0,0,0,1.308.3,2.731,2.731,0,0,0,1.329-.318,3,3,0,0,0,.983-.859,4.013,4.013,0,0,0,.609-1.2,4.509,4.509,0,0,0,.207-1.355,4.41,4.41,0,0,0-.222-1.4,3.9,3.9,0,0,0-.636-1.19,3.087,3.087,0,0,0-.989-.83,2.916,2.916,0,0,0-2.616.014,3.062,3.062,0,0,0-.975.853,3.912,3.912,0,0,0-.609,1.2,4.5,4.5,0,0,0-.208,1.355" transform="translate(-80.968 -12.034)" fill="#fff"/><path d="M206.12,32.191v7.242h-1.563V29.19h1.273l5.564,7.4V29.205h1.551V39.433H211.6Z" transform="translate(-89.558 -12.085)" fill="#fff"/><path d="M230.179,38v1.429h-6.74V29.19h6.615v1.429H225v2.929h4.388v1.327H225V38Z" transform="translate(-97.825 -12.085)" fill="#fff"/><path d="M238.238,29.19l2.713,5.092,2.74-5.092h1.7l-3.668,6.593v3.65h-1.55V35.755l-3.64-6.564Z" transform="translate(-103.559 -12.085)" fill="#fff"/><path d="M163.979,89.753V55.445H185.86v4.783H169.217V70.473h13.955v4.445H169.217V89.753Z" transform="translate(-71.792 -22.955)" fill="#fff"/><path d="M207.932,86.542V71.2h5.1V85.464a8.854,8.854,0,0,0,1.183,5.052,3.94,3.94,0,0,0,3.454,1.7,6.73,6.73,0,0,0,2.8-.619,7.874,7.874,0,0,0,2.5-1.835,9.451,9.451,0,0,0,1.832-2.931V71.2h5.1V90.3a2.024,2.024,0,0,0,.324,1.269,1.4,1.4,0,0,0,1.066.455v4.252a10.123,10.123,0,0,1-1.321.169q-.534.024-.9.073a3.793,3.793,0,0,1-2.365-.816,2.932,2.932,0,0,1-1.066-2.015l-.093-2.444a10.991,10.991,0,0,1-4.2,4.077,11.717,11.717,0,0,1-5.726,1.438,6.742,6.742,0,0,1-5.748-2.589q-1.947-2.589-1.947-7.626" transform="translate(-91.036 -29.476)" fill="#fff"/><path d="M270.419,89.194q-.6.291-1.623.7a15.981,15.981,0,0,1-2.225.7,10.67,10.67,0,0,1-2.5.29,7.081,7.081,0,0,1-2.921-.6,4.909,4.909,0,0,1-2.155-1.852,5.824,5.824,0,0,1-.812-3.224V69.43h-3.245V65.324h3.245V57.012h5.1v8.312h5.285V69.43H263.28v14.03a2.677,2.677,0,0,0,.811,1.921,2.622,2.622,0,0,0,1.785.625,5.36,5.36,0,0,0,2.063-.411q1-.41,1.368-.6Z" transform="translate(-111.614 -23.604)" fill="#fff"/><path d="M288.331,86.542V71.2h5.1V85.464a8.854,8.854,0,0,0,1.183,5.052,3.94,3.94,0,0,0,3.453,1.7,6.73,6.73,0,0,0,2.8-.619,7.874,7.874,0,0,0,2.5-1.835,9.45,9.45,0,0,0,1.832-2.931V71.2h5.1V90.3a2.024,2.024,0,0,0,.324,1.269,1.4,1.4,0,0,0,1.066.455v4.252a10.123,10.123,0,0,1-1.321.169q-.534.024-.9.073a3.793,3.793,0,0,1-2.365-.816,2.932,2.932,0,0,1-1.066-2.015l-.093-2.444a10.99,10.99,0,0,1-4.2,4.077,11.717,11.717,0,0,1-5.726,1.438,6.742,6.742,0,0,1-5.748-2.589q-1.947-2.589-1.947-7.626" transform="translate(-126.236 -29.476)" fill="#fff"/><path d="M352.545,75.285a10.428,10.428,0,0,0-5.215,1.4,7.53,7.53,0,0,0-3.269,3.817V95.967h-5.1V70.888h4.682V76.3a11.893,11.893,0,0,1,3.338-4.131,7.758,7.758,0,0,1,4.265-1.716h.812a2.022,2.022,0,0,1,.486.048Z" transform="translate(-148.403 -29.168)" fill="#fff"/><path d="M378.821,96.484a11.971,11.971,0,0,1-9.087-3.86,12.845,12.845,0,0,1-2.573-4.125,13.447,13.447,0,0,1-.9-4.915,13.722,13.722,0,0,1,1.576-6.547,12.107,12.107,0,0,1,10.987-6.5,11.85,11.85,0,0,1,6.606,1.8,12.393,12.393,0,0,1,4.288,4.713,13.3,13.3,0,0,1,1.53,6.268q0,.575-.046,1.077t-.093.789H371.635a9.029,9.029,0,0,0,1.252,3.888,7.406,7.406,0,0,0,2.642,2.575,6.79,6.79,0,0,0,3.43.931,7.673,7.673,0,0,0,3.917-1.064,5.408,5.408,0,0,0,2.48-2.8l4.358,1.3a9.555,9.555,0,0,1-2.411,3.31,12.171,12.171,0,0,1-3.778,2.32,12.788,12.788,0,0,1-4.705.845M371.543,81.7h14.65a8.462,8.462,0,0,0-1.182-3.79,7.283,7.283,0,0,0-2.619-2.534,7.223,7.223,0,0,0-7.07,0,7.523,7.523,0,0,0-2.619,2.534,7.9,7.9,0,0,0-1.159,3.79" transform="translate(-160.353 -29.202)" fill="#fff"/><path d="M439.647,89.753V55.445h21.882v4.783H444.886V70.473h13.955v4.445H444.886V89.753Z" transform="translate(-192.484 -22.955)" fill="#fff"/><path d="M493.349,96.484a12.341,12.341,0,0,1-5.146-1.029,11.763,11.763,0,0,1-3.917-2.849,12.951,12.951,0,0,1-2.526-4.141,13.7,13.7,0,0,1-.881-4.908,13.968,13.968,0,0,1,.881-5,12.948,12.948,0,0,1,2.526-4.141,11.7,11.7,0,0,1,3.94-2.849,12.381,12.381,0,0,1,5.123-1.03,11.787,11.787,0,0,1,9.04,3.879,12.745,12.745,0,0,1,2.55,4.141,13.993,13.993,0,0,1,.882,5,13.725,13.725,0,0,1-.882,4.908,12.97,12.97,0,0,1-2.526,4.141,11.717,11.717,0,0,1-3.94,2.849,12.394,12.394,0,0,1-5.123,1.029M486.117,83.51a9.394,9.394,0,0,0,.973,4.335,7.835,7.835,0,0,0,2.6,3,6.309,6.309,0,0,0,3.615,1.1,6.466,6.466,0,0,0,3.709-1.1,7.752,7.752,0,0,0,2.6-3.049,9.979,9.979,0,0,0,0-8.6,7.733,7.733,0,0,0-2.619-3.026,6.431,6.431,0,0,0-3.64-1.1,6.2,6.2,0,0,0-3.662,1.144,8.239,8.239,0,0,0-2.6,3.049,9.186,9.186,0,0,0-.973,4.24" transform="translate(-210.536 -29.202)" fill="#fff"/><path d="M546.907,75.285a10.429,10.429,0,0,0-5.215,1.4,7.53,7.53,0,0,0-3.268,3.817V95.967h-5.1V70.888h4.682V76.3a11.892,11.892,0,0,1,3.338-4.131,7.758,7.758,0,0,1,4.265-1.716h.812a2.022,2.022,0,0,1,.486.048Z" transform="translate(-233.497 -29.168)" fill="#fff"/><path d="M573.183,96.484a12.323,12.323,0,0,1-5.146-1.031,12.2,12.2,0,0,1-3.94-2.83,12.837,12.837,0,0,1-2.573-4.125,13.447,13.447,0,0,1-.9-4.915,13.729,13.729,0,0,1,1.576-6.547,12.107,12.107,0,0,1,10.987-6.5,11.853,11.853,0,0,1,6.607,1.8,12.4,12.4,0,0,1,4.288,4.713,13.3,13.3,0,0,1,1.53,6.268c0,.383-.016.742-.047,1.077s-.062.6-.093.789H566a9.029,9.029,0,0,0,1.252,3.888,7.41,7.41,0,0,0,2.642,2.575,6.79,6.79,0,0,0,3.43.931,7.673,7.673,0,0,0,3.917-1.064,5.408,5.408,0,0,0,2.48-2.8l4.358,1.3a9.547,9.547,0,0,1-2.411,3.31,12.162,12.162,0,0,1-3.778,2.32,12.788,12.788,0,0,1-4.705.845M565.905,81.7h14.649a8.462,8.462,0,0,0-1.182-3.79,7.292,7.292,0,0,0-2.619-2.534,7.224,7.224,0,0,0-7.071,0,7.528,7.528,0,0,0-2.619,2.534,7.9,7.9,0,0,0-1.159,3.79" transform="translate(-245.448 -29.202)" fill="#fff"/><path d="M611.573,71.2l5.795,8.583.417.816.417-.816,5.7-8.583h5.516L620.705,83.71l8.808,12.564h-5.47L618.2,87.738l-.417-.766-.37.766-5.842,8.536h-5.517l8.808-12.516L606.149,71.2Z" transform="translate(-265.34 -29.476)" fill="#fff"/></g></g></g></svg>