<svg xmlns="http://www.w3.org/2000/svg" width="694.706" height="649.384" viewBox="0 0 694.706 649.384"><g transform="translate(-1262.284 -3081.423)"><path d="M258.9,716.061c2.024-293.293,164.359-355.836,348.232-251.3s285.729-72.61,300.2,239.024S759.946,1215.347,603.64,1056.3,255.337,1232.232,258.9,716.061Z" transform="translate(2374.49 2822.574) rotate(90)" fill="#66ecff" opacity="0.16"/><path d="M903.368,1294.638l-.922-.505a2.038,2.038,0,0,1-.808-2.763l4.237-7.738a2.038,2.038,0,0,1,2.763-.808l1.321.723a.4.4,0,0,1-.383.7l-1.321-.723a1.24,1.24,0,0,0-1.682.492l-4.237,7.739a1.24,1.24,0,0,0,.491,1.682l.922.505a1.24,1.24,0,0,0,1.682-.492l2.813-5.137a.4.4,0,1,1,.7.382l-2.813,5.137a2.038,2.038,0,0,1-2.763.808" transform="translate(597.259 2319.672)" fill="#afcdfb"/><path d="M877.087,1306.737l-1.654-.905a3.3,3.3,0,0,1-1.151-4.507l6.37-11.634a.4.4,0,0,1,.7.383l-6.37,11.634a2.5,2.5,0,0,0,.834,3.425l1.653.905a2.5,2.5,0,0,0,3.336-1.142l7.256-13.252a2.5,2.5,0,0,0-.835-3.426.4.4,0,0,1,.383-.7,3.3,3.3,0,0,1,1.151,4.507l-7.256,13.252a3.3,3.3,0,0,1-4.417,1.458" transform="translate(619.609 2315.698)" fill="#afcdfb"/><path d="M823.707,308.4H620.765a9.034,9.034,0,0,1-9.034-9.034V129.038A9.034,9.034,0,0,1,620.765,120H823.707a9.034,9.034,0,0,1,9.034,9.034V299.37a9.034,9.034,0,0,1-9.034,9.034" transform="translate(832.259 3262.868)" fill="#fff"/><rect width="221.009" height="188.401" transform="translate(1443.99 3382.871)" fill="none"/><path d="M832.741,140.91H611.731V126.748A6.744,6.744,0,0,1,618.475,120H826a6.744,6.744,0,0,1,6.744,6.744Z" transform="translate(832.259 3262.868)" fill="#699dee"/><path d="M659.1,163.985a2.5,2.5,0,1,1,2.5,2.5,2.5,2.5,0,0,1-2.5-2.5" transform="translate(793.832 3229.213)" fill="#dde7fe"/><path d="M714.689,163.985a2.5,2.5,0,1,1,2.5,2.5,2.5,2.5,0,0,1-2.5-2.5" transform="translate(748.729 3229.213)" fill="#dde7fe"/><path d="M770.283,163.985a2.5,2.5,0,1,1,2.5,2.5,2.5,2.5,0,0,1-2.5-2.5" transform="translate(703.625 3229.213)" fill="#dde7fe"/><rect width="62.649" height="62.649" transform="translate(1461.505 3420.366)" fill="#cde0fb"/><rect width="62.649" height="62.649" transform="translate(1461.505 3420.365)" fill="none"/><path d="M1166.487,323.09h-49.832a2.368,2.368,0,1,1,0-4.735h49.832a2.368,2.368,0,0,1,0,4.735" transform="translate(424.534 3101.945)" fill="#7c9af2"/><rect width="54.567" height="4.734" transform="translate(1538.821 3420.301)" fill="none"/><path d="M1482.285,306.261h-49.832a2.368,2.368,0,1,1,0-4.735h49.832a2.368,2.368,0,0,1,0,4.735" transform="translate(168.326 3115.599)" fill="#7c9af2"/><rect width="54.567" height="4.734" transform="translate(1598.411 3417.125)" fill="none"/><path d="M1176.351,426.845h-60.529a1.535,1.535,0,1,1,0-3.069h60.529a1.535,1.535,0,0,1,0,3.069" transform="translate(424.534 3016.417)" fill="#bdd1f9"/><path d="M1489.843,426.845h-15.978a1.535,1.535,0,1,1,0-3.069h15.978a1.535,1.535,0,0,1,0,3.069" transform="translate(134.052 3016.417)" fill="#bdd1f9"/><path d="M1138.66,477.283h-22.838a1.535,1.535,0,1,1,0-3.069h22.838a1.535,1.535,0,1,1,0,3.069" transform="translate(424.534 2975.496)" fill="#bdd1f9"/><path d="M1298.34,477.283h-31.295a1.535,1.535,0,0,1,0-3.069h31.295a1.535,1.535,0,0,1,0,3.069" transform="translate(301.845 2975.496)" fill="#bdd1f9"/><path d="M1489.843,477.283h-15.978a1.535,1.535,0,1,1,0-3.069h15.978a1.535,1.535,0,0,1,0,3.069" transform="translate(134.052 2975.496)" fill="#bdd1f9"/><path d="M1146.811,520.9h-30.989a1.535,1.535,0,0,1,0-3.069h30.989a1.535,1.535,0,0,1,0,3.069" transform="translate(424.534 2940.114)" fill="#bdd1f9"/><path d="M1375.743,520.9H1325.06a1.535,1.535,0,1,1,0-3.069h50.683a1.535,1.535,0,0,1,0,3.069" transform="translate(254.778 2940.114)" fill="#bdd1f9"/><rect width="93.235" height="20.815" transform="translate(1538.821 3440.193)" fill="none"/><path d="M1176.351,587.076h-60.529a1.535,1.535,0,1,1,0-3.069h60.529a1.535,1.535,0,0,1,0,3.069" transform="translate(424.534 2886.421)" fill="#bdd1f9"/><path d="M1489.843,587.076h-15.978a1.535,1.535,0,1,1,0-3.069h15.978a1.535,1.535,0,0,1,0,3.069" transform="translate(134.052 2886.421)" fill="#bdd1f9"/><path d="M1138.66,637.515h-22.838a1.535,1.535,0,1,1,0-3.069h22.838a1.535,1.535,0,1,1,0,3.069" transform="translate(424.534 2845.5)" fill="#bdd1f9"/><path d="M1298.34,637.515h-31.295a1.535,1.535,0,1,1,0-3.069h31.295a1.535,1.535,0,0,1,0,3.069" transform="translate(301.845 2845.5)" fill="#bdd1f9"/><rect width="86.608" height="12.587" transform="translate(1538.821 3470.428)" fill="none"/><path d="M778.255,368.193h6.47l17.48,40.012h-7.378l-4.03-9.591H772.013l-4.087,9.591h-7.151Zm9.989,24.234-6.867-15.891-6.81,15.891Z" transform="translate(711.339 3061.511)" fill="#bdd1f9"/><rect width="34.997" height="6.756" transform="translate(1461.505 3495.634)" fill="#f99746"/><rect width="34.997" height="6.756" transform="translate(1461.505 3502.39)" fill="#ed7d2b"/><rect width="34.997" height="6.756" transform="translate(1461.505 3509.146)" fill="#474fea"/><path d="M937.6,725.313H918.347a1.459,1.459,0,1,1,0-2.918H937.6a1.459,1.459,0,1,1,0,2.918" transform="translate(584.684 2774.146)" fill="#bdd1f9"/><path d="M931.115,752.567H918.347a1.459,1.459,0,1,1,0-2.918h12.768a1.459,1.459,0,1,1,0,2.918" transform="translate(584.684 2752.035)" fill="#bdd1f9"/><rect width="34.997" height="13.805" transform="translate(1461.505 3530.566)" fill="#f99746"/><rect width="34.997" height="9.873" transform="translate(1461.505 3540.962)" fill="#b5453c"/><path d="M704.551,902.711l12.555,10.546-12.555,9.723Z" transform="translate(756.954 2627.856)" fill="#474fea"/><path d="M937.6,910.436H918.347a1.459,1.459,0,1,1,0-2.918H937.6a1.459,1.459,0,1,1,0,2.918" transform="translate(584.684 2623.955)" fill="#bdd1f9"/><path d="M931.115,937.69H918.347a1.459,1.459,0,1,1,0-2.918h12.768a1.459,1.459,0,1,1,0,2.918" transform="translate(584.684 2601.844)" fill="#bdd1f9"/><path d="M1580.443,124.167s.911,10.863-1.564,10.7-7.362-4.947-17.222-4.169-21.926,2.935-29.219-9.971,9.327-16.621,9.327-16.621Z" transform="translate(86.788 3275.767)" fill="#233862"/><path d="M1486.1,38.912,1535.789,43l1.033-2.211L1489.184,5.623,1441.064,0l-.924,1.978Z" transform="translate(160.168 3360.226)" fill="#2b478b"/><path d="M1846.664,398.512a1.926,1.926,0,1,0-1.322,2.382,1.927,1.927,0,0,0,1.322-2.382" transform="translate(-166.58 3038.047)" fill="#f99746"/><path d="M1839.3,407.348c1.994-.155,2.459,17.979,2.459,17.979a4.416,4.416,0,0,1-1.938.467c-.639-.144-.965-2.593-.965-2.593l-.062,2.567a6.987,6.987,0,0,1-2.944-.456s.3-17.719,3.449-17.965" transform="translate(-160.874 3029.746)" fill="#f99746"/><path d="M1739.323,155.8l-.36-39.618-.257-.192-25.954-19.2-.932,1.262,25.7,19.008.58,38.672Z" transform="translate(-60.247 3281.698)" fill="#f99746"/><path d="M1565.708,1221.749H1456.55v-41.474h109.521A16.029,16.029,0,0,1,1582.1,1196.3v9.053a16.392,16.392,0,0,1-16.392,16.392" transform="translate(146.854 2402.667)" fill="#fcecdb"/><path d="M1650.7,1197.337v6.239a19.033,19.033,0,0,1-2.3,9.14,16.8,16.8,0,0,1-14.675,9.03H1428.144a2.553,2.553,0,0,1-2.463-2.634v-.934a2.553,2.553,0,0,1,2.463-2.634H1553.46a17.134,17.134,0,0,0,1.759-2.829,17.811,17.811,0,0,0,1.837-7.929v-7.932a17.63,17.63,0,0,0-.508-4.221,17.017,17.017,0,0,0-2.906-6.158h-125.5a2.553,2.553,0,0,1-2.463-2.636v-.932a2.553,2.553,0,0,1,2.463-2.636h206.61c7.281,0,13.422,5.224,15.328,12.362a18.149,18.149,0,0,1,.614,4.7" transform="translate(171.898 2402.668)" fill="#699dee"/><path d="M1650.081,1192.635h-93.533a17.017,17.017,0,0,0-2.906-6.158h-125.5a2.553,2.553,0,0,1-2.463-2.636v-.932a2.553,2.553,0,0,1,2.463-2.636h206.61c7.281,0,13.422,5.224,15.328,12.362" transform="translate(171.898 2402.668)" fill="#548ee2"/><path d="M1456.549,1290.17l15.221.7-15.221.42Z" transform="translate(146.855 2313.508)" fill="#f4d2b8"/><path d="M1456.549,1324.656l36.213.7-36.213.42Z" transform="translate(146.855 2285.53)" fill="#f4d2b8"/><path d="M1305.461,1431.862h107.156V1399.6h-108.1a14.537,14.537,0,0,0-14.536,14.537v2.242a15.48,15.48,0,0,0,15.48,15.48" transform="translate(281.992 2224.725)" fill="#f99746"/><path d="M1847.546,1431.862h122.127V1399.6H1847.211a14.78,14.78,0,0,0-14.78,14.78v2.364a15.115,15.115,0,0,0,15.115,15.115" transform="translate(-158.099 2224.725)" fill="#fcecdb"/><path d="M1780.019,1549.818h149.432a2.245,2.245,0,0,0,2.244-2.245v-.335a2.244,2.244,0,0,0-2.244-2.245H1780.019a2.245,2.245,0,0,0-2.245,2.245v.335a2.245,2.245,0,0,0,2.245,2.245" transform="translate(-113.755 2106.77)" fill="#f99746"/><path d="M1780.019,1404.428h149.432a2.244,2.244,0,0,0,2.244-2.245v-.335a2.245,2.245,0,0,0-2.244-2.245H1780.019a2.245,2.245,0,0,0-2.245,2.245v.335a2.245,2.245,0,0,0,2.245,2.245" transform="translate(-113.755 2224.725)" fill="#f99746"/><path d="M2488.207,1485.083l-16.639.542,16.639.327Z" transform="translate(-676.632 2155.375)" fill="#f4d2b8"/><path d="M2389.55,1445.739l-39.585.542,39.585.326Z" transform="translate(-577.975 2187.295)" fill="#f4d2b8"/><path d="M2352.125,1448.041a7.49,7.49,0,0,1,2.258,3.664,5.992,5.992,0,0,1,.176,1.275c.094,3.027,0,9.878,0,9.878l5.008-3.425,5,3.425v-9.285a8.179,8.179,0,0,0-1.224-4.582,1.867,1.867,0,0,0-1.384-.949Z" transform="translate(-579.728 2185.427)" fill="#699dee"/><path d="M2352.125,1448.041a7.49,7.49,0,0,1,2.258,3.664l10.037.135s-.394-3.262-2.465-3.8Z" transform="translate(-579.728 2185.427)" fill="#568cdb"/><path d="M1416.049,976.958H1310.583v-47.4h105.851a16.946,16.946,0,0,1,16.946,16.946v13.12a17.33,17.33,0,0,1-17.33,17.33" transform="translate(265.278 2606.071)" fill="#fcecdb"/><path d="M1408.949,947.957v10.2a12.31,12.31,0,0,1-5.013,10.157,8.759,8.759,0,0,1-4.943,1.559H1282.861a2.736,2.736,0,0,0-2.465,2.943v1.2a2.737,2.737,0,0,0,2.465,2.943h200.622c5.757,0,10.844-3.418,13.917-8.649a22.987,22.987,0,0,0,3.075-11.645v-8.048a22.065,22.065,0,0,0-1.584-8.287c-2.58-6.373-8.044-10.767-14.369-10.767h-201.66a2.734,2.734,0,0,0-2.465,2.941v1.2a2.736,2.736,0,0,0,2.465,2.943h116.488a8.989,8.989,0,0,1,7.064,3.68,12.54,12.54,0,0,1,2.536,7.622" transform="translate(289.769 2606.066)" fill="#afcdfb"/><path d="M1280.4,1139.408v1.2a2.737,2.737,0,0,0,2.465,2.944h200.622c5.757,0,10.844-3.418,13.917-8.649h-93.463a8.757,8.757,0,0,1-4.943,1.559H1282.861a2.736,2.736,0,0,0-2.465,2.943" transform="translate(289.769 2439.475)" fill="#a4c4f4"/><path d="M1310.584,1055.15l14.887.8-14.887.48Z" transform="translate(265.277 2504.181)" fill="#f4d2b8"/><path d="M1310.584,997.345l35.418.8-35.418.48Z" transform="translate(265.277 2551.078)" fill="#f4d2b8"/><path d="M1422.666,1000.728a8.308,8.308,0,0,0-3.111,3.973,5.206,5.206,0,0,0-.243,1.382c-.129,3.282,0,10.711,0,10.711l-6.9-3.714-6.883,3.714v-10.068a7.5,7.5,0,0,1,1.687-4.968,2.673,2.673,0,0,1,1.907-1.03Z" transform="translate(188.25 2548.333)" fill="#f99746"/><path d="M1423.513,1000.728a8.308,8.308,0,0,0-3.111,3.973l-13.83.147s.543-3.537,3.4-4.12Z" transform="translate(187.402 2548.333)" fill="#ed7d2b"/><path d="M542.942,1158.52s21.618,9.419,25.543,9.248,28.105-7.365,28.105-7.365l-.616,4.16s-18.661,10.732-25.185,11.341c-6.423.6-28.386-5.765-30.506-7.108s-3.5-8.915,2.659-10.275" transform="translate(891.681 2420.316)" fill="#ed985f"/><path d="M396.427,973.2s-7.975-1.515-11.947,1.386c-7.2,5.254-7.582,23.369-10.279,26.068s-9.2,1.547-9.776,15.51,2.588,15.13-1.183,21.363,1.6,12.472,1.6,12.472-2.2-3.441-1.256-5.924c0,0,.915,5.481,4.4,6.766s4,2.227,4.553,4.111c0,0,29.706-15.222,29.738-26.018s5.846-21.491,2.991-26.17a10.35,10.35,0,0,1,1.428,4.228,5.567,5.567,0,0,0-1.256-6.337c-2.969-3.055,3.483-9.378,2.528-16.7-.656-5.027-4.183-10.534-11.533-10.753" transform="translate(1034.949 2570.99)" fill="#233862"/><path d="M471.21,1115.537a20.786,20.786,0,0,1-7.268,3.093c-11.2,2.588-15.5-6.88-17.109-13.38a9.63,9.63,0,0,1,3.8-1.166c.81-.1,1.661-.159,2.367-.194,1.258-.963,3.132-4.907,3.547-11.03l.527.141,8.829,2.416s-.4,2.807-.6,5.459c-.153,2.076-.177,4.06.216,4.545.689.15,1.1.247,1.1.247a.019.019,0,0,0,0,.008,56.818,56.818,0,0,1,4.591,9.858" transform="translate(966.041 2473.586)" fill="#ffb27d"/><path d="M509.908,1096.036s-.406,2.8-.6,5.459c-5-.5-7.323-5.263-8.227-7.876Z" transform="translate(922.032 2472.97)" fill="#ed985f"/><path d="M506.91,1032.737s-11.873-.655-11.351-8.043-.659-12.448,6.944-12.341,8.875,3.029,9.3,5.537-1.791,14.828-4.893,14.848" transform="translate(926.523 2538.904)" fill="#ffb27d"/><path d="M495.794,1007.212c-1.674-2.353-3.094-1.965-3.918-1.353a8.31,8.31,0,0,0-10.781.941,14.147,14.147,0,0,1-5.214,8.006s2.066,1.49,7.141.566a8.49,8.49,0,0,0,4.236-2.5,27.744,27.744,0,0,1-5.179,5.474c6.15-2.324,9.134-10.431,9.435-11.29a9.317,9.317,0,0,1,2.339,3.632c.456,1.924,2.424,4.931,3.562,4.88,0,0,.889-4.831-1.621-8.36" transform="translate(942.474 2545.449)" fill="#233862"/><path d="M400.685,1181.753c-1.072-5.481-4.568-27.38-1.072-34.426,1.256-2.532,6.182-2.76,11.588-2.538,1.682,1.086,8.091,5.19,10.724,4.677l.147-.035c1.24-.31,1.708-1.181.674-1.932a23.614,23.614,0,0,1,6,.368c1.878.354,6.943,2.974,6.943,2.974s-2.551,4.608-6.312,6.2c.64,5.721-.311,8.245-6.247,21.459-5.015,11.169.677,21.225.677,21.225s-29.523,23.737-29.687,11.651c-.123-9.1,7.934-22.617,6.564-29.622" transform="translate(1008.807 2431.51)" fill="#f9ddbf"/><path d="M481.353,1293.789a5.489,5.489,0,0,0,3.949-2.4q.214-.32.456-.687c3.36-5.087,4.668-20.667,12.227-37.264,1.841-4.041,8.45-4.767,10.252-9.336,0,0,4.436-14.805-8.49-15.242s-34.615,41.2-34.958,45.561c-.332,4.229-8.545,22.2,16.564,19.372" transform="translate(952.726 2363.255)" fill="#dd6d22"/><path d="M751.521,1530.143h-18.4s-.688-2.934.52-4.931c1.069-1.766.659-2.773-.132-4.234a7.149,7.149,0,0,0,3.1.584,6.48,6.48,0,0,0,2.736-.963,66.229,66.229,0,0,0,5.241,5.507c1.2.864,6.563.556,6.933,4.038" transform="translate(733.93 2126.561)" fill="#233862"/><path d="M635.378,1230.622c1.108,8.3,5.433,34.517,13.064,47.305,2.46,4.123-6.2,6.434-6.245,6.422-1.161-.3-3.1-2.156-3.988-2.959-6.2-5.583-18.771-21.393-18.771-34.068,0-6.181-.109-17.984,4.386-20.983,2.768-1.848,11.114.984,11.554,4.283" transform="translate(826.006 2365.769)" fill="#ed7d2b"/><path d="M410.066,1289.389s.682-.949,1.871-2.751c1.415-2.143,2.98-6.36,4.88-11.766,2-5.675,4.363-12.656,7.321-19.92.913-2.242,1.882-4.512,2.913-6.778,1.841-4.041,6.906-3.482,8.708-8.05,0,0,7.031-15.835-5.894-16.272s-37.486,42.361-38.9,46.506c-1.545,4.537-9.083,23.378,19.1,19.031" transform="translate(1013.043 2367.315)" fill="#f99746"/><path d="M679.955,1530.143h-18.4s-.688-2.934.52-4.931c1.069-1.766.659-2.773-.132-4.234a7.15,7.15,0,0,0,3.1.584,6.479,6.479,0,0,0,2.736-.963,66.27,66.27,0,0,0,5.241,5.507c1.2.864,6.563.556,6.933,4.038" transform="translate(791.991 2126.561)" fill="#2b478b"/><path d="M529.68,1355.9c2-5.675,4.363-12.656,7.321-19.92-.772-5.5-2.439-10.318-5.241-12.259,0,0-6.8,21.061-2.079,32.179" transform="translate(900.179 2286.292)" fill="#ed7d2b"/><path d="M566.577,1231.449c1.108,8.3,2.668,35.105,10.3,47.894,2.46,4.123-6.2,6.434-6.245,6.422-1.161-.3-3.1-2.156-3.988-2.959-6.2-5.583-18.771-21.393-18.771-34.068,0-6.18,7.253-17.488,11.747-20.488a4.521,4.521,0,0,1,6.958,3.2" transform="translate(884.068 2364.354)" fill="#f99746"/><path d="M549.161,1096.722a10.965,10.965,0,0,0-4.281-.188s.168,1.232,2.5,1.354a1.858,1.858,0,0,0,1.784-1.166" transform="translate(886.495 2470.67)" fill="#fff"/><path d="M806.755,1092.793l-3.814-6.882-8.251,23.023,4.868,5.226Z" transform="translate(683.824 2479.224)" fill="#163560"/><path d="M720.113,1126.41l-7.67,21.911,20.387-4.573,7.2-21.367Z" transform="translate(750.55 2449.637)" fill="#1c468a"/><path d="M713.062,1162.161l-.357-.625,7.258-20.734.363.554Z" transform="translate(750.339 2434.691)" fill="#efdece"/><path d="M751.166,1124.629l19.329-3.761.949.285-19.915,4.031Z" transform="translate(719.135 2450.864)" fill="#fcecdb"/><path d="M829.591,1094.231l-4.124-6.547-2.629,7.391,5.8-1.13Z" transform="translate(660.987 2477.786)" fill="#efdece"/><path d="M491.357,1147.071c-.663-.127-2.085-.664-3.526-1.06a2.953,2.953,0,0,0,1.042-1.165c.257-.812.428-1.073-.428-.816s-3.853,1.631-3.853,1.631l.008,0c-1.7.5-3.271,2.9-3.271,2.9s-21.078,7.409-23.614,7.537c-3.923.2-30.034-9.419-30.034-9.419-6.162,1.36-4.78,8.932-2.659,10.275s20.909,8.179,32.044,8.307c5.64.065,26.155-13.121,26.155-13.121a8.731,8.731,0,0,1,4.282-.754c1.884.342,6.252,0,7.194-1.541s-2.227-2.569-3.34-2.783" transform="translate(985.193 2432.149)" fill="#ffb27d"/><path d="M437.095,1160.656a14.346,14.346,0,0,1-10.356,9.075s-13.244-4.08-6.65-13.1c0,0,6.52-4.844,17.006,4.029" transform="translate(989.232 2422.923)" fill="#f9ddbf"/><path d="M838.421,1147.39v0a2.029,2.029,0,0,0-.07-.6s-1.889-2.988-2.508-3.111c-1.885-.372-1.885,2.109-1.485,3.71a6.507,6.507,0,0,0,1.56,2.763h0l-.075,2.338a5,5,0,0,0,2.579-5.1" transform="translate(651.814 2432.387)" fill="#ffb27d"/><path d="M1940.8,1132.391a22.772,22.772,0,0,0,7.859,8.517l18.353.13s-28.856-13.322-26.212-8.647" transform="translate(-245.879 2442.323)" fill="#233862"/><path d="M1949.1,1321.777a1.7,1.7,0,0,1,.29,1.817.013.013,0,0,1,0,.009c-.446,1.207-1.9,2.547-3.591,3.884-.216.172-.408.328-.575.473-.044.038-.088.076-.129.114s-.066.06-.1.089c-1.577,1.433-.99,1.768-3.824,4.679-3.233,3.316-5.443,3.361-6.069,3.052-.53-.263.563-2.026,1.774-4.008.059-.1.116-.192.177-.289.161-.263.321-.531.482-.8,1.42-2.385,1.068-3.512.76-7.079-.25-2.9-4.393-16.216-4.393-16.216l6.157-1.016s1.778,10.594,3.807,12.238c1.085.876,2.306.9,3.35,1.547.073.045.146.092.217.139a8.073,8.073,0,0,1,1.673,1.364" transform="translate(-240.419 2300.269)" fill="#ffb27d"/><path d="M1953.671,1381.043a1.7,1.7,0,0,1,.29,1.817.014.014,0,0,1-.005.009,13.063,13.063,0,0,1-3.6,3.872c-.213.175-.4.335-.57.485-.044.038-.088.076-.129.114l-.1.089c-1.577,1.433-.99,1.768-3.825,4.678-3.233,3.316-5.442,3.361-6.069,3.052-.53-.263.563-2.026,1.774-4.008a13.675,13.675,0,0,0,5.75-4.175c1.95-2.452,3.261-5.611,4.589-7.437q.11.067.217.139a8.059,8.059,0,0,1,1.673,1.364" transform="translate(-244.989 2241.002)" fill="#233862"/><path d="M1672.541,1308.284c-.393,1.9-3.1,1.56-6.115.8s-2.305.123-6.6-.384-5.591-2.12-5.718-2.76c-.114-.568,2.014-.754,4.3-1,.287-.03.575-.064.864-.1,2.577-.3,4.474-1.952,6.822-3.3,2.224-1.277,5.567-6.518,5.567-6.518l5.9.509s-3.129,4.681-4.342,6.717a7.13,7.13,0,0,0-.607,4.017,7.576,7.576,0,0,1-.06,2.018" transform="translate(-13.418 2309.571)" fill="#ffb27d"/><path d="M1666.426,1351.719c-3.018-.76-2.306.123-6.6-.383s-5.591-2.12-5.718-2.761c-.113-.568,2.014-.754,4.3-1l.021.044a12.132,12.132,0,0,0,6.148,1.958c2.919.092,6.016-.723,8.032-.676a7.571,7.571,0,0,1-.06,2.018c-.393,1.9-3.1,1.56-6.114.8" transform="translate(-13.418 2266.936)" fill="#233862"/><path d="M1873.07,1125.783l5.411,14.881,7.064,19.431a11.664,11.664,0,0,0,3.828-.323,16.594,16.594,0,0,0,3.713-1.775s-1.853-20.822-5.5-32.794a21.278,21.278,0,0,0-3.161-6.965c-5.734-6.874-11.357,7.544-11.357,7.544" transform="translate(-191.07 2454.504)" fill="#233862"/><path d="M1761.878,1030.234c3.622-1.14,13.917.429,24.257,2.529l2.193-3.56,22.375-1.589s7.263,16.416,3.15,26.815c-.6,1.528-2.079,2.164-4.09,2.182l0,0s-13.346.231-17.668.2c-11.121-.079-23.482-7.811-25.086-8.143-2.625-.544-3.714,4.706-6.382,10.208s-24.882,24.273-24.882,24.273a19.439,19.439,0,0,1-4.792-.526,4.721,4.721,0,0,1-2.05-1.314s24.811-48.507,32.979-51.078" transform="translate(-74.104 2526.521)" fill="#2b478b"/><path d="M2021.009,717.5c7.932,4.441,24.023,13.644,24.107,13.586,0,0,5.921,2.28,9.306.066,5.641-3.689,8.722-13.7-1.484-22.411-5.091-4.343-8.721-5.417-9.225-12.3-.274-3.733-5.287-16.083-13.769-15a12.932,12.932,0,0,1-2.137.125,7.933,7.933,0,0,0-4.308,1.08c-4.816,2.821-14.416,33.074-2.49,34.855" transform="translate(-306.436 2807.424)" fill="#233862"/><path d="M2077.119,799.7c-.035.022,3.908,1.4,6.56.248,2.495-1.081,4.407-5.159,4.37-5.162-1.131-.06-2.366-1.058-3.276-7.554l-.483.169-8.12,2.857s.568,2.6.93,5.08c.305,2.08.462,4.071.018,4.362" transform="translate(-355.846 2721.544)" fill="#ffb27d"/><path d="M2076.17,790.986s.346,1.824.826,4.431c4.658-.8,6.62-4.778,7.293-7.288Z" transform="translate(-355.845 2720.816)" fill="#ed975d"/><path d="M2045.625,733.207s11.091-1.409,10.108-8.3-.215-11.718-7.338-11.11-8.12,3.434-8.352,5.815,2.672,13.786,5.582,13.6" transform="translate(-326.524 2781.166)" fill="#ffb27d"/><path d="M2042.379,713.184s7.05,6.163,11.872,6.69,6.659-1.009,6.659-1.009a18.839,18.839,0,0,1-4.512-6.2,3.392,3.392,0,0,0-2.783-2.02c-3.444-.322-9.974-.5-11.236,2.543" transform="translate(-328.43 2783.82)" fill="#233862"/><path d="M2041.168,716.333a17.472,17.472,0,0,0-3.148,3.974,13.415,13.415,0,0,0-.414,7.128s-3.646-7.215-1.529-10.693c2.246-3.688,5.091-.408,5.091-.408" transform="translate(-322.781 2780.154)" fill="#233862"/><path d="M2031.137,847.288c.177,22.433-.034,17.744,2.405,19.89.588.517,2.247.834,4.434.994,6.875.505,18.973-.543,19.442-1.811,1.618-4.387.507-5.761,1.878-12.485.144-.715.32-1.489.526-2.332,1.136-4.617,2.222-6.183-1.641-13.64-3.5-6.755-7.153-12.243-7.486-12.049-9.407,5.495-10.129.815-10.129.815s-9.515,9.675-9.428,20.617" transform="translate(-319.309 2690.212)" fill="#f9ddbf"/><path d="M1901.746,1178.595l7.064,19.431a11.666,11.666,0,0,0,3.828-.323,16.59,16.59,0,0,0,3.712-1.775s-1.853-20.822-5.5-32.793Z" transform="translate(-214.334 2416.573)" fill="#2b478b"/><path d="M2000.247,830.19s-9.65,1.566-10.811,5.708-7.994,28.493-7.994,28.493,4.894.915,7.173-1.333,8.025-20.946,8.025-20.946Z" transform="translate(-278.991 2686.692)" fill="#f9ddbf"/><path d="M2067.384,948.4c6.875.505,18.974-.543,19.442-1.811,1.618-4.387.507-5.761,1.878-12.485l-3.251-9.365s.475,10.406-2.612,13.121-12.6,5.193-14.1,7.469a8.37,8.37,0,0,0-1.352,3.071" transform="translate(-348.717 2609.982)" fill="#f2ccaa"/><path d="M2057.573,1022.513s-6.775-1.559-7.875-.964-3.79,2.768-4.13,3.529,2.441-.562,3.344-.8a8.024,8.024,0,0,1,2.878.652,9.58,9.58,0,0,0,5.162.555Z" transform="translate(-330.994 2531.552)" fill="#ffb27d"/><path d="M2109.355,825.85s9.107.626,12.23,5.047c4.4,6.224,13.018,32.677,7.945,36.161-5.712,3.924-25.879.854-25.879.854s-.649-3.145.3-4.657S2120.1,859.4,2120.8,858.7s-8.666-13.732-8.651-15.835-2.8-17.015-2.8-17.015" transform="translate(-377.964 2690.213)" fill="#f9ddbf"/><path d="M2054.288,1032.126a13.13,13.13,0,0,1-1.9,2.04,1.394,1.394,0,0,1-.768.159l.97-1.718Z" transform="translate(-335.926 2522.86)" fill="#ffb27d"/><path d="M2049.749,1022.129l-4.147,1.978a.736.736,0,0,0,.683.269,9.829,9.829,0,0,0,1.8-.48Z" transform="translate(-331.044 2530.971)" fill="#ffb27d"/><path d="M1878.242,952.166l-32.7-.231-9.664-24.529,32.648.23Z" transform="translate(-160.897 2607.82)" fill="#f99746"/><path d="M1885.1,1052.333l43.178.3-.007.953-42.795-.3Z" transform="translate(-200.827 2506.466)" fill="#ed7d2b"/><path d="M1931.034,986.235a1.133,1.133,0,0,1,1.121-1.549,2.23,2.23,0,0,1,1.992,1.571,1.133,1.133,0,0,1-1.121,1.549,2.231,2.231,0,0,1-1.992-1.571" transform="translate(-238.047 2561.349)" fill="#fff"/><rect width="99.348" height="19.75" transform="translate(1518.627 3637.181)" fill="#c65447"/><path d="M907.962,1487.417l-14.6-6.246-8.493-3.633,8.693-3.715,14.406-6.156a29.859,29.859,0,0,1,1.951,9.331c.045,7.1-1.956,10.42-1.956,10.42" transform="translate(610.662 2169.506)" fill="#fcecdb"/><path d="M1545.308,1474.323v6.244a6.954,6.954,0,0,1-6.956,6.953h-4.6l0-19.75h5a6.552,6.552,0,0,1,6.55,6.553" transform="translate(84.217 2169.422)" fill="#fcecdb"/><path d="M893.561,1500.293c.361,2,.676,5.053-.2,7.348l-8.493-3.633Z" transform="translate(610.662 2143.035)" fill="#2b478b"/><path d="M1158.622,950.419s-5.321,3.025-6.811,3.025-7.337-1.13-8.966-.3a19.061,19.061,0,0,0-5.134,5.278c-.995,1.968,4.007,1.1,6.372-.578a1.491,1.491,0,0,1,1.181-.244c1.224.267,3.769.729,5,.274,1.652-.611,10.353-1.29,10.353-1.29Z" transform="translate(405.634 2589.149)" fill="#d99b6c"/><path d="M1119.612,1516.75s-.573,9.24-2.361,9.373c-.238.018-9.067.018-9.067.018l-11.271-.066a3.657,3.657,0,0,1,3.368-3.29c3.294-.574,8.808-2.889,10.8-7.244,2.1-4.581,8.526,1.209,8.526,1.209" transform="translate(438.628 2132.095)" fill="#1d355d"/><path d="M1265.362,708.506s-5.516,39.2-14.65,42.715c-4.507,1.732-24.424,5.66-30.315,6.055,0,0-1.443-1.171-1.092-5.937,0,0,20.867-7.661,23.832-11.827,4.412-6.2-2.739-25.331,2.8-31.155s14.86-8.326,19.428.149" transform="translate(339.377 2789.855)" fill="#de8140"/><path d="M1215.2,1070.773a68.688,68.688,0,0,1-5.388,7.709c-5.928,7.484-12.381,13.655-13.506,19.488a26.372,26.372,0,0,1-1.042,3.733c-.469,1.336-1.05,2.741-1.72,4.193a129.2,129.2,0,0,1-10.034,17.153c-6.494,9.622-12.6,17.65-12.6,17.65l-11.2-.477c.449-1.122,5.333-14.407,11.866-30.643,2.653-6.591,5.474-13.6,8.2-20.362q.544-1.354,1.084-2.693c.832-2.069,1.651-4.106,2.451-6.089,6.134-15.245,11.021-27.384,11.021-27.384s24.519-9.288,27.065-3.27c2.1,4.962.39,9.824-6.2,20.99" transform="translate(387.677 2510.181)" fill="#689baa"/><path d="M1329.406,1389.639s7.789,5,7.033,6.63c-.1.216-4.4,7.926-4.4,7.926l-5.552,9.809a3.657,3.657,0,0,1-1.23-4.545c1.1-3.156,1.771-9.1-1.057-12.965-2.977-4.067,5.211-6.855,5.211-6.855" transform="translate(254.763 2232.809)" fill="#1d355d"/><path d="M1157.585,1126.073s4.868-4.293,5.726-7.443c0,0-20.057-24.031-24.408-29.418-.2-.247-.149-.519.115-.816,3.285-3.7,39.778-11.232,44.548-18.653a23,23,0,0,0,3.082-7.1,16.794,16.794,0,0,0,.226-7.656l-36.446-1.054s-30.345,18.895-33.782,31.778,40.939,40.366,40.939,40.366" transform="translate(422.774 2505.172)" fill="#7cb4bc"/><path d="M1236.021,1095.538c3.285-3.7,39.778-11.232,44.548-18.653a22.993,22.993,0,0,0,3.082-7.1v-4.613l-15.49-2.436s-4.393,13.516-17.4,18.585c-12.185,4.748-14.493,13.172-14.737,14.221" transform="translate(325.77 2498.03)" fill="#6da6ab"/><path d="M1349.339,645.8c7.374,1.906,19.6-4.925,19.6-4.925a18.091,18.091,0,0,1-6.5-10.2c-.09-.353-.169-.715-.242-1.086l-3.787-.8-5.631,5.045a48.378,48.378,0,0,0,.833,5.7q.183.943.424,2.021a17.372,17.372,0,0,0-4.689,4.249" transform="translate(233.835 2850.085)" fill="#d99b6c"/><path d="M1331.533,715.781c-1.056,14.2.333,35.807-.865,39.548-1.034,3.228-12.815,1.309-17.517.231-1.741-.4-3.849-.969-6.026-1.642-6.073-1.881-12.691-4.566-13.4-6.56a1.743,1.743,0,0,1-.065-.23,1.823,1.823,0,0,1,.013-.835c.237-1.016,1.149-2.116,1.256-4.632.12-2.809.1-6.117.208-9.675.005-.4.011-.838.055-1.236v-.146c0-.076,0-.151.005-.228.1-3.967.309-8.138.55-12.274.153-2.6.33-5.171.533-7.635a102.138,102.138,0,0,1,2.188-15.6,25.048,25.048,0,0,1,8.047-12.422l2.241-1.923a12.959,12.959,0,0,0,8.133-1.083c2.894-1.375,3.894-2.359,4.4-1.988,6.685,5.158,11.493,20.962,10.246,38.326" transform="translate(279.044 2810.671)" fill="#eb9a57"/><path d="M1307.308,847.311c-6.073-1.881-12.691-4.566-13.4-6.56a1.69,1.69,0,0,1-.065-.229c0-.278.007-.557.013-.835.237-1.016,1.149-2.116,1.256-4.632.12-2.809.1-6.117.208-9.675.005-.4.011-.838.055-1.236V824c0-.077,0-.151.006-.228l24.553-31.281s16.5,34.368-12.625,54.821" transform="translate(278.861 2717.278)" fill="#de8140"/><path d="M1367.527,633.839a48.458,48.458,0,0,0,.833,5.7c5.5-1.778,7.994-6.745,8.827-8.852-.089-.353-.169-.715-.242-1.086l-3.786-.8Z" transform="translate(219.079 2850.085)" fill="#cb8f65"/><path d="M1335.026,580.665s11.993-2,10.632-9.451-.73-12.725-8.445-11.762-8.679,4.077-8.829,6.674,3.488,14.868,6.643,14.539" transform="translate(250.84 2906.434)" fill="#d99b6c"/><rect width="1.112" height="29.118" transform="translate(1528.604 3523.488) rotate(-17.995)" fill="#5276c4"/><rect width="30.556" height="1.828" transform="translate(1537.562 3549.354) rotate(-1.224)" fill="#5276c4"/><path d="M1174.981,992.349s-9.816,2.588-13.5,2.316-6.742-2.022-7.205-2.936-1.437-2.535,1.07-2.236,5.927.832,6.033.351-2.043-.436-2.043-.436-.65-.945.168-.979,3.2-.682,4.09-.239,1.7,2.079,2.352,2.011,8.214-3.408,8.214-3.408Z" transform="translate(392.558 2559.639)" fill="#d99b6c"/><path d="M1274.208,720.935s-1.16,39.572-9.851,44.069c-4.288,2.219-23.651,8.318-29.463,9.36,0,0-1.563-1-1.739-5.78,0,0,19.9-9.915,22.383-14.383,3.7-6.649-5.515-24.875-.655-31.273s13.852-9.914,19.326-1.993" transform="translate(328.095 2779.034)" fill="#eb9a57"/><path d="M1326.08,552.718a5.673,5.673,0,0,0-1.44-4.02s.549-2.562-.465-2.985-1.225,1.732-1.689,1.394a10.355,10.355,0,0,1-3.422-4.308c-.887-2.365-9.005.5-9.952.926s-3.988-1.137-4.579-2.4a17.8,17.8,0,0,0,2.45-2.365c.76-1.014,6.083-7.857,13.517-5.914s8.448,5.491,8.025,8.532.6,10.124-2.446,11.145" transform="translate(270.185 2928.05)" fill="#304885"/></g></svg>