<?xml version="1.0" encoding="utf-8"?>
<!-- Generator: Adobe Illustrator 24.2.1, SVG Export Plug-In . SVG Version: 6.00 Build 0)  -->
<svg version="1.0" id="Layer_1" xmlns="http://www.w3.org/2000/svg" xmlns:xlink="http://www.w3.org/1999/xlink" x="0px" y="0px"
	 viewBox="0 0 396.6 27.2" style="enable-background:new 0 0 396.6 27.2;" xml:space="preserve">
<style type="text/css">
	.st0{fill:#FFFFFF;}
</style>
<path class="st0" d="M5.6,8.4c1.5,0,2.7,0.5,3.7,1.5c1,1,1.5,2.3,1.5,3.7s-0.5,2.7-1.5,3.7c-1,1-2.3,1.5-3.7,1.5s-2.7-0.5-3.7-1.5
	c-1-1-1.5-2.3-1.5-3.7s0.5-2.7,1.5-3.7C2.9,8.9,4.1,8.4,5.6,8.4z M5.6,18.6c1.4,0,2.5-0.5,3.5-1.4c1-1,1.4-2.1,1.4-3.5
	s-0.5-2.5-1.4-3.5c-1-1-2.1-1.4-3.5-1.4s-2.5,0.5-3.5,1.4c-1,1-1.4,2.1-1.4,3.5s0.5,2.5,1.4,3.5C3.1,18.1,4.2,18.6,5.6,18.6z
	 M8,12.7c-0.1-0.6-0.3-1-0.8-1.4c-0.4-0.3-0.9-0.5-1.5-0.5c-0.8,0-1.5,0.3-2,0.8C3.2,12.2,3,12.9,3,13.7s0.3,1.6,0.8,2.1
	c0.5,0.6,1.2,0.8,2,0.8c0.5,0,1-0.2,1.4-0.5c0.4-0.3,0.7-0.8,0.8-1.4h0.3c-0.1,0.7-0.5,1.2-0.9,1.6c-0.5,0.4-1,0.6-1.6,0.6
	c-0.9,0-1.7-0.3-2.2-0.9c-0.6-0.6-0.8-1.4-0.8-2.3c0-0.9,0.3-1.7,0.8-2.3c0.5-0.6,1.3-0.9,2.2-0.9c0.7,0,1.3,0.2,1.7,0.6
	c0.5,0.4,0.8,0.9,0.9,1.6H8z"/>
<path class="st0" d="M24.4,14.7c-0.2,1.3-0.6,2.3-1.4,3c-0.8,0.8-1.8,1.1-3,1.1c-1.3,0-2.4-0.5-3.3-1.4c-0.8-1-1.3-2.2-1.3-3.7
	c0-1.4,0.4-2.6,1.2-3.7s2-1.6,3.5-1.6c1.2,0,2.2,0.4,2.9,1.1s1.1,1.4,1.1,2.2h-0.3c-0.1-0.8-0.4-1.5-1.1-2.1
	c-0.7-0.6-1.5-0.9-2.6-0.9c-1.5,0-2.6,0.5-3.3,1.6s-1.1,2.2-1.1,3.5c0,1.3,0.4,2.5,1.1,3.4s1.8,1.4,3.1,1.4c1.2,0,2.1-0.4,2.8-1.1
	c0.7-0.7,1.1-1.6,1.3-2.8H24.4z"/>
<path class="st0" d="M28.3,11.3c1,0,1.8,0.4,2.4,1.1c0.6,0.7,0.9,1.6,0.9,2.7s-0.3,1.9-0.9,2.7s-1.4,1.1-2.4,1.1s-1.8-0.4-2.4-1.1
	c-0.6-0.7-0.9-1.6-0.9-2.7c0-1,0.3-1.9,0.9-2.7C26.5,11.6,27.3,11.3,28.3,11.3z M28.3,18.5c0.9,0,1.6-0.3,2.2-1
	c0.5-0.7,0.8-1.5,0.8-2.5c0-1-0.3-1.8-0.8-2.5c-0.5-0.7-1.2-1-2.2-1c-0.9,0-1.6,0.3-2.2,1s-0.8,1.5-0.8,2.5s0.3,1.8,0.8,2.5
	S27.4,18.5,28.3,18.5z"/>
<path class="st0" d="M33,21.1h-0.3v-9.7H33v2c0.2-0.7,0.6-1.2,1.1-1.6c0.5-0.4,1.1-0.6,1.8-0.6c0.9,0,1.7,0.4,2.2,1.1
	C38.7,13,39,13.9,39,15c0,1.1-0.3,2-0.8,2.7s-1.3,1.1-2.2,1.1c-0.7,0-1.4-0.2-1.9-0.6c-0.5-0.4-0.8-0.9-1-1.6L33,21.1z M38.7,15
	c0-1-0.2-1.8-0.7-2.5c-0.5-0.7-1.2-1-2.1-1c-0.9,0-1.6,0.3-2.1,1C33.3,13.2,33,14.1,33,15c0,1.1,0.3,2,0.8,2.6
	c0.5,0.6,1.2,0.9,2.1,0.9c0.9,0,1.6-0.4,2.1-1.1C38.5,16.8,38.7,16,38.7,15z"/>
<path class="st0" d="M45,11.4l0.3,0L42,20.1c-0.2,0.4-0.4,0.7-0.7,0.8c-0.3,0.1-0.7,0.2-1.2,0.2v-0.3c0.5,0,0.9-0.1,1.1-0.2
	c0.2-0.1,0.4-0.4,0.6-0.8l0.5-1.3l-3-7.1l0.3,0l2.9,6.8L45,11.4z"/>
<path class="st0" d="M46.2,18.6h-0.3v-7.2h0.3v1.8c0.2-0.6,0.5-1.1,0.9-1.4s1.1-0.5,1.9-0.5v0.3c-0.9,0-1.6,0.3-2.1,0.9
	c-0.5,0.6-0.7,1.3-0.7,2.1V18.6z"/>
<path class="st0" d="M49.8,10h-0.3V8.6h0.3V10z M49.8,18.6h-0.3v-7.2h0.3V18.6z"/>
<path class="st0" d="M56.9,16.2c-0.2,0.6-0.5,1.1-1.1,1.5c-0.5,0.4-1.1,0.5-1.8,0.5c-1,0-1.7-0.3-2.2-1c-0.5-0.7-0.8-1.5-0.8-2.5
	c0-1,0.3-1.9,0.8-2.5c0.5-0.7,1.3-1,2.3-1c0.7,0,1.3,0.2,1.8,0.6c0.5,0.4,0.8,0.9,1,1.5l0-1.9h0.3v7c0,1-0.3,1.7-0.8,2.2
	s-1.3,0.7-2.2,0.7c-0.8,0-1.5-0.2-2-0.6c-0.5-0.4-0.8-0.9-0.8-1.7h0.3c0,0.7,0.2,1.2,0.7,1.5c0.5,0.3,1,0.5,1.8,0.5
	c0.9,0,1.6-0.2,2-0.6c0.5-0.4,0.7-1.1,0.7-2V16.2z M54.1,11.5c-0.9,0-1.6,0.3-2.1,0.9c-0.5,0.6-0.7,1.4-0.7,2.3
	c0,0.9,0.2,1.7,0.7,2.3c0.5,0.6,1.1,0.9,2,0.9c0.9,0,1.6-0.3,2.1-0.9c0.5-0.6,0.8-1.4,0.8-2.3c0-0.9-0.2-1.6-0.7-2.3
	C55.6,11.9,55,11.5,54.1,11.5z"/>
<path class="st0" d="M58.6,8.6h0.3v4.6c0.2-0.6,0.5-1,0.9-1.4c0.4-0.4,1-0.5,1.7-0.5c0.8,0,1.4,0.2,1.9,0.7c0.5,0.5,0.7,1.1,0.7,1.9
	v4.8h-0.3v-4.7c0-0.8-0.2-1.4-0.7-1.8c-0.4-0.4-1-0.6-1.6-0.6c-0.8,0-1.5,0.3-1.9,0.9c-0.5,0.6-0.7,1.3-0.7,2.1v4.1h-0.3V8.6z"/>
<path class="st0" d="M66.4,11.7v5.5c0,0.5,0.1,0.8,0.3,0.9c0.2,0.1,0.4,0.2,0.7,0.2c0.3,0,0.5,0,0.6,0v0.3c-0.1,0-0.2,0-0.3,0
	c-0.1,0-0.3,0-0.4,0c-0.4,0-0.7-0.1-0.9-0.3c-0.2-0.2-0.3-0.5-0.3-1v-5.6h-1.3v-0.3h1.3V9.2h0.3v2.3H68v0.3H66.4z"/>
<path class="st0" d="M79.3,18.3v0.3h-6.4c0-0.5,0.1-0.9,0.4-1.3c0.3-0.4,0.6-0.7,1-1.1c0.4-0.3,1.1-0.8,2-1.4
	c0.9-0.6,1.6-1.2,1.9-1.7c0.4-0.5,0.6-1,0.6-1.6c0-0.7-0.2-1.3-0.7-1.7c-0.5-0.4-1.1-0.6-1.9-0.6c-1,0-1.7,0.3-2.1,0.8
	c-0.4,0.5-0.7,1.3-0.7,2.2h-0.3c0-1.1,0.3-1.9,0.8-2.4c0.5-0.6,1.3-0.9,2.3-0.9c0.9,0,1.6,0.2,2.1,0.7c0.5,0.4,0.8,1.1,0.8,1.9
	c0,0.6-0.2,1.1-0.6,1.6c-0.4,0.5-1,1.1-1.9,1.8c-0.9,0.6-1.6,1.1-2,1.4s-0.7,0.6-1,0.9s-0.4,0.7-0.5,1.1H79.3z"/>
<path class="st0" d="M83.8,18.8c-1.3,0-2.2-0.5-2.7-1.4c-0.6-1-0.9-2.1-0.9-3.5c0-1.4,0.3-2.6,0.9-3.5s1.5-1.4,2.7-1.4
	c1.3,0,2.2,0.5,2.7,1.4c0.6,1,0.9,2.1,0.9,3.5c0,1.4-0.3,2.6-0.9,3.5C86,18.3,85.1,18.8,83.8,18.8z M83.8,9.2c-1.2,0-2,0.5-2.5,1.4
	c-0.5,0.9-0.8,2-0.8,3.3c0,1.3,0.3,2.4,0.8,3.3s1.4,1.4,2.6,1.4c1.2,0,2-0.5,2.5-1.4s0.8-2,0.8-3.3c0-1.3-0.3-2.4-0.8-3.3
	S85,9.2,83.8,9.2z"/>
<path class="st0" d="M94.9,18.3v0.3h-6.4c0-0.5,0.1-0.9,0.4-1.3c0.3-0.4,0.6-0.7,1-1.1c0.4-0.3,1.1-0.8,2-1.4
	c0.9-0.6,1.6-1.2,1.9-1.7c0.4-0.5,0.6-1,0.6-1.6c0-0.7-0.2-1.3-0.7-1.7c-0.5-0.4-1.1-0.6-1.9-0.6c-1,0-1.7,0.3-2.1,0.8
	c-0.4,0.5-0.7,1.3-0.7,2.2h-0.3c0-1.1,0.3-1.9,0.8-2.4c0.5-0.6,1.3-0.9,2.3-0.9c0.9,0,1.6,0.2,2.1,0.7c0.5,0.4,0.8,1.1,0.8,1.9
	c0,0.6-0.2,1.1-0.6,1.6c-0.4,0.5-1,1.1-1.9,1.8c-0.9,0.6-1.6,1.1-2,1.4s-0.7,0.6-1,0.9s-0.4,0.7-0.5,1.1H94.9z"/>
<path class="st0" d="M99.4,18.8c-1.3,0-2.2-0.5-2.7-1.4c-0.6-1-0.9-2.1-0.9-3.5c0-1.4,0.3-2.6,0.9-3.5s1.5-1.4,2.7-1.4
	c1.3,0,2.2,0.5,2.7,1.4c0.6,1,0.9,2.1,0.9,3.5c0,1.4-0.3,2.6-0.9,3.5C101.6,18.3,100.6,18.8,99.4,18.8z M99.4,9.2
	c-1.2,0-2,0.5-2.5,1.4c-0.5,0.9-0.8,2-0.8,3.3c0,1.3,0.3,2.4,0.8,3.3s1.4,1.4,2.6,1.4c1.2,0,2-0.5,2.5-1.4s0.8-2,0.8-3.3
	c0-1.3-0.3-2.4-0.8-3.3S100.6,9.2,99.4,9.2z"/>
<path class="st0" d="M108.7,15.3l-1.3,3.3l-0.3,0l4.1-10h0.4l3.9,10l-0.3,0l-1.3-3.3H108.7z M113.6,15.1l-2.4-6.1l-2.5,6.1H113.6z"
	/>
<path class="st0" d="M121.6,8.6h0.3v10h-0.3v-2c-0.2,0.7-0.6,1.2-1.1,1.6c-0.5,0.4-1.1,0.6-1.8,0.6c-0.9,0-1.7-0.4-2.2-1.1
	c-0.6-0.7-0.8-1.6-0.8-2.7c0-1.1,0.3-2,0.8-2.7s1.3-1.1,2.2-1.1c0.7,0,1.4,0.2,1.9,0.6c0.5,0.4,0.8,0.9,1,1.6L121.6,8.6z
	 M118.7,11.5c-0.9,0-1.6,0.4-2.1,1.1c-0.5,0.7-0.7,1.5-0.7,2.5c0,1,0.2,1.8,0.7,2.5c0.5,0.7,1.2,1,2.1,1c0.9,0,1.6-0.3,2.1-1
	c0.5-0.7,0.8-1.5,0.8-2.5c0-1.1-0.3-2-0.8-2.6C120.3,11.9,119.6,11.5,118.7,11.5z"/>
<path class="st0" d="M127.7,13.6v5.1h-0.3v-10h0.3v4.6h7V8.6h0.3v10h-0.3v-5.1H127.7z"/>
<path class="st0" d="M139.3,11.3c1,0,1.8,0.4,2.4,1.1c0.6,0.7,0.9,1.6,0.9,2.7s-0.3,1.9-0.9,2.7s-1.4,1.1-2.4,1.1s-1.8-0.4-2.4-1.1
	c-0.6-0.7-0.9-1.6-0.9-2.7c0-1,0.3-1.9,0.9-2.7C137.5,11.6,138.3,11.3,139.3,11.3z M139.3,18.5c0.9,0,1.6-0.3,2.2-1
	c0.5-0.7,0.8-1.5,0.8-2.5c0-1-0.3-1.8-0.8-2.5c-0.5-0.7-1.2-1-2.2-1c-0.9,0-1.6,0.3-2.2,1s-0.8,1.5-0.8,2.5s0.3,1.8,0.8,2.5
	S138.4,18.5,139.3,18.5z"/>
<path class="st0" d="M149.2,18.6h-0.3v-1.8c-0.2,0.6-0.5,1.1-0.9,1.4c-0.4,0.4-1,0.5-1.7,0.5c-0.8,0-1.4-0.2-1.9-0.7
	c-0.5-0.5-0.7-1.1-0.7-1.9v-4.8h0.3v4.7c0,0.8,0.2,1.4,0.7,1.8c0.4,0.4,1,0.6,1.6,0.6c0.8,0,1.5-0.3,1.9-0.9
	c0.5-0.6,0.7-1.3,0.7-2.2v-4.1h0.3V18.6z"/>
<path class="st0" d="M155.4,13.6c0-0.7-0.2-1.2-0.6-1.5c-0.4-0.3-1-0.5-1.7-0.5c-0.7,0-1.2,0.1-1.6,0.4s-0.6,0.6-0.6,1.1
	c0,0.3,0.1,0.6,0.2,0.8c0.1,0.2,0.3,0.3,0.5,0.4s0.5,0.2,0.9,0.3c0.4,0.1,0.9,0.2,1.5,0.4c0.6,0.2,1.1,0.4,1.4,0.7s0.4,0.7,0.4,1.1
	c0,0.7-0.3,1.2-0.8,1.5c-0.5,0.3-1.1,0.5-1.8,0.5c-1,0-1.7-0.2-2.2-0.6c-0.5-0.4-0.7-1.1-0.7-2h0.3c0,0.8,0.2,1.4,0.7,1.8
	c0.4,0.4,1.1,0.6,2,0.6c0.6,0,1.1-0.1,1.6-0.4c0.5-0.3,0.7-0.7,0.7-1.3c0-0.6-0.2-0.9-0.6-1.1c-0.4-0.2-0.9-0.4-1.6-0.5
	c-0.7-0.2-1.1-0.3-1.3-0.4c-0.2-0.1-0.5-0.2-0.9-0.4c-0.4-0.2-0.6-0.6-0.6-1.4c0-0.5,0.2-0.9,0.6-1.3s1-0.6,1.8-0.6
	c0.8,0,1.5,0.2,1.9,0.6s0.7,1,0.7,1.7H155.4z"/>
<path class="st0" d="M157.1,15.1c0,1.1,0.2,1.9,0.7,2.5c0.5,0.6,1.2,0.9,2.2,0.9c0.8,0,1.4-0.2,1.9-0.6c0.5-0.4,0.8-1,0.9-1.8h0.3
	c-0.1,0.8-0.4,1.5-1,2c-0.6,0.5-1.3,0.7-2.1,0.7c-1.1,0-1.9-0.3-2.4-1s-0.8-1.6-0.8-2.7c0-1.2,0.3-2.1,0.9-2.7c0.6-0.7,1.4-1,2.2-1
	c1,0,1.8,0.4,2.4,1.1c0.5,0.7,0.8,1.6,0.8,2.7H157.1z M162.8,14.8c0-0.9-0.2-1.7-0.7-2.3s-1.2-0.9-2.1-0.9c-0.8,0-1.5,0.3-2.1,0.9
	c-0.6,0.6-0.8,1.4-0.8,2.4H162.8z"/>
<path class="st0" d="M168.4,14.7h2.5V15h-2.5V14.7z"/>
<path class="st0" d="M177.4,15.3l-1.3,3.3l-0.3,0l4.1-10h0.4l3.9,10l-0.3,0l-1.3-3.3H177.4z M182.4,15.1L180,8.9l-2.5,6.1H182.4z"/>
<path class="st0" d="M184.7,8.6h0.3v10h-0.3V8.6z"/>
<path class="st0" d="M186.5,8.6h0.3v10h-0.3V8.6z"/>
<path class="st0" d="M192.5,18.6h-0.3v-7.2h0.3v1.8c0.2-0.6,0.5-1.1,0.9-1.4s1.1-0.5,1.9-0.5v0.3c-0.9,0-1.6,0.3-2.1,0.9
	c-0.5,0.6-0.7,1.3-0.7,2.1V18.6z"/>
<path class="st0" d="M196.2,10h-0.3V8.6h0.3V10z M196.2,18.6h-0.3v-7.2h0.3V18.6z"/>
<path class="st0" d="M203.2,16.2c-0.2,0.6-0.5,1.1-1.1,1.5c-0.5,0.4-1.1,0.5-1.8,0.5c-1,0-1.7-0.3-2.2-1c-0.5-0.7-0.8-1.5-0.8-2.5
	c0-1,0.3-1.9,0.8-2.5c0.5-0.7,1.3-1,2.3-1c0.7,0,1.3,0.2,1.8,0.6c0.5,0.4,0.8,0.9,1,1.5l0-1.9h0.3v7c0,1-0.3,1.7-0.8,2.2
	s-1.3,0.7-2.2,0.7c-0.8,0-1.5-0.2-2-0.6c-0.5-0.4-0.8-0.9-0.8-1.7h0.3c0,0.7,0.2,1.2,0.7,1.5c0.5,0.3,1,0.5,1.8,0.5
	c0.9,0,1.6-0.2,2-0.6c0.5-0.4,0.7-1.1,0.7-2V16.2z M200.4,11.5c-0.9,0-1.6,0.3-2.1,0.9c-0.5,0.6-0.7,1.4-0.7,2.3
	c0,0.9,0.2,1.7,0.7,2.3c0.5,0.6,1.1,0.9,2,0.9c0.9,0,1.6-0.3,2.1-0.9c0.5-0.6,0.8-1.4,0.8-2.3c0-0.9-0.2-1.6-0.7-2.3
	S201.3,11.5,200.4,11.5z"/>
<path class="st0" d="M205,8.6h0.3v4.6c0.2-0.6,0.5-1,0.9-1.4c0.4-0.4,1-0.5,1.7-0.5c0.8,0,1.4,0.2,1.9,0.7c0.5,0.5,0.7,1.1,0.7,1.9
	v4.8h-0.3v-4.7c0-0.8-0.2-1.4-0.7-1.8c-0.4-0.4-1-0.6-1.6-0.6c-0.8,0-1.5,0.3-1.9,0.9c-0.5,0.6-0.7,1.3-0.7,2.1v4.1H205V8.6z"/>
<path class="st0" d="M212.7,11.7v5.5c0,0.5,0.1,0.8,0.3,0.9c0.2,0.1,0.4,0.2,0.7,0.2c0.3,0,0.5,0,0.6,0v0.3c-0.1,0-0.2,0-0.3,0
	c-0.1,0-0.3,0-0.4,0c-0.4,0-0.7-0.1-0.9-0.3c-0.2-0.2-0.3-0.5-0.3-1v-5.6h-1.3v-0.3h1.3V9.2h0.3v2.3h1.6v0.3H212.7z"/>
<path class="st0" d="M220,13.6c0-0.7-0.2-1.2-0.6-1.5c-0.4-0.3-1-0.5-1.7-0.5c-0.7,0-1.2,0.1-1.6,0.4c-0.4,0.3-0.6,0.6-0.6,1.1
	c0,0.3,0.1,0.6,0.2,0.8s0.3,0.3,0.5,0.4c0.2,0.1,0.5,0.2,0.9,0.3c0.4,0.1,0.9,0.2,1.5,0.4c0.6,0.2,1.1,0.4,1.4,0.7
	c0.3,0.3,0.4,0.7,0.4,1.1c0,0.7-0.3,1.2-0.8,1.5c-0.5,0.3-1.1,0.5-1.8,0.5c-1,0-1.7-0.2-2.2-0.6c-0.5-0.4-0.7-1.1-0.7-2h0.3
	c0,0.8,0.2,1.4,0.7,1.8c0.4,0.4,1.1,0.6,2,0.6c0.6,0,1.1-0.1,1.6-0.4c0.5-0.3,0.7-0.7,0.7-1.3c0-0.6-0.2-0.9-0.6-1.1
	c-0.4-0.2-0.9-0.4-1.6-0.5c-0.7-0.2-1.1-0.3-1.3-0.4c-0.2-0.1-0.5-0.2-0.9-0.4c-0.4-0.2-0.6-0.6-0.6-1.4c0-0.5,0.2-0.9,0.6-1.3
	c0.4-0.4,1-0.6,1.8-0.6c0.8,0,1.5,0.2,1.9,0.6s0.7,1,0.7,1.7H220z"/>
<path class="st0" d="M226,18.6h-0.3v-10h4.1c2,0,3.1,0.9,3.1,2.6c0,0.7-0.2,1.2-0.6,1.7c-0.4,0.5-0.9,0.8-1.6,0.9
	c0.8,0.1,1.3,0.4,1.6,0.8c0.3,0.4,0.4,1.1,0.4,2c0,0.4,0,0.9,0,1.3s0.1,0.7,0.2,0.8h-0.3c-0.1-0.2-0.1-0.5-0.2-0.9
	c0-0.4,0-0.8,0-1.2c0-0.9-0.2-1.6-0.5-2c-0.3-0.4-1.1-0.6-2.1-0.6H226V18.6z M226,13.7h3.7c0.8,0,1.5-0.2,2-0.6
	c0.5-0.4,0.8-1,0.8-1.9c0-0.7-0.2-1.3-0.7-1.7c-0.4-0.4-1.1-0.6-2.1-0.6H226V13.7z"/>
<path class="st0" d="M234.1,15.1c0,1.1,0.2,1.9,0.7,2.5c0.5,0.6,1.2,0.9,2.2,0.9c0.8,0,1.4-0.2,1.9-0.6c0.5-0.4,0.8-1,0.9-1.8h0.3
	c-0.1,0.8-0.4,1.5-1,2c-0.6,0.5-1.3,0.7-2.1,0.7c-1.1,0-1.9-0.3-2.4-1c-0.5-0.7-0.8-1.6-0.8-2.7c0-1.2,0.3-2.1,0.9-2.7
	c0.6-0.7,1.4-1,2.2-1c1,0,1.8,0.4,2.4,1.1c0.5,0.7,0.8,1.6,0.8,2.7H234.1z M239.9,14.8c0-0.9-0.2-1.7-0.7-2.3
	c-0.5-0.6-1.2-0.9-2.1-0.9c-0.8,0-1.5,0.3-2.1,0.9s-0.8,1.4-0.8,2.4H239.9z"/>
<path class="st0" d="M245.9,13.6c0-0.7-0.2-1.2-0.6-1.5c-0.4-0.3-1-0.5-1.7-0.5c-0.7,0-1.2,0.1-1.6,0.4c-0.4,0.3-0.6,0.6-0.6,1.1
	c0,0.3,0.1,0.6,0.2,0.8s0.3,0.3,0.5,0.4c0.2,0.1,0.5,0.2,0.9,0.3c0.4,0.1,0.9,0.2,1.5,0.4c0.6,0.2,1.1,0.4,1.4,0.7
	c0.3,0.3,0.4,0.7,0.4,1.1c0,0.7-0.3,1.2-0.8,1.5c-0.5,0.3-1.1,0.5-1.8,0.5c-1,0-1.7-0.2-2.2-0.6c-0.5-0.4-0.7-1.1-0.7-2h0.3
	c0,0.8,0.2,1.4,0.7,1.8c0.4,0.4,1.1,0.6,2,0.6c0.6,0,1.1-0.1,1.6-0.4c0.5-0.3,0.7-0.7,0.7-1.3c0-0.6-0.2-0.9-0.6-1.1
	c-0.4-0.2-0.9-0.4-1.6-0.5c-0.7-0.2-1.1-0.3-1.3-0.4c-0.2-0.1-0.5-0.2-0.9-0.4c-0.4-0.2-0.6-0.6-0.6-1.4c0-0.5,0.2-0.9,0.6-1.3
	c0.4-0.4,1-0.6,1.8-0.6c0.8,0,1.5,0.2,1.9,0.6s0.7,1,0.7,1.7H245.9z"/>
<path class="st0" d="M247.6,15.1c0,1.1,0.2,1.9,0.7,2.5c0.5,0.6,1.2,0.9,2.2,0.9c0.8,0,1.4-0.2,1.9-0.6c0.5-0.4,0.8-1,0.9-1.8h0.3
	c-0.1,0.8-0.4,1.5-1,2c-0.6,0.5-1.3,0.7-2.1,0.7c-1.1,0-1.9-0.3-2.4-1s-0.8-1.6-0.8-2.7c0-1.2,0.3-2.1,0.9-2.7c0.6-0.7,1.4-1,2.2-1
	c1,0,1.8,0.4,2.4,1.1c0.5,0.7,0.8,1.6,0.8,2.7H247.6z M253.3,14.8c0-0.9-0.2-1.7-0.7-2.3s-1.2-0.9-2.1-0.9c-0.8,0-1.5,0.3-2.1,0.9
	c-0.6,0.6-0.8,1.4-0.8,2.4H253.3z"/>
<path class="st0" d="M255,18.6h-0.3v-7.2h0.3v1.8c0.2-0.6,0.5-1.1,0.9-1.4c0.5-0.4,1.1-0.5,1.9-0.5v0.3c-0.9,0-1.6,0.3-2.1,0.9
	c-0.5,0.6-0.7,1.3-0.7,2.1V18.6z"/>
<path class="st0" d="M263.2,11.4l0.3,0l-2.7,7.2l-0.3,0l-3-7.2l0.3,0l2.8,6.9L263.2,11.4z"/>
<path class="st0" d="M263.9,15.1c0,1.1,0.2,1.9,0.7,2.5c0.5,0.6,1.2,0.9,2.2,0.9c0.8,0,1.4-0.2,1.9-0.6c0.5-0.4,0.8-1,0.9-1.8h0.3
	c-0.1,0.8-0.4,1.5-1,2c-0.6,0.5-1.3,0.7-2.1,0.7c-1.1,0-1.9-0.3-2.4-1c-0.5-0.7-0.8-1.6-0.8-2.7c0-1.2,0.3-2.1,0.9-2.7s1.4-1,2.2-1
	c1,0,1.8,0.4,2.4,1.1c0.5,0.7,0.8,1.6,0.8,2.7H263.9z M269.7,14.8c0-0.9-0.2-1.7-0.7-2.3c-0.5-0.6-1.2-0.9-2.1-0.9
	c-0.8,0-1.5,0.3-2.1,0.9c-0.6,0.6-0.8,1.4-0.8,2.4H269.7z"/>
<path class="st0" d="M276.7,8.6h0.3v10h-0.3v-2c-0.2,0.7-0.6,1.2-1.1,1.6c-0.5,0.4-1.1,0.6-1.8,0.6c-0.9,0-1.7-0.4-2.2-1.1
	s-0.8-1.6-0.8-2.7c0-1.1,0.3-2,0.8-2.7c0.5-0.7,1.3-1.1,2.2-1.1c0.7,0,1.4,0.2,1.9,0.6c0.5,0.4,0.8,0.9,1,1.6L276.7,8.6z
	 M273.8,11.5c-0.9,0-1.6,0.4-2.1,1.1c-0.5,0.7-0.7,1.5-0.7,2.5c0,1,0.2,1.8,0.7,2.5c0.5,0.7,1.2,1,2.1,1c0.9,0,1.6-0.3,2.1-1
	c0.5-0.7,0.8-1.5,0.8-2.5c0-1.1-0.3-2-0.8-2.6C275.4,11.9,274.6,11.5,273.8,11.5z"/>
<path class="st0" d="M279.6,12.8v-1.4h0.3v1.4H279.6z M279.6,18.6v-1.4h0.3v1.4H279.6z"/>
<path class="st0" d="M289.7,24.2L289.7,24.2c0.5-1.9,6.5-26.9,15.1-23.9c2.1,1,3.3,4.4,2.6,8.4C299.2-1,289.9,24.3,289.7,24.2"/>
<path class="st0" d="M306.7,0.3L306.7,0.3c0.9,1.6,13.2,22.3,5.4,25.4c-2.1,0.6-5.1-1-7.3-4.1C316.7,23.3,306.5,0.3,306.7,0.3"/>
<path class="st0" d="M289.7,24.2c0.6-1.9,7.7-19.8,15.6-16.7c1.8,1,2.7,3.6,2.3,6.9c0-2.7-0.9-4.8-2.4-5.6
	C296.9,5.2,289.7,24.2,289.7,24.2"/>
<path class="st0" d="M321.7,22.5l1.4,3.4h-0.3l-0.4-0.9h-1.7l-0.4,0.9h-0.3l1.4-3.4H321.7z M320.8,24.7h1.5l-0.8-1.9L320.8,24.7z"/>
<path class="st0" d="M325.8,22.5v3.4c-0.3,0.1-0.5,0.1-0.8,0.1c-0.4,0-0.7-0.1-1-0.3c-0.4-0.5-0.4-1.2,0-1.6c0.3-0.2,0.6-0.4,1-0.3
	c0.2,0,0.3,0,0.5,0v-1.2H325.8z M324.2,24.2c-0.3,0.4-0.3,0.9,0,1.2c0.2,0.2,0.5,0.3,0.8,0.3c0.2,0,0.3,0,0.5,0V24
	c-0.2,0-0.3,0-0.5,0C324.7,23.9,324.4,24,324.2,24.2"/>
<path class="st0" d="M326.7,23.7l0.7,1.8l0.7-1.8h0.3l-0.9,2.2h-0.2l-0.9-2.2H326.7z"/>
<path class="st0" d="M330.7,24c0.2,0.2,0.3,0.5,0.3,0.8h-1.9c0,0.2,0.1,0.5,0.2,0.7c0.2,0.2,0.4,0.2,0.6,0.2c0.3,0,0.5-0.1,0.7-0.3
	l0.2,0.2c-0.3,0.2-0.6,0.3-0.9,0.3c-0.3,0-0.6-0.1-0.8-0.3c-0.2-0.2-0.3-0.5-0.3-0.8c0-0.3,0.1-0.6,0.3-0.8c0.2-0.2,0.5-0.3,0.8-0.3
	C330.2,23.7,330.5,23.8,330.7,24 M329.4,24.1c-0.2,0.1-0.3,0.3-0.3,0.5h1.5c0-0.2-0.1-0.3-0.2-0.4c-0.1-0.2-0.3-0.2-0.5-0.2
	C329.8,23.9,329.6,24,329.4,24.1"/>
<path class="st0" d="M332.6,23.9L332.6,23.9c-0.4,0-0.7,0.2-0.7,0.5c0,0.1,0,0.1,0,0.2v1.3h-0.3v-1.3c-0.1-0.5,0.2-0.9,0.7-0.9
	c0.1,0,0.2,0,0.2,0h0V23.9z"/>
<path class="st0" d="M334,26c-0.3,0-0.5-0.2-0.5-0.5V24h-0.3v-0.2h0.3v-0.5l0.3-0.1v0.6h0.4V24h-0.4v1.4c0,0.2,0.1,0.4,0.3,0.4
	c0.1,0,0.1,0,0.2,0l0.1,0.2C334.2,25.9,334.1,26,334,26"/>
<path class="st0" d="M335.5,23.7v2.2h-0.3V24h-0.3v-0.2H335.5z M335.5,23.1h-0.3v-0.6h0.3V23.1z"/>
<path class="st0" d="M337.4,23.8c0.1,0.1,0.1,0.2,0.2,0.3l-0.2,0.1c0-0.1,0-0.1-0.1-0.2c-0.1-0.1-0.2-0.1-0.3-0.1
	c-0.1,0-0.2,0-0.3,0.1c-0.1,0.1-0.1,0.2-0.1,0.3c0,0.1,0,0.1,0.1,0.2c0.1,0.1,0.2,0.1,0.3,0.1l0.4,0.1c0.2,0,0.3,0.1,0.4,0.3
	c0.1,0.1,0.1,0.2,0.1,0.3c0,0.2-0.1,0.4-0.3,0.5c-0.2,0.1-0.3,0.1-0.5,0.1c-0.2,0-0.4,0-0.5-0.2c-0.1-0.1-0.2-0.2-0.2-0.4l0.3-0.1
	c0,0.1,0.1,0.2,0.1,0.2c0.1,0.1,0.2,0.1,0.4,0.1c0.1,0,0.3,0,0.4-0.1c0.1-0.1,0.2-0.2,0.1-0.3c0-0.1,0-0.1-0.1-0.2
	c-0.1-0.1-0.2-0.2-0.3-0.2l-0.3-0.1c-0.1,0-0.3-0.1-0.4-0.2c-0.1-0.1-0.1-0.2-0.1-0.3c0-0.2,0.1-0.4,0.2-0.5
	c0.1-0.1,0.3-0.2,0.5-0.2C337.1,23.6,337.3,23.7,337.4,23.8"/>
<path class="st0" d="M338.9,23.7v2.2h-0.3V24h-0.3v-0.2H338.9z M338.9,23.1h-0.3v-0.6h0.3V23.1z"/>
<path class="st0" d="M341.5,24.6v1.3h-0.3v-1.3c0-0.4-0.3-0.7-0.7-0.7c0,0,0,0,0,0c-0.4,0-0.7,0.3-0.7,0.7c0,0,0,0,0,0v1.3h-0.3
	v-1.3c0-0.3,0.1-0.5,0.3-0.7c0.2-0.2,0.4-0.3,0.7-0.3c0.2,0,0.5,0.1,0.7,0.3C341.4,24.1,341.5,24.4,341.5,24.6"/>
<path class="st0" d="M344.2,25.9c0,0.8-0.5,1.2-1.4,1.2c-0.2,0-0.4,0-0.6,0l0.1-0.3c0.2,0,0.3,0,0.5,0c0.7,0,1.1-0.3,1.1-1
	c-0.2,0-0.3,0-0.5,0c-0.4,0-0.7-0.1-1-0.3c-0.4-0.5-0.4-1.2,0-1.6c0.3-0.2,0.6-0.4,1-0.3c0.3,0,0.5,0,0.8,0.1L344.2,25.9z
	 M343.4,25.7c0.2,0,0.3,0,0.5,0V24c-0.2,0-0.3,0-0.5,0c-0.3,0-0.6,0.1-0.8,0.3c-0.3,0.4-0.3,0.9,0,1.2
	C342.8,25.6,343.1,25.7,343.4,25.7"/>
<path class="st0" d="M350.3,22.5c0.2,0,0.4,0.1,0.6,0.2c0.2,0.2,0.2,0.4,0.2,0.6c0,0.2,0,0.3-0.1,0.5c-0.1,0.1-0.2,0.2-0.4,0.3
	c0.2,0,0.4,0.1,0.5,0.3c0.1,0.2,0.2,0.4,0.2,0.6c0,0.5-0.4,1-1,1c0,0,0,0,0,0h-1.5v-3.4H350.3z M349.1,24h1.2c0.3,0,0.6-0.3,0.6-0.6
	c0-0.3-0.3-0.6-0.6-0.6h-1.2V24z M349.1,25.6h1.2c0.4,0,0.7-0.3,0.7-0.7c0-0.4-0.3-0.7-0.7-0.7l0,0h-1.2V25.6z"/>
<path class="st0" d="M352.9,23.9L352.9,23.9c-0.4,0-0.7,0.2-0.7,0.5c0,0.1,0,0.1,0,0.2v1.3H352v-1.3c-0.1-0.5,0.2-0.9,0.7-0.9
	c0.1,0,0.2,0,0.2,0h0V23.9z"/>
<path class="st0" d="M355.5,25.9c-0.3,0.1-0.5,0.1-0.8,0.1c-0.4,0-0.7-0.1-1-0.3c-0.4-0.5-0.4-1.2,0-1.6c0.3-0.2,0.6-0.4,1-0.3
	c0.3,0,0.5,0,0.8,0.1V25.9z M354.7,25.7c0.2,0,0.3,0,0.5,0V24c-0.2,0-0.3,0-0.5,0c-0.3,0-0.6,0.1-0.8,0.3c-0.3,0.4-0.3,0.9,0,1.2
	C354.1,25.6,354.4,25.7,354.7,25.7"/>
<path class="st0" d="M358,24.6v1.3h-0.3v-1.3c0-0.4-0.3-0.7-0.7-0.7c0,0,0,0,0,0c-0.4,0-0.7,0.3-0.7,0.7c0,0,0,0,0,0v1.3h-0.3v-1.3
	c0-0.3,0.1-0.5,0.3-0.7c0.2-0.2,0.4-0.3,0.7-0.3c0.2,0,0.5,0.1,0.7,0.3C357.9,24.1,358,24.4,358,24.6"/>
<path class="st0" d="M360.7,22.5v3.4c-0.3,0.1-0.5,0.1-0.8,0.1c-0.4,0-0.7-0.1-1-0.3c-0.4-0.5-0.4-1.2,0-1.6c0.3-0.2,0.6-0.4,1-0.3
	c0.2,0,0.3,0,0.5,0v-1.2H360.7z M359.2,24.2c-0.3,0.4-0.3,0.9,0,1.2c0.2,0.2,0.5,0.3,0.8,0.3c0.2,0,0.3,0,0.5,0V24
	c-0.2,0-0.3,0-0.5,0C359.7,23.9,359.4,24,359.2,24.2"/>
<path class="st0" d="M362,23.7v2.2h-0.3V24h-0.3v-0.2H362z M362,23.1h-0.3v-0.6h0.3L362,23.1z"/>
<path class="st0" d="M364.6,24.6v1.3h-0.3v-1.3c0-0.4-0.3-0.7-0.7-0.7c0,0,0,0,0,0c-0.4,0-0.7,0.3-0.7,0.7c0,0,0,0,0,0v1.3h-0.3
	v-1.3c0-0.3,0.1-0.5,0.3-0.7c0.2-0.2,0.4-0.3,0.7-0.3c0.2,0,0.5,0.1,0.7,0.3C364.5,24.1,364.6,24.4,364.6,24.6"/>
<path class="st0" d="M367.3,25.9c0,0.8-0.5,1.2-1.4,1.2c-0.2,0-0.4,0-0.6,0l0.1-0.3c0.2,0,0.3,0,0.5,0c0.7,0,1.1-0.3,1.1-1
	c-0.2,0-0.3,0-0.5,0c-0.4,0-0.7-0.1-1-0.3c-0.4-0.5-0.4-1.2,0-1.6c0.3-0.2,0.6-0.4,1-0.3c0.3,0,0.5,0,0.8,0.1L367.3,25.9z
	 M366.5,25.7c0.2,0,0.3,0,0.5,0V24c-0.2,0-0.3,0-0.5,0c-0.3,0-0.6,0.1-0.8,0.3c-0.3,0.4-0.3,0.9,0,1.2
	C365.9,25.6,366.2,25.7,366.5,25.7"/>
<path class="st0" d="M374.4,22.5v0.3h-1.1v3.1H373v-3.1h-1.1v-0.3H374.4z"/>
<path class="st0" d="M376.2,24c0.2,0.2,0.3,0.5,0.3,0.8h-1.9c0,0.2,0.1,0.5,0.2,0.7c0.2,0.2,0.4,0.2,0.6,0.2c0.3,0,0.5-0.1,0.7-0.3
	l0.2,0.2c-0.3,0.2-0.6,0.3-0.9,0.3c-0.3,0-0.6-0.1-0.8-0.3c-0.2-0.2-0.3-0.5-0.3-0.8c0-0.3,0.1-0.6,0.3-0.8c0.2-0.2,0.5-0.3,0.8-0.3
	C375.8,23.7,376.1,23.8,376.2,24 M375,24.1c-0.2,0.1-0.3,0.3-0.3,0.5h1.5c0-0.2-0.1-0.3-0.2-0.4c-0.1-0.2-0.3-0.2-0.5-0.2
	C375.3,23.9,375.1,24,375,24.1"/>
<path class="st0" d="M379.2,24l-0.2,0.2c-0.2-0.2-0.4-0.2-0.7-0.2c-0.2,0-0.5,0.1-0.7,0.2c-0.4,0.4-0.4,0.9,0,1.3c0,0,0,0,0,0
	c0.2,0.2,0.4,0.2,0.7,0.2c0.2,0,0.5-0.1,0.7-0.2l0.2,0.2c-0.5,0.4-1.2,0.4-1.7,0c-0.2-0.2-0.4-0.5-0.4-0.9c0-0.3,0.1-0.6,0.4-0.9
	C378,23.6,378.7,23.6,379.2,24"/>
<path class="st0" d="M380.1,22.5V24c0.2-0.2,0.4-0.4,0.7-0.3c0.2,0,0.5,0.1,0.6,0.3c0.2,0.2,0.3,0.4,0.3,0.7v1.3h-0.3v-1.3
	c0-0.4-0.3-0.7-0.7-0.7c0,0,0,0,0,0c-0.2,0-0.3,0.1-0.5,0.2c-0.1,0.1-0.2,0.3-0.2,0.5v1.3h-0.3v-3.4H380.1z"/>
<path class="st0" d="M384.2,24.6v1.3H384v-1.3c0-0.4-0.3-0.7-0.7-0.7c0,0,0,0,0,0c-0.4,0-0.7,0.3-0.7,0.7c0,0,0,0,0,0v1.3h-0.3v-1.3
	c0-0.3,0.1-0.5,0.3-0.7c0.2-0.2,0.4-0.3,0.7-0.3c0.2,0,0.5,0.1,0.7,0.3C384.2,24.1,384.3,24.4,384.2,24.6"/>
<path class="st0" d="M387.1,24.8c0,0.3-0.1,0.6-0.3,0.8c-0.5,0.5-1.2,0.5-1.7,0.1c-0.5-0.5-0.5-1.2-0.1-1.7c0.5-0.5,1.2-0.5,1.7-0.1
	C387,24.1,387.1,24.5,387.1,24.8 M385.4,24.2c-0.3,0.4-0.3,0.9,0,1.3c0.4,0.3,0.9,0.3,1.2,0c0.2-0.2,0.3-0.4,0.3-0.7
	c0-0.5-0.3-0.9-0.8-0.9c0,0-0.1,0-0.1,0C385.8,23.9,385.6,24,385.4,24.2"/>
<path class="st0" d="M388.3,26c-0.3,0-0.5-0.2-0.5-0.5v-2.9h0.3v2.9c0,0.2,0.1,0.4,0.3,0.4c0.1,0,0.1,0,0.2,0l0.1,0.2
	C388.5,25.9,388.4,26,388.3,26"/>
<path class="st0" d="M391.3,24.8c0,0.3-0.1,0.6-0.3,0.8c-0.5,0.5-1.2,0.5-1.7,0.1c-0.5-0.5-0.5-1.2-0.1-1.7c0.5-0.5,1.2-0.5,1.7-0.1
	C391.2,24.1,391.3,24.5,391.3,24.8 M389.6,24.2c-0.3,0.4-0.3,0.9,0,1.3c0.3,0.3,0.9,0.3,1.2,0c0.2-0.2,0.3-0.4,0.3-0.7
	c0-0.5-0.3-0.9-0.8-0.9c0,0-0.1,0-0.1,0C390,23.9,389.8,24,389.6,24.2"/>
<path class="st0" d="M394,25.9c0,0.8-0.5,1.2-1.4,1.2c-0.2,0-0.4,0-0.6,0l0.1-0.3c0.2,0,0.3,0,0.5,0c0.7,0,1.1-0.3,1.1-1
	c-0.2,0-0.3,0-0.5,0c-0.4,0-0.7-0.1-1-0.3c-0.4-0.5-0.4-1.2,0-1.6c0.3-0.2,0.6-0.4,1-0.3c0.3,0,0.5,0,0.8,0.1L394,25.9z M393.2,25.7
	c0.2,0,0.3,0,0.5,0V24c-0.2,0-0.3,0-0.5,0c-0.3,0-0.6,0.1-0.8,0.3c-0.3,0.4-0.3,0.9,0,1.2C392.7,25.6,393,25.7,393.2,25.7"/>
<path class="st0" d="M396.3,23.7h0.3v2.2c0,0.3-0.1,0.6-0.3,0.9c-0.3,0.3-0.7,0.4-1,0.4c-0.1,0-0.3,0-0.4,0l0.1-0.3
	c0.1,0,0.3,0,0.4,0c0.3,0,0.6-0.1,0.9-0.3c0.2-0.2,0.3-0.4,0.3-0.7v-0.3c-0.2,0.2-0.4,0.4-0.7,0.3c-0.2,0-0.5-0.1-0.7-0.3
	c-0.2-0.2-0.3-0.4-0.3-0.7v-1.3h0.3V25c0,0.4,0.3,0.7,0.7,0.7c0,0,0,0,0,0c0.2,0,0.3-0.1,0.5-0.2c0.1-0.1,0.2-0.3,0.2-0.5
	L396.3,23.7z"/>
<path class="st0" d="M327.7,3.5h-1.1l-6.3,14.9l0,0.1h1.4l1.7-4.1h7.6l1.7,4.1l0,0h1.4L327.7,3.5L327.7,3.5z M330.5,13.3h-6.7l3.3-8
	L330.5,13.3z"/>
<path class="st0" d="M342.9,8.8c-0.7-0.1-1.4-0.2-2.1-0.2h-0.1c-1.6-0.1-3.1,0.5-4.3,1.5c-1,0.9-1.5,2.2-1.4,3.6
	c-0.1,1.4,0.5,2.7,1.4,3.6c1.2,1,2.7,1.6,4.3,1.5l0,0c1.1,0,2.3-0.1,3.4-0.4l0,0V3.5h-1.2L342.9,8.8z M342.9,17.4
	c-0.7,0.1-1.5,0.2-2.2,0.2c-1.3,0.1-2.5-0.3-3.5-1.2c-0.7-0.7-1.1-1.7-1-2.7c-0.1-1,0.3-2,1-2.7c1-0.8,2.2-1.2,3.5-1.2h0.1
	c0.7,0,1.4,0.1,2.1,0.2L342.9,17.4z"/>
<path class="st0" d="M353.8,8.6c-1.2,0-2.4,0.5-3.1,1.4V3.5h-1.2v15h1.2v-5.9c0-0.8,0.3-1.5,0.9-2c0.6-0.5,1.3-0.8,2.1-0.8h0
	c1.6,0,2.9,1.3,2.9,3v5.8h1.2v-5.8c0.1-1.1-0.4-2.2-1.2-3C355.9,9,354.9,8.6,353.8,8.6"/>
<path class="st0" d="M364,8.6c-2.7-0.1-4.9,2-5,4.7c0,0.1,0,0.3,0,0.4c-0.1,2.7,1.9,5,4.6,5.1c0.1,0,0.3,0,0.4,0l0,0
	c1.3,0,2.6-0.5,3.5-1.4c1-1,1.6-2.3,1.5-3.8c0.1-2.7-1.9-5-4.6-5.1C364.3,8.6,364.1,8.6,364,8.6 M364,17.6c-1,0-1.9-0.3-2.7-1
	c-1.5-1.6-1.5-4.1,0-5.7c1.5-1.4,3.8-1.4,5.3,0c0.8,0.7,1.2,1.8,1.1,2.9c0.1,1.1-0.4,2.1-1.1,2.9C365.9,17.3,365,17.6,364,17.6"/>
<path class="st0" d="M377.3,14.7c0,1.6-1.3,2.9-2.9,3c0,0,0,0,0,0c-1.6,0-2.9-1.3-2.9-2.9c0,0,0,0,0,0V8.9h-1.2v5.8
	c0,1.1,0.4,2.2,1.2,3c0.8,0.8,1.8,1.2,3,1.2c1.1,0,2.2-0.4,2.9-1.2c0.8-0.8,1.2-1.9,1.2-3V8.9h-1.2L377.3,14.7z"/>
<path class="st0" d="M384,13.3l-1.6-0.5c-0.4-0.1-0.8-0.3-1.1-0.6c-0.2-0.2-0.3-0.5-0.3-0.8c0-0.5,0.2-0.9,0.6-1.2
	c0.4-0.3,0.9-0.5,1.4-0.4c0.5,0,1.1,0.1,1.5,0.5c0.2,0.2,0.4,0.5,0.5,0.8l0,0l1.2-0.4l0,0c-0.1-0.5-0.4-0.9-0.8-1.2
	c-0.6-0.6-1.5-0.8-2.3-0.8h0c-0.8,0-1.6,0.2-2.2,0.7c-0.6,0.5-1,1.3-1,2.1c0,0.6,0.2,1.1,0.6,1.5c0.5,0.5,1,0.8,1.7,1
	c0.5,0.2,1.1,0.3,1.5,0.5c0.5,0.1,1,0.4,1.4,0.8c0.2,0.2,0.3,0.5,0.2,0.8c0,0.5-0.2,1-0.6,1.2c-0.5,0.3-1,0.4-1.6,0.4
	c-0.6,0-1.2-0.1-1.7-0.5c-0.3-0.2-0.5-0.6-0.5-1l0-0.1l-1.2,0.4l0,0c0.1,0.6,0.4,1.2,0.9,1.6c0.7,0.5,1.6,0.8,2.5,0.7l0,0
	c0.8,0,1.6-0.2,2.3-0.6c0.7-0.5,1.2-1.3,1.2-2.2c0-0.6-0.2-1.1-0.5-1.5C385.5,13.9,384.8,13.5,384,13.3"/>
<path class="st0" d="M392.4,17.6c-1.1,0-2.1-0.4-2.9-1.1c-0.7-0.8-1.1-1.8-1.1-2.8h8.2v0c0.1-1.4-0.4-2.7-1.3-3.7
	c-0.8-0.9-2-1.4-3.3-1.4c-1.3,0-2.5,0.5-3.4,1.4c-1,1-1.5,2.3-1.4,3.7c-0.1,1.4,0.5,2.7,1.4,3.7c0.9,0.9,2.1,1.4,3.4,1.4h0.1
	c1.7,0,3.3-1,4.1-2.5c0.2-0.4,0.4-0.8,0.4-1.3c-0.5,0.7-1.1,1.3-1.7,1.8C394.2,17.3,393.3,17.6,392.4,17.6 M389.8,10.6
	c0.6-0.5,1.4-0.8,2.2-0.8h0c0.9,0,1.8,0.3,2.4,1c0.5,0.5,0.7,1.1,0.8,1.8h-6.7C388.7,11.8,389.2,11.1,389.8,10.6"/>
</svg>
