<svg xmlns="http://www.w3.org/2000/svg" width="28.77" height="28.764" viewBox="0 0 28.77 28.764"><path d="M14.383,9.245a7.375,7.375,0,1,0,7.375,7.375A7.363,7.363,0,0,0,14.383,9.245Zm0,12.169a4.794,4.794,0,1,1,4.794-4.794,4.8,4.8,0,0,1-4.794,4.794Zm9.4-12.471a1.72,1.72,0,1,1-1.72-1.72A1.716,1.716,0,0,1,23.779,8.943Zm4.884,1.746A8.512,8.512,0,0,0,26.34,4.662a8.568,8.568,0,0,0-6.027-2.323c-2.375-.135-9.493-.135-11.867,0A8.556,8.556,0,0,0,2.419,4.656,8.54,8.54,0,0,0,.1,10.683c-.135,2.375-.135,9.493,0,11.867a8.512,8.512,0,0,0,2.323,6.027A8.579,8.579,0,0,0,8.446,30.9c2.375.135,9.493.135,11.867,0a8.512,8.512,0,0,0,6.027-2.323,8.568,8.568,0,0,0,2.323-6.027c.135-2.375.135-9.486,0-11.861ZM25.6,25.1a4.854,4.854,0,0,1-2.734,2.734c-1.893.751-6.386.578-8.479.578s-6.592.167-8.479-.578A4.854,4.854,0,0,1,3.17,25.1c-.751-1.893-.578-6.386-.578-8.479s-.167-6.592.578-8.479A4.854,4.854,0,0,1,5.9,5.407c1.893-.751,6.386-.578,8.479-.578s6.592-.167,8.479.578A4.854,4.854,0,0,1,25.6,8.141c.751,1.893.578,6.386.578,8.479S26.347,23.211,25.6,25.1Z" transform="translate(0.005 -2.238)" fill="#fff"/></svg>