<?xml version="1.0" encoding="utf-8"?>
<!-- Generator: Adobe Illustrator 24.2.1, SVG Export Plug-In . SVG Version: 6.00 Build 0)  -->
<svg version="1.1" id="Layer_1" xmlns="http://www.w3.org/2000/svg" xmlns:xlink="http://www.w3.org/1999/xlink" x="0px" y="0px"
	 viewBox="0 0 1001 320" style="enable-background:new 0 0 1001 320;" xml:space="preserve">
<style type="text/css">
	.st0{fill:#009FE3;}
</style>
<path class="st0" d="M130.38,182.89h15.85v2.9c0,27.15,0,54.33,0.04,81.48c0,10.26-0.04,20.57-0.04,30.87
	c0,4.92-2.73,7.86-7.32,7.86c-6.33,0.08-8.69-2.44-8.69-9.31c0-9.97,0.12-19.95-0.08-29.88c-0.04-3.27,0.54-5.79,2.98-7.78
	c0.99-0.83,1.86-1.86,1.03-3.14c-0.87,1.41-1.82,2.81-2.81,4.3c-1.49-1.12-1.49-2.32-0.62-3.31c1.53-1.82,1.66-3.39-0.08-5.13
	c-0.29-0.33-0.41-1.08-0.41-1.57c0-21.93,0-43.78,0.04-65.67C130.25,184.05,130.34,183.51,130.38,182.89 M132.2,263.59
	c-0.12,0.08-0.29,0.17-0.46,0.21c0.37,0.66,0.54,1.61,1.08,1.86c0.87,0.5,1.9,0.5,2.86,0.66c0.08-0.91,0.29-1.86,0.25-2.77
	c-0.04-0.54-0.62-0.99-0.66-1.53c-0.08-0.74-0.12-1.82,0.25-2.07c0.46-0.29,1.45-0.17,1.94,0.21c0.79,0.58,1.28,1.45,1.9,2.19
	c0.08-0.54,0.04-0.91-0.21-1.16c-1.03-1.32-2.15-3.06-3.97-1.94c-1.94,1.12-0.7,2.77-0.17,4.3c0.29,0.7,0.04,1.57,0,2.36
	c-0.7-0.33-1.49-0.58-2.15-1.03C132.49,264.66,132.41,264.04,132.2,263.59"/>
<path d="M144.06,144.43h-15.85v-2.94c0-27.15-0.04-54.29-0.04-81.44c0-10.3,0.04-20.57,0.04-30.87c0-4.97,2.73-7.86,7.32-7.9
	c6.33-0.08,8.69,2.48,8.69,9.35c0,9.97-0.12,19.9,0.04,29.88c0.08,3.23-0.5,5.79-2.98,7.78c-0.95,0.79-1.82,1.82-0.99,3.1
	c0.87-1.37,1.82-2.77,2.81-4.26c1.49,1.12,1.49,2.28,0.62,3.31c-1.53,1.82-1.66,3.39,0.08,5.09c0.29,0.33,0.37,1.08,0.37,1.61
	c0.04,21.89,0.04,43.74,0,65.63C144.18,143.27,144.1,143.77,144.06,144.43 M142.24,63.7c0.12-0.04,0.29-0.12,0.46-0.17
	c-0.37-0.66-0.54-1.61-1.08-1.9c-0.87-0.46-1.9-0.46-2.86-0.62c-0.08,0.91-0.29,1.82-0.25,2.73c0.04,0.54,0.62,1.03,0.66,1.57
	c0.08,0.7,0.08,1.82-0.25,2.03c-0.46,0.33-1.45,0.17-1.94-0.21c-0.79-0.54-1.32-1.41-1.9-2.15c-0.12,0.5-0.04,0.87,0.17,1.16
	c1.08,1.28,2.19,3.02,4.01,1.94c1.94-1.12,0.7-2.77,0.12-4.34c-0.25-0.66,0-1.57,0-2.32c0.74,0.33,1.53,0.54,2.19,0.99
	C141.91,62.66,142.03,63.28,142.24,63.7"/>
<g>
	<path d="M145.16,116.13v28.26h-16.8c-0.04-0.79-0.17-1.57-0.17-2.32c0-14.36-0.04-28.72,0.04-43.04c0-0.7,0.74-1.45,1.16-2.15
		c0.66-1.08,1.78-2.11,1.78-3.19c0-0.87-1.37-1.74-1.99-2.69c-0.46-0.62-0.95-1.37-0.95-2.07c-0.04-17.13-0.04-34.22-0.04-51.4
		c0-2.73-0.04-5.55,0.04-8.32c0.08-5.21,2.86-7.95,7.99-7.95c1.12,0,2.19-0.08,3.27,0.12c3.77,0.7,5.79,3.64,5.79,8.32
		c0.04,19.95,0,39.93,0.04,59.92c0,6.66,0.17,13.32-0.04,19.95 M131.59,103.02c-0.17,0-0.33,0.08-0.5,0.12
		c0.46,0.79,0.74,1.82,1.41,2.28c0.79,0.46,1.94,0.41,2.9,0.58c0.12-0.95,0.33-1.86,0.33-2.81c0-0.46-0.54-0.91-0.58-1.37
		c-0.08-0.79,0.08-1.57,0.12-2.36c0.83,0.12,1.74,0.12,2.36,0.5c0.74,0.5,1.2,1.37,1.99,2.28c-0.5-1.94-1.7-3.43-2.98-3.56
		c-0.74-0.12-1.78,0.04-2.19,0.5c-0.41,0.54-0.46,1.57-0.37,2.36c0.12,0.74,0.79,1.45,0.95,2.19c0.12,0.54-0.12,1.16-0.21,1.78
		c-0.62-0.12-1.37-0.04-1.78-0.41C132.41,104.55,132.04,103.72,131.59,103.02 M133.57,95.28c-0.54,2.73-2.4,4.35-4.14,3.77
		c-0.04,0.83-0.12,1.74-0.21,2.73"/>
	<path d="M177.88,148.38c-5.79-2.86-11.21-3.97-16.92-3.77c-1.57,0.08-1.2-1.16-1.2-2.03c-0.04-7.61-0.04-15.23-0.04-22.8V67.35
		c0-6.08,2.73-8.52,8.86-8.86c6.87-0.37,9.43,4.1,9.39,9.48c-0.12,23.71-0.08,47.38-0.08,71.09V148.38z"/>
	<path d="M208.98,180.89c-2.98-8.61-7.2-16.55-13.74-22.93c-2.81-2.77-3.56-5.5-3.52-9.19c0.17-14.48,0.04-28.97,0.04-43.45
		c0-5.75,3.02-8.9,8.48-8.94c6.21,0,9.31,2.9,9.35,8.94c0,7.9,0.12,15.81-0.04,23.71c-0.08,5.3,0.12,10.63,0.04,15.93
		c-0.04,5.5,0,10.97,0,16.47v16.68v2.77C209.39,180.89,209.18,180.89,208.98,180.89"/>
	<path d="M112.76,99.48v42.75c-3.81,0.29-6.83-1.32-9.48-3.68c-9.39-8.44-9.56-26.15-0.37-34.8
		C105.6,101.17,108.7,99.6,112.76,99.48"/>
</g>
<g>
	<path class="st0" d="M129.3,211.17v-28.26h16.76c0.08,0.79,0.17,1.57,0.17,2.32c0.04,14.36,0.04,28.72,0,43.04
		c0,0.74-0.79,1.45-1.2,2.15c-0.62,1.03-1.74,2.11-1.78,3.19c0,0.91,1.37,1.74,2.03,2.69c0.41,0.58,0.91,1.37,0.91,2.07
		c0.04,17.09,0.04,34.22,0.04,51.4c0,2.77,0.04,5.5,0,8.32c-0.12,5.21-2.86,7.9-8.03,7.95c-1.08,0-2.19,0.04-3.27-0.12
		c-3.77-0.7-5.79-3.64-5.79-8.32c0-19.95,0-39.97,0-59.92c0-6.62-0.21-13.32,0.04-19.95 M142.83,224.29c0.17,0,0.33-0.04,0.5-0.12
		c-0.46-0.79-0.74-1.82-1.37-2.23c-0.83-0.5-1.94-0.46-2.94-0.62c-0.12,0.95-0.33,1.86-0.33,2.81c0,0.46,0.54,0.91,0.58,1.37
		c0.08,0.79-0.08,1.57-0.12,2.36c-0.79-0.12-1.74-0.12-2.36-0.5c-0.7-0.5-1.16-1.37-1.94-2.28c0.5,1.94,1.66,3.43,2.98,3.6
		c0.7,0.08,1.78-0.04,2.15-0.54c0.46-0.54,0.5-1.57,0.37-2.36c-0.12-0.74-0.74-1.45-0.95-2.19c-0.12-0.54,0.17-1.16,0.25-1.78
		c0.58,0.12,1.37,0.04,1.74,0.41C142,222.76,142.37,223.58,142.83,224.29 M140.84,232.03c0.58-2.73,2.44-4.35,4.14-3.77
		c0.08-0.83,0.12-1.74,0.21-2.73"/>
	<path class="st0" d="M95.89,178.97c5.96,2.94,11.67,4.14,17.92,3.68c0.08,1.08,0.17,1.9,0.12,2.77
		c-0.08,5.96-0.33,11.96-0.33,17.96c0.04,13.7,0.25,27.44,0.37,41.17c0,5.46,0,10.97-0.04,16.43c-0.04,4.92-2.94,7.7-7.82,7.74
		h-1.99c-5.5,0-8.19-2.69-8.23-8.19c0-11.83,0-23.75,0-35.59c0-13.45,0-26.9,0-40.35V178.97z"/>
	<path class="st0" d="M64.67,146.32c2.98,8.61,7.2,16.55,13.74,22.93c2.86,2.77,3.56,5.5,3.52,9.19
		c-0.17,14.48-0.04,28.97-0.04,43.45c0,5.75-3.02,8.9-8.48,8.9c-6.21,0.04-9.31-2.86-9.35-8.94c0-7.86-0.08-15.81,0.04-23.67
		c0.08-5.3-0.08-10.63-0.04-15.93c0.08-5.5,0-10.97,0-16.47v-16.68v-2.77H64.67z"/>
	<path class="st0" d="M161.07,227.87V185c4.14,0,7.37,1.7,10.06,4.43c8.73,8.86,8.61,25.41-0.25,34.14
		C168.23,226.17,165.08,227.62,161.07,227.87"/>
</g>
<path class="st0" d="M144.87,235.75c-0.58-0.66-1.74-1.37-1.66-1.9c0.21-1.08,1.08-2.07,1.66-3.06c0.25,0.12,0.54,0.25,0.79,0.33
	v2.07v2.11C145.4,235.46,145.11,235.62,144.87,235.75"/>
<g>
	<path class="st0" d="M316.77,127.2c1.47,0,2.73,0.53,3.78,1.58c1.05,1.06,1.58,2.32,1.58,3.78c0,1.47-0.53,2.73-1.58,3.78
		c-1.06,1.06-2.32,1.58-3.78,1.58h-37.56c-2.97,0-5.5,1.05-7.59,3.14s-3.14,4.62-3.14,7.59c0,2.97,1.05,5.5,3.14,7.59
		c2.09,2.09,4.62,3.14,7.59,3.14h21.46c5.94,0,11,2.09,15.19,6.28c4.19,4.19,6.28,9.25,6.28,15.19s-2.09,11-6.28,15.19
		c-4.19,4.19-9.25,6.28-15.19,6.28h-37.56c-1.47,0-2.73-0.53-3.78-1.58c-1.06-1.05-1.58-2.32-1.58-3.78c0-1.47,0.53-2.73,1.58-3.78
		c1.05-1.05,2.32-1.58,3.78-1.58h37.56c2.97,0,5.5-1.05,7.59-3.14s3.14-4.62,3.14-7.59c0-2.97-1.05-5.5-3.14-7.59
		s-4.62-3.14-7.59-3.14h-21.46c-5.94,0-11-2.09-15.19-6.28s-6.28-9.25-6.28-15.19c0-5.94,2.09-11,6.28-15.19s9.25-6.28,15.19-6.28
		H316.77z"/>
	<path class="st0" d="M396.99,138.2c7.33,7.33,11,16.19,11,26.56c0,10.38-3.67,19.23-11,26.56c-7.33,7.33-16.19,11-26.56,11
		c-10.38,0-19.23-3.67-26.56-11c-7.33-7.33-11-16.19-11-26.56c0-10.37,3.67-19.23,11-26.56c7.33-7.33,16.19-11,26.56-11
		C380.81,127.2,389.66,130.87,396.99,138.2z M370.43,137.93c-7.41,0-13.73,2.62-18.97,7.86c-5.24,5.24-7.86,11.56-7.86,18.97
		s2.62,13.73,7.86,18.97c5.24,5.24,11.56,7.86,18.97,7.86s13.73-2.62,18.97-7.86c5.24-5.24,7.86-11.56,7.86-18.97
		s-2.62-13.73-7.86-18.97C384.16,140.55,377.84,137.93,370.43,137.93z"/>
	<path class="st0" d="M424.09,137.93c-1.47,0-2.73-0.53-3.78-1.58c-1.06-1.05-1.58-2.32-1.58-3.78c0-1.47,0.53-2.73,1.58-3.78
		c1.05-1.05,2.32-1.58,3.78-1.58h53.66c1.47,0,2.73,0.53,3.78,1.58c1.05,1.06,1.58,2.32,1.58,3.78c0,1.47-0.53,2.73-1.58,3.78
		c-1.06,1.06-2.32,1.58-3.78,1.58H424.09z M429.46,196.96c0,1.47-0.53,2.73-1.58,3.78c-1.06,1.06-2.32,1.58-3.78,1.58
		c-1.47,0-2.73-0.53-3.78-1.58c-1.06-1.05-1.58-2.32-1.58-3.78v-32.2c0-1.47,0.53-2.73,1.58-3.78c1.05-1.05,2.32-1.58,3.78-1.58
		h53.66c1.47,0,2.73,0.53,3.78,1.58c1.05,1.06,1.58,2.32,1.58,3.78c0,1.47-0.53,2.73-1.58,3.78c-1.06,1.06-2.32,1.58-3.78,1.58
		h-48.3V196.96z"/>
	<path class="st0" d="M499.22,137.93c-1.47,0-2.73-0.53-3.78-1.58c-1.06-1.05-1.58-2.32-1.58-3.78c0-1.47,0.53-2.73,1.58-3.78
		c1.05-1.05,2.32-1.58,3.78-1.58h53.66c1.47,0,2.73,0.53,3.78,1.58c1.05,1.06,1.58,2.32,1.58,3.78c0,1.47-0.53,2.73-1.58,3.78
		c-1.06,1.06-2.32,1.58-3.78,1.58H499.22z M531.42,196.96c0,1.47-0.53,2.73-1.58,3.78c-1.06,1.06-2.32,1.58-3.78,1.58
		c-1.47,0-2.73-0.53-3.78-1.58c-1.06-1.05-1.58-2.32-1.58-3.78v-42.93c0-1.47,0.53-2.73,1.58-3.78c1.05-1.05,2.32-1.58,3.78-1.58
		c1.47,0,2.73,0.53,3.78,1.58c1.05,1.06,1.58,2.32,1.58,3.78V196.96z"/>
</g>
<g>
	<path d="M605.61,196.96c0,1.47-0.53,2.73-1.58,3.78c-1.06,1.06-2.32,1.58-3.78,1.58c-1.47,0-2.73-0.53-3.78-1.58
		c-1.06-1.05-1.58-2.32-1.58-3.78v-59.03h-21.46c-1.47,0-2.73-0.53-3.78-1.58c-1.06-1.05-1.58-2.32-1.58-3.78
		c0-1.47,0.53-2.73,1.58-3.78c1.05-1.05,2.32-1.58,3.78-1.58h53.66c1.47,0,2.73,0.53,3.78,1.58c1.05,1.06,1.58,2.32,1.58,3.78
		c0,1.47-0.53,2.73-1.58,3.78c-1.06,1.06-2.32,1.58-3.78,1.58h-21.46V196.96z"/>
	<path d="M693.67,138.2c7.33,7.33,11,16.19,11,26.56c0,10.38-3.67,19.23-11,26.56c-7.33,7.33-16.19,11-26.56,11
		c-10.38,0-19.23-3.67-26.56-11c-7.33-7.33-11-16.19-11-26.56c0-10.37,3.67-19.23,11-26.56c7.33-7.33,16.19-11,26.56-11
		C677.48,127.2,686.34,130.87,693.67,138.2z M667.11,137.93c-7.41,0-13.73,2.62-18.97,7.86c-5.24,5.24-7.86,11.56-7.86,18.97
		s2.62,13.73,7.86,18.97c5.24,5.24,11.56,7.86,18.97,7.86s13.73-2.62,18.97-7.86c5.24-5.24,7.86-11.56,7.86-18.97
		s-2.62-13.73-7.86-18.97C680.84,140.55,674.52,137.93,667.11,137.93z"/>
	<path d="M715.41,132.57c0-1.47,0.53-2.73,1.58-3.78c1.05-1.05,2.32-1.58,3.78-1.58c1.47,0,2.73,0.53,3.78,1.58
		c1.05,1.06,1.58,2.32,1.58,3.78v37.56c0,5.94,2.09,11,6.28,15.19s9.25,6.28,15.19,6.28c5.94,0,11-2.09,15.19-6.28
		s6.28-9.25,6.28-15.19v-37.56c0-1.47,0.53-2.73,1.58-3.78c1.05-1.05,2.32-1.58,3.78-1.58c1.47,0,2.73,0.53,3.78,1.58
		c1.05,1.06,1.58,2.32,1.58,3.78v37.56c0,8.91-3.14,16.5-9.42,22.78s-13.87,9.42-22.78,9.42s-16.5-3.14-22.78-9.42
		s-9.42-13.87-9.42-22.78V132.57z"/>
	<path d="M849.56,127.2c1.47,0,2.73,0.53,3.78,1.58c1.05,1.06,1.58,2.32,1.58,3.78c0,1.47-0.53,2.73-1.58,3.78
		c-1.06,1.06-2.32,1.58-3.78,1.58H828.1c-7.41,0-13.73,2.62-18.97,7.86c-5.24,5.24-7.86,11.56-7.86,18.97s2.62,13.73,7.86,18.97
		c5.24,5.24,11.56,7.86,18.97,7.86h21.46c1.47,0,2.73,0.53,3.78,1.58c1.05,1.06,1.58,2.32,1.58,3.78c0,1.47-0.53,2.73-1.58,3.78
		c-1.06,1.06-2.32,1.58-3.78,1.58H828.1c-10.38,0-19.23-3.67-26.56-11c-7.33-7.33-11-16.19-11-26.56c0-10.37,3.67-19.23,11-26.56
		c7.33-7.33,16.19-11,26.56-11H849.56z"/>
	<path d="M865.66,132.57c0-1.47,0.53-2.73,1.58-3.78c1.05-1.05,2.32-1.58,3.78-1.58c1.47,0,2.73,0.53,3.78,1.58
		c1.05,1.06,1.58,2.32,1.58,3.78v64.39c0,1.47-0.53,2.73-1.58,3.78c-1.06,1.06-2.32,1.58-3.78,1.58c-1.47,0-2.73-0.53-3.78-1.58
		c-1.06-1.05-1.58-2.32-1.58-3.78V132.57z M919.32,132.57c0-1.47,0.53-2.73,1.58-3.78c1.05-1.05,2.32-1.58,3.78-1.58
		c1.47,0,2.73,0.53,3.78,1.58c1.05,1.06,1.58,2.32,1.58,3.78v64.39c0,1.47-0.53,2.73-1.58,3.78c-1.06,1.06-2.32,1.58-3.78,1.58
		c-1.47,0-2.73-0.53-3.78-1.58c-1.06-1.05-1.58-2.32-1.58-3.78v-26.83h-26.83c-1.47,0-2.73-0.53-3.78-1.58
		c-1.06-1.05-1.58-2.32-1.58-3.78c0-1.47,0.53-2.73,1.58-3.78c1.05-1.05,2.32-1.58,3.78-1.58h26.83V132.57z"/>
</g>
<g>
	<path d="M343.94,243.42h-7.46v-2.7h18.16v2.7h-7.5v21.84h-3.21V243.42z"/>
	<path d="M386.52,241.05c1.61-0.33,3.89-0.51,6.08-0.51c3.38,0,5.57,0.62,7.1,2c1.24,1.1,1.93,2.77,1.93,4.66
		c0,3.25-2.04,5.39-4.63,6.27v0.11c1.9,0.65,3.03,2.4,3.61,4.95c0.8,3.42,1.39,5.79,1.9,6.73h-3.27c-0.41-0.69-0.95-2.81-1.64-5.86
		c-0.73-3.38-2.04-4.66-4.91-4.77h-2.98v10.63h-3.17V241.05z M389.69,252.23h3.24c3.38,0,5.54-1.85,5.54-4.66
		c0-3.16-2.3-4.55-5.65-4.58c-1.53,0-2.62,0.14-3.13,0.29V252.23z"/>
	<path d="M439.41,257.54l-2.55,7.72h-3.27l8.33-24.54h3.83l8.37,24.54h-3.38l-2.63-7.72H439.41z M447.46,255.07l-2.4-7.06
		c-0.55-1.61-0.91-3.06-1.28-4.48h-0.08c-0.37,1.45-0.77,2.95-1.23,4.44l-2.41,7.1H447.46z"/>
	<path d="M486.87,241.05c1.93-0.29,4.23-0.51,6.73-0.51c4.56,0,7.8,1.05,9.94,3.06c2.19,2,3.46,4.84,3.46,8.81
		c0,4-1.24,7.28-3.53,9.53c-2.3,2.3-6.08,3.54-10.85,3.54c-2.26,0-4.15-0.11-5.76-0.3V241.05z M490.05,262.75
		c0.8,0.14,1.96,0.18,3.21,0.18c6.77,0,10.44-3.78,10.44-10.41c0.04-5.79-3.24-9.47-9.93-9.47c-1.64,0-2.88,0.15-3.72,0.33V262.75z"
		/>
	<path d="M543.44,240.72v24.54h-3.17v-24.54H543.44z"/>
	<path d="M578.11,265.26v-24.54h3.46l7.86,12.41c1.82,2.88,3.24,5.47,4.4,7.98l0.07-0.03c-0.29-3.28-0.36-6.27-0.36-10.08v-10.27
		h2.98v24.54h-3.21l-7.79-12.45c-1.71-2.73-3.35-5.54-4.59-8.19l-0.11,0.03c0.19,3.09,0.26,6.05,0.26,10.12v10.48H578.11z"/>
	<path d="M649.9,264.17c-1.42,0.51-4.23,1.34-7.54,1.34c-3.71,0-6.77-0.94-9.17-3.24c-2.12-2.04-3.43-5.31-3.43-9.14
		c0.03-7.31,5.06-12.67,13.29-12.67c2.84,0,5.06,0.62,6.11,1.13l-0.77,2.58c-1.31-0.58-2.95-1.05-5.42-1.05
		c-5.97,0-9.86,3.72-9.86,9.86c0,6.22,3.75,9.91,9.46,9.91c2.07,0,3.49-0.3,4.23-0.65v-7.32h-4.99v-2.55h8.09V264.17z"/>
	<path d="M720.75,240.72h3.17v21.88h10.48v2.66h-13.65V240.72z"/>
	<path d="M767.08,240.72h3.17v21.88h10.48v2.66h-13.65V240.72z"/>
	<path d="M829.13,264.46c-1.16,0.58-3.49,1.16-6.48,1.16c-6.9,0-12.11-4.37-12.11-12.41c0-7.68,5.2-12.89,12.8-12.89
		c3.06,0,4.98,0.65,5.83,1.1l-0.77,2.58c-1.21-0.59-2.92-1.02-4.97-1.02c-5.75,0-9.57,3.67-9.57,10.12c0,6,3.47,9.86,9.44,9.86
		c1.92,0,3.89-0.4,5.17-1.02L829.13,264.46z"/>
</g>
</svg>
