<?xml version="1.0" encoding="utf-8"?>
<!-- Generator: Adobe Illustrator 24.2.1, SVG Export Plug-In . SVG Version: 6.00 Build 0)  -->
<svg version="1.1" id="Layer_1" xmlns="http://www.w3.org/2000/svg" xmlns:xlink="http://www.w3.org/1999/xlink" x="0px" y="0px"
	 viewBox="0 0 195.3 111.8" style="enable-background:new 0 0 195.3 111.8;" xml:space="preserve">
<style type="text/css">
	.st0{clip-path:url(#SVGID_2_);fill:#9D674C;}
	.st1{clip-path:url(#SVGID_4_);fill:#6B473C;}
	.st2{clip-path:url(#SVGID_6_);fill:#3E2723;}
	.st3{enable-background:new    ;}
	.st4{fill:#FFFFFF;}
</style>
<g>
	<g>
		<defs>
			<rect id="SVGID_1_" x="30.1" y="5.7" width="56.1" height="77.2"/>
		</defs>
		<clipPath id="SVGID_2_">
			<use xlink:href="#SVGID_1_"  style="overflow:visible;"/>
		</clipPath>
		<path class="st0" d="M65.5,30.4c-4.4-1.1-6.5,3.5-6.5,3.5s-2-4.9-5.8-5.3c-3.9-0.4-15.8-0.3-13.5-3.6c3.5-5,4.6-11.6,1.7-13.4
			c-1.3-0.8-5.5-0.9-5.5-2.6s2.9-0.2,3.8,0.1c4.3,1.3,15.8,4.2,17.9,1.1c0.7-1-0.4-4.7,1.6-4.7c1.8,0,0.9,3.8,1.1,5
			c0.5,3.5,12.3,3.4,16.5,4.2c0.6,0.1,1.9,0.2,1.9,1.2c0,1.1-1.7,0.5-2.3,0.5c-0.8,0-3.8-0.1-2.8,1.7c1.6,2.9,6.3,10.4,1.9,13.1
			C73.6,32.6,69.9,31.5,65.5,30.4z"/>
	</g>
	<g>
		<defs>
			<rect id="SVGID_3_" x="30.1" y="5.7" width="56.1" height="77.2"/>
		</defs>
		<clipPath id="SVGID_4_">
			<use xlink:href="#SVGID_3_"  style="overflow:visible;"/>
		</clipPath>
		<path class="st1" d="M55.4,47.4c3.3,0.6,4.3,4.3,4.3,4.7c0,0,1.4-3.7,4.4-3.1c3,0.5,14,3.4,17.2,1.9c4.5-2.1,1.7-11,0.9-12.1
			c-0.6-0.9,0.6-0.9,0.9-0.9c0.5,0,1.8,0,1.8-0.8s-1.3-1-1.8-1c-5-0.4-17.4-0.9-20-0.9c-2.6,0-4.2,4.2-4.2,4.2s-2.5-5.8-6.4-6.4
			S38.2,30.5,33.4,30c-0.5,0-2-0.1-2,0.9s1.4,0.9,2,1c1.7,0.1,4.8,0.7,4.8,4.8c0,4.1-3.3,6.4-3.7,8.8C34,49,52.1,46.8,55.4,47.4z"/>
	</g>
	<g>
		<defs>
			<rect id="SVGID_5_" x="30.1" y="5.7" width="56.1" height="77.2"/>
		</defs>
		<clipPath id="SVGID_6_">
			<use xlink:href="#SVGID_5_"  style="overflow:visible;"/>
		</clipPath>
		<path class="st2" d="M60.6,72.4c-0.1-1.2-0.1-4.2,3.3-3.3c3.3,0.9,10.7,4.5,17.2,3.6c5.2-0.7,1.6-12.6,1.1-13.8s1.1-0.9,1.6-0.8
			c0.3,0,0.9,0,0.9-0.7s-0.6-0.8-0.9-0.9c-4.7-0.9-14.9-2.7-18.9-3.2c-4-0.5-5.1,3.6-5.1,3.6s-1.4-4.1-4.5-4.5s-17.9-2.2-23.9-2
			c-0.4,0-1.1,0.2-1.1,0.9s0.8,0.7,1.1,0.7c2.2,0.1,5.1,0.6,5.1,7s-3.8,7.9-4.3,11.3c-0.6,4.3,18.5-1,22-1.4
			c3.5-0.4,3.7,2.3,3.5,3.5c-0.4,2.6-3.3,10.5,0.9,10.5C62.8,82.9,60.9,75.1,60.6,72.4z"/>
	</g>
</g>
<g>
	<g class="st3">
		<path class="st4" d="M19.8,80.9c1,0.3,2,0.7,3.1,1.4l0.7-0.6c0.5-0.4,0.9-0.7,1.3-0.8c0.3-0.1,0.7-0.2,1.1-0.2
			c0.5,0,0.9,0.1,1.2,0.3c0.3,0.2,0.4,0.5,0.4,1c0,0.2,0,0.4-0.1,0.5l-1.3,4.4c-0.1,0.5-0.3,0.9-0.6,1.1c-0.2,0.2-0.6,0.3-1,0.3
			c-0.5,0-0.9-0.1-1.2-0.4c-0.4-0.3-0.9-0.9-1.6-1.8c-0.7-0.9-1.4-1.5-2-1.8c-0.6-0.4-1.2-0.5-1.9-0.5c-0.5,0-0.9,0.2-1.2,0.5
			c-0.3,0.3-0.5,0.7-0.5,1.1c0,0.5,0.3,1,0.8,1.4c0.5,0.4,1.3,1,2.4,1.6c1.1,0.7,2,1.3,2.8,1.8c0.7,0.5,1.3,1.2,1.9,2
			c0.5,0.8,0.8,1.7,0.8,2.7c0,0.7-0.1,1.3-0.3,2c-0.5,1.7-1.5,3-3,3.9c-1.5,0.9-3.2,1.3-5.2,1.3c-1.5,0-2.7-0.2-3.7-0.5
			c-1-0.3-2-0.9-3.1-1.7l-1.2,1c-0.5,0.4-1,0.8-1.3,0.9c-0.3,0.2-0.7,0.2-1.2,0.2c-0.5,0-0.9-0.1-1.2-0.4c-0.3-0.2-0.4-0.6-0.4-1
			c0-0.2,0-0.4,0.1-0.7L6,95.2c0.2-0.6,0.4-0.9,0.7-1.2s0.7-0.4,1.2-0.4c0.5,0,0.9,0.2,1.3,0.5c0.4,0.3,0.9,1,1.6,1.9
			c0.7,1,1.3,1.7,1.9,2c0.6,0.4,1.3,0.6,2.1,0.6c0.6,0,1-0.1,1.3-0.3c0.3-0.2,0.5-0.5,0.7-0.9c0-0.1,0.1-0.3,0.1-0.5
			c0-0.5-0.2-1-0.7-1.4c-0.5-0.4-1.2-0.9-2.3-1.5c-1.1-0.7-2-1.3-2.7-1.8c-0.7-0.5-1.3-1.2-1.8-2c-0.5-0.8-0.8-1.7-0.8-2.8
			c0-0.7,0.1-1.5,0.4-2.2c0.4-1.5,1.4-2.7,2.8-3.6c1.4-0.9,3-1.3,4.8-1.3C17.7,80.4,18.8,80.6,19.8,80.9z"/>
	</g>
	<g class="st3">
		<path class="st4" d="M46.2,97.5c0,0.1-0.1,0.2-0.1,0.4c0,0.1,0,0.3,0.1,0.4c0.1,0.1,0.2,0.1,0.3,0.1c0.3,0,0.5-0.1,0.7-0.3
			c0.2-0.2,0.3-0.3,0.4-0.3c0.1,0,0.2,0.1,0.3,0.2c0.1,0.1,0.1,0.3,0.1,0.5c0,0.6-0.2,1.2-0.6,1.8c-0.4,0.6-1.1,1.1-1.9,1.4
			c-0.8,0.4-1.8,0.6-3,0.6c-1.4,0-2.5-0.3-3.4-1s-1.3-1.5-1.3-2.6c0-0.8,0.2-1.7,0.6-2.7l1.8-4.6c0.1-0.3,0.2-0.5,0.2-0.7
			c0-0.3-0.1-0.5-0.3-0.7c-0.2-0.2-0.4-0.2-0.7-0.2c-0.4,0-0.8,0.2-1.2,0.6c-0.4,0.4-0.8,1-1,1.8v-0.1l-2,6.5
			c-0.1,0.3-0.1,0.5-0.1,0.7c0,0.3,0.1,0.5,0.2,0.7c0.1,0.2,0.3,0.3,0.4,0.5c0.1,0.1,0.3,0.3,0.3,0.4s0.1,0.2,0,0.4
			c-0.1,0.3-0.3,0.5-0.6,0.6c-0.3,0.1-0.8,0.2-1.5,0.2h-7.3c-0.6,0-1-0.1-1.2-0.3c-0.3-0.2-0.3-0.4-0.3-0.7c0.1-0.3,0.3-0.5,0.7-0.7
			c0.3-0.2,0.6-0.4,0.8-0.6c0.2-0.2,0.4-0.6,0.5-1.1l4.9-16c0.1-0.2,0.1-0.4,0.1-0.5c0-0.2-0.1-0.4-0.2-0.6
			c-0.1-0.1-0.3-0.3-0.5-0.4c-0.2-0.2-0.4-0.3-0.5-0.4c-0.1-0.1-0.1-0.3,0-0.5c0.1-0.5,0.8-0.9,2-1.3c1.2-0.4,2.5-0.5,3.8-0.5
			c1.2,0,2.1,0.2,2.7,0.7c0.6,0.5,0.9,1.1,0.9,1.9c0,0.5-0.1,0.9-0.2,1.4l-1.7,5.6c0.8-1.1,1.7-1.8,2.6-2.3s1.9-0.6,3-0.6
			c1.3,0,2.4,0.4,3.2,1.2c0.8,0.8,1.2,1.8,1.2,3.1c0,0.7-0.1,1.3-0.3,2L46.2,97.5z"/>
	</g>
	<g class="st3">
		<path class="st4" d="M60.4,85.7c0.6,0.5,0.9,1.1,0.9,1.9c0,0.5-0.1,1-0.2,1.4l-2.9,9.6C58,98.9,58,99.1,58,99.3
			c0,0.3,0.1,0.5,0.2,0.7c0.1,0.2,0.3,0.3,0.4,0.5c0.1,0.1,0.3,0.3,0.3,0.4s0.1,0.2,0,0.4c-0.1,0.3-0.3,0.5-0.6,0.6
			s-0.8,0.2-1.5,0.2h-7.3c-0.6,0-1-0.1-1.2-0.3c-0.3-0.2-0.3-0.4-0.3-0.7c0.1-0.3,0.3-0.5,0.7-0.7c0.3-0.2,0.6-0.4,0.8-0.6
			c0.2-0.2,0.4-0.6,0.5-1.1l2.8-9.2c0.1-0.2,0.1-0.4,0.1-0.5c0-0.2-0.1-0.4-0.2-0.6c-0.1-0.1-0.3-0.3-0.5-0.4
			c-0.2-0.2-0.4-0.3-0.4-0.4c-0.1-0.1-0.1-0.3,0-0.5c0.1-0.5,0.8-0.9,2-1.3s2.5-0.6,3.8-0.6C58.9,85,59.8,85.3,60.4,85.7z
			 M61.9,78.8c0.6,0.5,0.8,1.2,0.8,2c0,0.6-0.1,1.1-0.4,1.6c-0.3,0.5-0.7,1-1.2,1.3c-0.5,0.3-1.1,0.5-1.7,0.5c-0.8,0-1.5-0.3-2-0.8
			s-0.8-1.2-0.8-2c0-0.5,0.1-1.1,0.4-1.6c0.3-0.5,0.7-1,1.2-1.3c0.5-0.3,1.1-0.5,1.8-0.5C60.6,78,61.3,78.2,61.9,78.8z"/>
	</g>
	<g class="st3">
		<path class="st4" d="M81.6,86.5c0.9,1.1,1.4,2.6,1.4,4.4c0,1-0.1,2.1-0.4,3.2c-0.6,2.6-1.8,4.7-3.6,6c-1.7,1.4-3.8,2.1-6.1,2.1
			c-1.5,0-2.8-0.3-3.8-0.9l-1,3.4c-0.1,0.2-0.1,0.5-0.1,0.7c0,0.2,0.1,0.4,0.2,0.6c0.1,0.2,0.2,0.3,0.4,0.5c0.2,0.2,0.3,0.3,0.3,0.4
			c0.1,0.1,0.1,0.2,0,0.4c-0.1,0.3-0.3,0.5-0.6,0.6c-0.3,0.1-0.8,0.2-1.5,0.2h-7.3c-0.6,0-1-0.1-1.2-0.3c-0.2-0.2-0.3-0.4-0.2-0.7
			c0-0.2,0.1-0.3,0.2-0.4c0.1-0.1,0.3-0.2,0.4-0.3c0.3-0.2,0.6-0.4,0.8-0.7c0.2-0.2,0.4-0.6,0.5-1.1l4.7-15.3
			c0.1-0.2,0.1-0.4,0.1-0.5c0-0.2-0.1-0.4-0.2-0.6c-0.1-0.1-0.3-0.3-0.5-0.4c-0.2-0.2-0.4-0.3-0.4-0.4c-0.1-0.1-0.1-0.3,0-0.5
			c0.1-0.5,0.8-0.9,2-1.3s2.5-0.6,3.8-0.6c0.9,0,1.7,0.2,2.3,0.7c0.6,0.5,1,1.1,1,2c1.5-1.9,3.1-2.8,4.9-2.8
			C79.3,84.9,80.6,85.4,81.6,86.5z M74.8,90.5c0-0.4-0.1-0.7-0.2-0.9c-0.1-0.1-0.3-0.2-0.6-0.2c-0.2,0-0.4,0.1-0.7,0.3
			c-0.3,0.2-0.6,0.5-0.9,0.9l-2.5,8.4c0.3,0.3,0.6,0.4,0.9,0.4c0.6,0,1.1-0.3,1.6-1c0.5-0.7,1.1-2,1.6-4
			C74.5,92.5,74.8,91.2,74.8,90.5z"/>
	</g>
	<g class="st3">
		<path class="st4" d="M98.2,85.2c1.3,0.3,2.3,0.8,3,1.3s1,1.2,1,2c0,0.7-0.3,1.4-0.9,1.8c-0.6,0.5-1.4,0.7-2.4,0.7
			c-1.1,0-2-0.3-2.7-0.8s-1.1-1.2-1.1-2c0-0.3,0-0.5,0.1-0.8c-0.4-0.1-0.7-0.2-1-0.2c-0.5,0-1,0.1-1.3,0.4s-0.5,0.6-0.5,1.1
			c0,0.6,0.3,1,0.8,1.4c0.6,0.4,1.5,0.9,2.7,1.4c1.1,0.5,1.9,0.9,2.6,1.3c0.7,0.4,1.3,0.9,1.8,1.5c0.5,0.6,0.7,1.3,0.7,2.1
			c0,0.2,0,0.5-0.1,1c-0.3,1.4-1.3,2.6-2.8,3.4c-1.6,0.8-3.6,1.2-6.1,1.2c-2.9,0-5.1-0.4-6.8-1.2c-1.7-0.8-2.5-1.8-2.5-3.2
			c0-0.9,0.3-1.6,0.8-2.1c0.6-0.5,1.3-0.7,2.2-0.7c1.1,0,2,0.3,2.7,1c0.8,0.7,1.1,1.5,1.1,2.5c0,0.3,0,0.6-0.1,0.9
			c0.5,0.1,1,0.2,1.5,0.2c0.6,0,1-0.1,1.4-0.4s0.5-0.7,0.5-1.2c0-0.5-0.3-0.9-0.7-1.3c-0.5-0.4-1.2-0.8-2.2-1.3
			c-1-0.4-1.7-0.9-2.4-1.3c-0.6-0.4-1.1-0.9-1.6-1.5c-0.4-0.6-0.7-1.3-0.7-2.1c0-1.7,0.7-3.1,2.2-4.2c1.5-1,3.5-1.6,6.2-1.6
			C95.4,84.7,96.9,84.9,98.2,85.2z"/>
	</g>
	<g class="st3">
		<path class="st4" d="M107,89.2c0.5-0.3,1-0.5,1.7-0.5h7.5c1.2,0,1.8,0.5,1.8,1.4c0,0.2,0,0.4-0.1,0.6c-0.4,1.3-1.3,2-2.7,2h-7.5
			c-0.6,0-1-0.1-1.3-0.3s-0.4-0.5-0.4-1c0-0.2,0-0.4,0.1-0.6C106.2,90.1,106.5,89.6,107,89.2z"/>
	</g>
	<g class="st3">
		<path class="st4" d="M142.4,90.6c-0.8,0.6-1.9,1-3.2,1.2c1.2,0.5,2,1,2.6,1.6s0.8,1.4,0.8,2.2c0,0.5-0.1,1-0.2,1.5
			c-0.5,1.5-1.7,2.7-3.7,3.6c-2,0.9-4.5,1.4-7.4,1.4c-2.3,0-4.3-0.2-5.9-0.7c-1.6-0.5-2.8-1.1-3.5-1.9c-0.8-0.8-1.2-1.7-1.2-2.6
			c0-0.4,0.1-0.8,0.2-1.2c0.3-0.9,0.8-1.6,1.5-2c0.7-0.4,1.6-0.6,2.6-0.6c1.3,0,2.4,0.3,3.2,0.9c0.8,0.6,1.2,1.3,1.2,2.2
			c0,0.4-0.1,0.8-0.2,1.2c-0.1,0.4-0.3,0.8-0.5,1.1c0.6,0.2,1.2,0.4,2.1,0.4c0.8,0,1.5-0.2,2-0.6c0.6-0.4,0.9-1.1,1.2-1.9
			c0.1-0.4,0.2-0.8,0.2-1.2c0-0.7-0.2-1.3-0.7-1.8c-0.5-0.4-1.1-0.7-1.8-0.7c-1.2,0-1.8-0.4-1.8-1.1c0-0.1,0-0.2,0.1-0.4
			c0.1-0.4,0.4-0.7,0.6-1c0.3-0.2,0.6-0.3,1.1-0.3h0.9c0.7,0,1.4-0.3,1.9-0.8c0.5-0.5,0.9-1.1,1.2-1.9c0.1-0.5,0.2-0.9,0.2-1.3
			c0-0.8-0.2-1.4-0.7-1.8c-0.4-0.4-1-0.6-1.6-0.6c-0.4,0-0.9,0-1.2,0.1c0.1,0.3,0.1,0.7,0.1,1.1c0,0.3,0,0.6-0.1,1
			c-0.2,0.8-0.7,1.5-1.4,2c-0.7,0.5-1.7,0.8-2.9,0.8c-1.3,0-2.2-0.3-2.9-0.8c-0.7-0.5-1-1.2-1-2.1c0-0.4,0.1-0.7,0.2-1.2
			c0.3-1.2,1.3-2.1,2.8-2.8c1.6-0.7,3.9-1,6.9-1c1.9,0,3.7,0.3,5.2,0.8c1.6,0.5,2.8,1.2,3.7,2.1c0.9,0.9,1.3,1.9,1.3,3.1
			c0,0.4-0.1,0.9-0.2,1.3C143.8,89.1,143.2,90,142.4,90.6z"/>
	</g>
	<g class="st3">
		<path class="st4" d="M160.3,87.4c-0.7-0.6-1.1-1.3-1.1-2.2c0-0.6,0.2-1.3,0.5-2c-0.3,0-0.6-0.1-0.8-0.1c-1.2,0-2.1,0.5-2.9,1.5
			s-1.5,2.5-2.1,4.6c1.1-0.5,2.4-0.8,3.7-0.8c1.6,0,3,0.2,4.3,0.7c1.2,0.5,2.2,1.2,2.9,2.1c0.7,0.9,1,1.9,1,3.1
			c0,0.4-0.1,0.9-0.2,1.4c-0.5,2-1.6,3.5-3.4,4.6c-1.8,1.1-4.3,1.7-7.5,1.7c-3.1,0-5.5-0.7-7.2-2.2s-2.5-3.5-2.5-6.1
			c0-1.4,0.2-2.9,0.7-4.7c0.9-3,2.4-5.2,4.4-6.7c2.1-1.5,4.7-2.2,7.8-2.2c1.9,0,3.5,0.2,4.9,0.6s2.4,0.9,3.1,1.6
			c0.7,0.7,1,1.4,1.1,2.2c0,1-0.3,1.8-0.9,2.5c-0.6,0.7-1.6,1-3,1C162,88.3,161,88,160.3,87.4z M154.1,92.7
			c-0.5,0.7-0.9,1.6-1.1,2.9c-0.1,0.6-0.2,1.1-0.2,1.6c0,0.7,0.1,1.2,0.4,1.6c0.2,0.4,0.6,0.6,1,0.6c0.5,0,1-0.3,1.5-1
			s0.8-1.6,1.2-2.7c0.1-0.6,0.2-1.2,0.2-1.7c0-0.7-0.1-1.2-0.4-1.6c-0.2-0.4-0.5-0.6-0.9-0.6C155.2,91.7,154.6,92,154.1,92.7z"/>
	</g>
	<g class="st3">
		<path class="st4" d="M190.1,87.3c0,1.2-0.2,2.6-0.6,4.1c-1.1,3.8-2.7,6.6-4.9,8.3c-2.2,1.7-5,2.5-8.4,2.5c-5.8,0-8.7-2.2-8.7-6.7
			c0-1.3,0.2-2.6,0.6-4.1c1.1-3.8,2.7-6.6,4.9-8.3c2.2-1.7,5-2.5,8.4-2.5C187.1,80.6,190.1,82.8,190.1,87.3z M179.6,84.2
			c-0.4,0.4-0.9,1.2-1.4,2.4c-0.5,1.1-1,2.8-1.6,4.8c-0.8,3-1.2,5.1-1.2,6.3c0,0.6,0.1,1,0.3,1.2c0.2,0.2,0.5,0.4,0.8,0.4
			c0.5,0,1-0.2,1.4-0.6s0.9-1.2,1.4-2.4c0.5-1.2,1-2.8,1.6-4.9c0.8-3,1.2-5.1,1.2-6.3c0-0.6-0.1-1-0.3-1.2c-0.2-0.2-0.5-0.4-0.8-0.4
			C180.5,83.5,180,83.7,179.6,84.2z"/>
	</g>
</g>
</svg>
